*
*
G04 PADS VX.0 Build Number: 635560 generated Gerber (RS-274-X) file*
G04 PC Version=2.1*
*
%IN "ÌåÎÂÇ¹°´¼ü°å.pcb"*%
*
%MOIN*%
*
%FSLAX35Y35*%
*
*
*
*
G04 PC Standard Apertures*
*
*
G04 Thermal Relief Aperture macro.*
%AMTER*
1,1,$1,0,0*
1,0,$1-$2,0,0*
21,0,$3,$4,0,0,45*
21,0,$3,$4,0,0,135*
%
*
*
G04 Annular Aperture macro.*
%AMANN*
1,1,$1,0,0*
1,0,$2,0,0*
%
*
*
G04 Odd Aperture macro.*
%AMODD*
1,1,$1,0,0*
1,0,$1-0.005,0,0*
%
*
*
G04 PC Custom Aperture Macros*
*
*
*
*
*
*
G04 PC Aperture Table*
*
%ADD010C,0.00004*%
%ADD011C,0.03937*%
%ADD012R,0.03937X0.05512*%
%ADD013R,0.06X0.06*%
%ADD014C,0.06*%
%ADD015C,0.00787*%
%ADD016C,0.01181*%
%ADD017C,0.00394*%
*
*
*
*
G04 PC Circuitry*
G04 Layer Name ÌåÎÂÇ¹°´¼ü°å.pcb - circuitry*
%LPD*%
*
*
G04 PC Custom Flashes*
G04 Layer Name ÌåÎÂÇ¹°´¼ü°å.pcb - flashes*
%LPD*%
*
*
G04 PC Circuitry*
G04 Layer Name ÌåÎÂÇ¹°´¼ü°å.pcb - circuitry*
%LPD*%
*
G54D10*
G54D11*
G01X248819Y114173D03*
X116142Y160236D03*
G54D12*
X219803Y123465D03*
X234370D03*
X219803Y147087D03*
X234370D03*
X175906Y119724D03*
X190472D03*
X175906Y143346D03*
X190472D03*
X136339Y117559D03*
X150906D03*
X136339Y141181D03*
X150906D03*
G54D13*
X172756Y107717D03*
G54D14*
X182756D03*
X192756D03*
X202756D03*
G54D15*
X208756D02*
X204599Y109559D01*
X206150Y107717*
X204599Y105874*
X208756Y107717*
X204957Y106299D02*
X205559D01*
X205620Y107087D02*
X207335D01*
X206017Y107874D02*
X208401D01*
X205355Y108661D02*
X206625D01*
X204692Y109449D02*
X204848D01*
X204724Y105929D02*
Y106023D01*
Y109410D02*
Y109504D01*
X205512Y106278D02*
Y106959D01*
Y108474D02*
Y109155D01*
X206299Y106627D02*
Y108806D01*
X207087Y106976D02*
Y108457D01*
X207874Y107326D02*
Y108107D01*
X208661Y107675D02*
Y107758D01*
X182756Y111850D02*
X181374Y109927D01*
X182756Y111110*
X184137Y109927*
X182756Y111850*
X181597Y110236D02*
X181736D01*
X183776D02*
X183915D01*
X182162Y111024D02*
X182655D01*
X182857D02*
X183350D01*
X182728Y111811D02*
X182784D01*
X181890Y110368D02*
Y110644D01*
X182677Y111043D02*
Y111741D01*
X183465Y110503D02*
Y110864D01*
X192756Y112638D02*
X190951Y109597D01*
X192756Y111110*
X194560Y109597*
X192756Y112638*
X191331Y110236D02*
X191714D01*
X193798D02*
X194181D01*
X191798Y111024D02*
X192653D01*
X192859D02*
X193714D01*
X192265Y111811D02*
X193247D01*
X192733Y112598D02*
X192779D01*
X191339Y109922D02*
Y110250D01*
X192126Y110582D02*
Y111576D01*
X192913Y110978D02*
Y112372D01*
X193701Y110318D02*
Y111046D01*
X194488Y109658D02*
Y109719D01*
X202756Y107717D02*
X219803D01*
Y123465*
X150906Y141181D02*
Y114606D01*
X181181*
X182756Y113031*
Y107717*
X136339Y141181D02*
Y160472D01*
X176102*
X136339Y117559D02*
X137126Y116772D01*
Y107717*
X172756*
X136339Y117559D02*
Y141181D01*
X175906Y143346D02*
Y160276D01*
X176102Y160472*
X190472Y143346D02*
Y119724D01*
X190866Y119331*
Y115709*
X192756Y113819*
Y107717*
X175906Y119724D02*
Y143346D01*
X176102Y160472D02*
X234764D01*
X234370Y147087D02*
Y160079D01*
X234764Y160472*
X234370Y123465D02*
Y147087D01*
X219803Y123465D02*
Y147087D01*
G54D16*
X138307Y121890D02*
Y157717D01*
X172953*
Y118150*
X176693*
Y154024*
X179598Y156929*
X228512*
X232402Y153040*
Y118740*
X237913*
Y158653*
X234913Y161654*
X135993*
X133189Y158850*
Y107371*
X137567Y102992*
X174528*
Y110276*
X140079*
Y114559*
X138701Y115936*
Y121890*
X138307*
X149134Y146890D02*
Y115638D01*
X150560Y114213*
X177528*
X179843Y111898*
Y102992*
X184370*
Y112787*
X181960Y115197*
X156763*
X153465Y118496*
Y146890*
X149134*
X187717Y147283D02*
Y117016D01*
X189488Y115245*
Y104173*
X195000*
Y147283*
X187717*
X214291Y152402D02*
Y121055D01*
X207843Y114606*
X200118*
Y103780*
X222165*
Y152402*
X214291*
X133189Y158266D02*
X237913D01*
X172953Y157203D02*
X237913D01*
X229301Y156140D02*
X237913D01*
X230364Y155077D02*
X237913D01*
X231427Y154014D02*
X237913D01*
X232402Y152951D02*
X237913D01*
X232402Y151888D02*
X237913D01*
X232402Y150825D02*
X237913D01*
X232402Y149762D02*
X237913D01*
X232402Y148699D02*
X237913D01*
X232402Y147636D02*
X237913D01*
X232402Y146573D02*
X237913D01*
X232402Y145510D02*
X237913D01*
X232402Y144448D02*
X237913D01*
X232402Y143385D02*
X237913D01*
X232402Y142322D02*
X237913D01*
X232402Y141259D02*
X237913D01*
X232402Y140196D02*
X237913D01*
X232402Y139133D02*
X237913D01*
X232402Y138070D02*
X237913D01*
X232402Y137007D02*
X237913D01*
X232402Y135944D02*
X237913D01*
X232402Y134881D02*
X237913D01*
X232402Y133818D02*
X237913D01*
X232402Y132755D02*
X237913D01*
X232402Y131692D02*
X237913D01*
X232402Y130629D02*
X237913D01*
X232402Y129566D02*
X237913D01*
X232402Y128503D02*
X237913D01*
X232402Y127440D02*
X237913D01*
X232402Y126377D02*
X237913D01*
X232402Y125314D02*
X237913D01*
X232402Y124251D02*
X237913D01*
X232402Y123188D02*
X237913D01*
X232402Y122125D02*
X237913D01*
X232402Y121062D02*
X237913D01*
X232402Y119999D02*
X237913D01*
X232402Y118936D02*
X237913D01*
X133668Y159329D02*
X237237D01*
X134731Y160392D02*
X236174D01*
X135794Y161455D02*
X235111D01*
X172953Y156140D02*
X178809D01*
X172953Y155077D02*
X177746D01*
X172953Y154014D02*
X176693D01*
X172953Y152951D02*
X176693D01*
X172953Y151888D02*
X176693D01*
X172953Y150825D02*
X176693D01*
X172953Y149762D02*
X176693D01*
X172953Y148699D02*
X176693D01*
X172953Y147636D02*
X176693D01*
X172953Y146573D02*
X176693D01*
X172953Y145510D02*
X176693D01*
X172953Y144448D02*
X176693D01*
X172953Y143385D02*
X176693D01*
X172953Y142322D02*
X176693D01*
X172953Y141259D02*
X176693D01*
X172953Y140196D02*
X176693D01*
X172953Y139133D02*
X176693D01*
X172953Y138070D02*
X176693D01*
X172953Y137007D02*
X176693D01*
X172953Y135944D02*
X176693D01*
X172953Y134881D02*
X176693D01*
X172953Y133818D02*
X176693D01*
X172953Y132755D02*
X176693D01*
X172953Y131692D02*
X176693D01*
X172953Y130629D02*
X176693D01*
X172953Y129566D02*
X176693D01*
X172953Y128503D02*
X176693D01*
X172953Y127440D02*
X176693D01*
X172953Y126377D02*
X176693D01*
X172953Y125314D02*
X176693D01*
X172953Y124251D02*
X176693D01*
X172953Y123188D02*
X176693D01*
X172953Y122125D02*
X176693D01*
X172953Y121062D02*
X176693D01*
X172953Y119999D02*
X176693D01*
X172953Y118936D02*
X176693D01*
X133189Y109369D02*
X174528D01*
X133189Y108306D02*
X174528D01*
X133317Y107243D02*
X174528D01*
X134380Y106180D02*
X174528D01*
X135443Y105117D02*
X174528D01*
X136506Y104054D02*
X174528D01*
X133189Y113621D02*
X140079D01*
X133189Y112558D02*
X140079D01*
X133189Y111495D02*
X140079D01*
X133189Y110432D02*
X140079D01*
X133189Y114684D02*
X139954D01*
X133189Y115747D02*
X138891D01*
X133189Y121062D02*
X138701D01*
X133189Y119999D02*
X138701D01*
X133189Y118936D02*
X138701D01*
X133189Y117873D02*
X138701D01*
X133189Y116810D02*
X138701D01*
X133189Y157203D02*
X138307D01*
X133189Y156140D02*
X138307D01*
X133189Y155077D02*
X138307D01*
X133189Y154014D02*
X138307D01*
X133189Y152951D02*
X138307D01*
X133189Y151888D02*
X138307D01*
X133189Y150825D02*
X138307D01*
X133189Y149762D02*
X138307D01*
X133189Y148699D02*
X138307D01*
X133189Y147636D02*
X138307D01*
X133189Y146573D02*
X138307D01*
X133189Y145510D02*
X138307D01*
X133189Y144448D02*
X138307D01*
X133189Y143385D02*
X138307D01*
X133189Y142322D02*
X138307D01*
X133189Y141259D02*
X138307D01*
X133189Y140196D02*
X138307D01*
X133189Y139133D02*
X138307D01*
X133189Y138070D02*
X138307D01*
X133189Y137007D02*
X138307D01*
X133189Y135944D02*
X138307D01*
X133189Y134881D02*
X138307D01*
X133189Y133818D02*
X138307D01*
X133189Y132755D02*
X138307D01*
X133189Y131692D02*
X138307D01*
X133189Y130629D02*
X138307D01*
X133189Y129566D02*
X138307D01*
X133189Y128503D02*
X138307D01*
X133189Y127440D02*
X138307D01*
X133189Y126377D02*
X138307D01*
X133189Y125314D02*
X138307D01*
X133189Y124251D02*
X138307D01*
X133189Y123188D02*
X138307D01*
X133189Y122125D02*
X138307D01*
X179183Y112558D02*
X184370D01*
X179843Y111495D02*
X184370D01*
X179843Y110432D02*
X184370D01*
X179843Y109369D02*
X184370D01*
X179843Y108306D02*
X184370D01*
X179843Y107243D02*
X184370D01*
X179843Y106180D02*
X184370D01*
X179843Y105117D02*
X184370D01*
X179843Y104054D02*
X184370D01*
X178120Y113621D02*
X183536D01*
X150088Y114684D02*
X182473D01*
X149134Y115747D02*
X156213D01*
X149134Y116810D02*
X155150D01*
X149134Y117873D02*
X154087D01*
X149134Y146573D02*
X153465D01*
X149134Y145510D02*
X153465D01*
X149134Y144448D02*
X153465D01*
X149134Y143385D02*
X153465D01*
X149134Y142322D02*
X153465D01*
X149134Y141259D02*
X153465D01*
X149134Y140196D02*
X153465D01*
X149134Y139133D02*
X153465D01*
X149134Y138070D02*
X153465D01*
X149134Y137007D02*
X153465D01*
X149134Y135944D02*
X153465D01*
X149134Y134881D02*
X153465D01*
X149134Y133818D02*
X153465D01*
X149134Y132755D02*
X153465D01*
X149134Y131692D02*
X153465D01*
X149134Y130629D02*
X153465D01*
X149134Y129566D02*
X153465D01*
X149134Y128503D02*
X153465D01*
X149134Y127440D02*
X153465D01*
X149134Y126377D02*
X153465D01*
X149134Y125314D02*
X153465D01*
X149134Y124251D02*
X153465D01*
X149134Y123188D02*
X153465D01*
X149134Y122125D02*
X153465D01*
X149134Y121062D02*
X153465D01*
X149134Y119999D02*
X153465D01*
X149134Y118936D02*
X153465D01*
X187717Y146692D02*
X195000D01*
X187717Y145629D02*
X195000D01*
X187717Y144566D02*
X195000D01*
X187717Y143503D02*
X195000D01*
X187717Y142440D02*
X195000D01*
X187717Y141377D02*
X195000D01*
X187717Y140314D02*
X195000D01*
X187717Y139251D02*
X195000D01*
X187717Y138188D02*
X195000D01*
X187717Y137125D02*
X195000D01*
X187717Y136062D02*
X195000D01*
X187717Y134999D02*
X195000D01*
X187717Y133936D02*
X195000D01*
X187717Y132873D02*
X195000D01*
X187717Y131810D02*
X195000D01*
X187717Y130747D02*
X195000D01*
X187717Y129684D02*
X195000D01*
X187717Y128621D02*
X195000D01*
X187717Y127558D02*
X195000D01*
X187717Y126495D02*
X195000D01*
X187717Y125432D02*
X195000D01*
X187717Y124369D02*
X195000D01*
X187717Y123306D02*
X195000D01*
X187717Y122243D02*
X195000D01*
X187717Y121180D02*
X195000D01*
X187717Y120117D02*
X195000D01*
X187717Y119054D02*
X195000D01*
X187717Y117991D02*
X195000D01*
X187805Y116928D02*
X195000D01*
X188868Y115865D02*
X195000D01*
X189488Y114802D02*
X195000D01*
X189488Y113739D02*
X195000D01*
X189488Y112676D02*
X195000D01*
X189488Y111613D02*
X195000D01*
X189488Y110550D02*
X195000D01*
X189488Y109487D02*
X195000D01*
X189488Y108424D02*
X195000D01*
X189488Y107361D02*
X195000D01*
X189488Y106298D02*
X195000D01*
X189488Y105235D02*
X195000D01*
X214291Y151613D02*
X222165D01*
X214291Y150550D02*
X222165D01*
X214291Y149487D02*
X222165D01*
X214291Y148424D02*
X222165D01*
X214291Y147361D02*
X222165D01*
X214291Y146298D02*
X222165D01*
X214291Y145235D02*
X222165D01*
X214291Y144172D02*
X222165D01*
X214291Y143109D02*
X222165D01*
X214291Y142046D02*
X222165D01*
X214291Y140983D02*
X222165D01*
X214291Y139920D02*
X222165D01*
X214291Y138857D02*
X222165D01*
X214291Y137794D02*
X222165D01*
X214291Y136731D02*
X222165D01*
X214291Y135668D02*
X222165D01*
X214291Y134605D02*
X222165D01*
X214291Y133542D02*
X222165D01*
X214291Y132479D02*
X222165D01*
X214291Y131416D02*
X222165D01*
X214291Y130353D02*
X222165D01*
X214291Y129290D02*
X222165D01*
X214291Y128227D02*
X222165D01*
X214291Y127164D02*
X222165D01*
X214291Y126101D02*
X222165D01*
X214291Y125038D02*
X222165D01*
X214291Y123975D02*
X222165D01*
X214291Y122912D02*
X222165D01*
X214291Y121849D02*
X222165D01*
X214023Y120786D02*
X222165D01*
X212960Y119723D02*
X222165D01*
X211897Y118660D02*
X222165D01*
X210834Y117597D02*
X222165D01*
X209771Y116534D02*
X222165D01*
X208708Y115471D02*
X222165D01*
X200118Y114408D02*
X222165D01*
X200118Y113345D02*
X222165D01*
X200118Y112282D02*
X222165D01*
X200118Y111219D02*
X222165D01*
X200118Y110156D02*
X222165D01*
X200118Y109093D02*
X222165D01*
X200118Y108030D02*
X222165D01*
X200118Y106967D02*
X222165D01*
X200118Y105904D02*
X222165D01*
X200118Y104841D02*
X222165D01*
G54D17*
X100000Y149409D02*
Y172047D01*
X281299*
Y100197*
X115945*
Y123228*
X109055*
Y149409*
X100000*
X271850Y159786D02*
G75*
G03X271850I-2559J0D01*
G01X273425Y136146D02*
G03X273425I-4134J0D01*
G01X271850Y112506D02*
G03X271850I-2559J0D01*
G74*
G01X0Y0D02*
M02*
