*
*
G04 PADS VX.0 Build Number: 635560 generated Gerber (RS-274-X) file*
G04 PC Version=2.1*
*
%IN "ÌåÎÂÇ¹°´¼ü°å.pcb"*%
*
%MOIN*%
*
%FSLAX35Y35*%
*
*
*
*
G04 PC Standard Apertures*
*
*
G04 Thermal Relief Aperture macro.*
%AMTER*
1,1,$1,0,0*
1,0,$1-$2,0,0*
21,0,$3,$4,0,0,45*
21,0,$3,$4,0,0,135*
%
*
*
G04 Annular Aperture macro.*
%AMANN*
1,1,$1,0,0*
1,0,$2,0,0*
%
*
*
G04 Odd Aperture macro.*
%AMODD*
1,1,$1,0,0*
1,0,$1-0.005,0,0*
%
*
*
G04 PC Custom Aperture Macros*
*
*
*
*
*
*
G04 PC Aperture Table*
*
%ADD010C,0.00004*%
%ADD017C,0.00394*%
%ADD018C,0.01*%
%ADD019C,0.001*%
*
*
*
*
G04 PC Circuitry*
G04 Layer Name ÌåÎÂÇ¹°´¼ü°å.pcb - circuitry*
%LPD*%
*
*
G04 PC Custom Flashes*
G04 Layer Name ÌåÎÂÇ¹°´¼ü°å.pcb - flashes*
%LPD*%
*
*
G04 PC Circuitry*
G04 Layer Name ÌåÎÂÇ¹°´¼ü°å.pcb - circuitry*
%LPD*%
*
G54D10*
G54D17*
G01X100000Y149409D02*
Y172047D01*
X281299*
Y100197*
X115945*
Y123228*
X109055*
Y149409*
X100000*
X271850Y159786D02*
G75*
G03X271850I-2559J0D01*
G01X273425Y136146D02*
G03X273425I-4134J0D01*
G01X271850Y112506D02*
G03X271850I-2559J0D01*
G54D18*
G01X74213Y100197D02*
Y129372D01*
Y100197D02*
X71713Y110197D01*
X76713*
X74213Y100197*
Y172047D02*
Y142872D01*
Y172047D02*
X76713Y162047D01*
X71713*
X74213Y172047*
X113307Y100197D02*
X69213D01*
X107008Y172047D02*
X69213D01*
X59667Y137685D02*
X60122Y137997D01*
X60804Y138935*
Y132372*
X63985Y138935D02*
X63304Y138622D01*
X63076Y137997*
Y137372*
X63304Y136747*
X63758Y136435*
X64667Y136122*
X65349Y135810*
X65804Y135185*
X66031Y134560*
Y133622*
X65804Y132997*
X65576Y132685*
X64894Y132372*
X63985*
X63304Y132685*
X63076Y132997*
X62849Y133622*
Y134560*
X63076Y135185*
X63531Y135810*
X64213Y136122*
X65122Y136435*
X65576Y136747*
X65804Y137372*
Y137997*
X65576Y138622*
X64894Y138935*
X63985*
X68304Y132997D02*
X68076Y132685D01*
X68304Y132372*
X68531Y132685*
X68304Y132997*
X71031Y138935D02*
X73531D01*
X72167Y136435*
X72849*
X73304Y136122*
X73531Y135810*
X73758Y134872*
Y134247*
X73531Y133310*
X73076Y132685*
X72394Y132372*
X71713*
X71031Y132685*
X70804Y132997*
X70576Y133622*
X75804Y136747D02*
Y132372D01*
Y135497D02*
X76485Y136435D01*
X76940Y136747*
X77622*
X78076Y136435*
X78304Y135497*
Y132372*
Y135497D02*
X78985Y136435D01*
X79440Y136747*
X80122*
X80576Y136435*
X80804Y135497*
Y132372*
X82849Y136747D02*
Y132372D01*
Y135497D02*
X83531Y136435D01*
X83985Y136747*
X84667*
X85122Y136435*
X85349Y135497*
Y132372*
Y135497D02*
X86031Y136435D01*
X86485Y136747*
X87167*
X87622Y136435*
X87849Y135497*
Y132372*
X99803Y181496D02*
X173006D01*
X99803D02*
X109803Y183996D01*
Y178996*
X99803Y181496*
X281299D02*
X208097D01*
X281299D02*
X271299Y178996D01*
Y183996*
X281299Y181496*
X99803Y160512D02*
Y186496D01*
X281299Y160512D02*
Y186496D01*
X178278Y184309D02*
X176006Y179934D01*
X179415*
X178278Y184309D02*
Y177746D01*
X184188Y183371D02*
X183960Y183996D01*
X183278Y184309*
X182824*
X182142Y183996*
X181688Y183059*
X181460Y181496*
Y179934*
X181688Y178684*
X182142Y178059*
X182824Y177746*
X183051*
X183733Y178059*
X184188Y178684*
X184415Y179621*
Y179934*
X184188Y180871*
X183733Y181496*
X183051Y181809*
X182824*
X182142Y181496*
X181688Y180871*
X181460Y179934*
X186688Y178371D02*
X186460Y178059D01*
X186688Y177746*
X186915Y178059*
X186688Y178371*
X188960Y183059D02*
X189415Y183371D01*
X190097Y184309*
Y177746*
X192142Y182121D02*
Y177746D01*
Y180871D02*
X192824Y181809D01*
X193278Y182121*
X193960*
X194415Y181809*
X194642Y180871*
Y177746*
Y180871D02*
X195324Y181809D01*
X195778Y182121*
X196460*
X196915Y181809*
X197142Y180871*
Y177746*
X199188Y182121D02*
Y177746D01*
Y180871D02*
X199869Y181809D01*
X200324Y182121*
X201006*
X201460Y181809*
X201688Y180871*
Y177746*
Y180871D02*
X202369Y181809D01*
X202824Y182121*
X203506*
X203960Y181809*
X204188Y180871*
Y177746*
X296850Y320850D02*
X554850D01*
X296850Y296850D02*
X554850D01*
X296850Y320850D02*
Y296850D01*
X380850Y320850D02*
Y296850D01*
X416850Y320850D02*
Y296850D01*
X452850Y320850D02*
Y296850D01*
X506850Y320850D02*
Y296850D01*
X554850Y320850D02*
Y296850D01*
X523532Y310725D02*
Y302850D01*
X521623Y310725D02*
X525441D01*
X529532D02*
X528987Y310350D01*
X528441Y309600*
X528169Y308850*
X527896Y307725*
Y305850*
X528169Y304725*
X528441Y303975*
X528987Y303225*
X529532Y302850*
X530623*
X531169Y303225*
X531714Y303975*
X531987Y304725*
X532259Y305850*
Y307725*
X531987Y308850*
X531714Y309600*
X531169Y310350*
X530623Y310725*
X529532*
X534714D02*
Y302850D01*
X537987*
G54D19*
X118307Y100197D02*
X118310D01*
X112008Y172047D02*
X112010D01*
X99803Y155512D02*
X99806D01*
X281299D02*
X281302D01*
G74*
X0Y0D02*
M02*
