*
*
G04 PADS VX.0 Build Number: 635560 generated Gerber (RS-274-X) file*
G04 PC Version=2.1*
*
%IN "CSM34P80A V1.0.pcb"*%
*
%MOIN*%
*
%FSLAX35Y35*%
*
*
*
*
G04 PC Standard Apertures*
*
*
G04 Thermal Relief Aperture macro.*
%AMTER*
1,1,$1,0,0*
1,0,$1-$2,0,0*
21,0,$3,$4,0,0,45*
21,0,$3,$4,0,0,135*
%
*
*
G04 Annular Aperture macro.*
%AMANN*
1,1,$1,0,0*
1,0,$2,0,0*
%
*
*
G04 Odd Aperture macro.*
%AMODD*
1,1,$1,0,0*
1,0,$1-0.005,0,0*
%
*
*
G04 PC Custom Aperture Macros*
*
*
*
*
*
*
G04 PC Aperture Table*
*
%ADD010C,0.00004*%
%ADD011R,0.02362X0.07874*%
%ADD012R,0.05906X0.07874*%
%ADD013R,0.07087X0.05906*%
%ADD014O,0.07087X0.05906*%
%ADD015O,0.08661X0.05906*%
%ADD016O,0.05906X0.08661*%
%ADD017C,0.0075*%
%ADD018C,0.01969*%
%ADD019C,0.01575*%
%ADD020C,0.00787*%
%ADD021C,0.02362*%
%ADD022C,0.032*%
%ADD023C,0.00394*%
%ADD024C,0.00591*%
%ADD025C,0.001*%
%ADD045C,0.00787*%
%ADD050C,0.01181*%
*
*
*
*
G04 PC Circuitry*
G04 Layer Name CSM34P80A V1.0.pcb - circuitry*
%LPD*%
*
*
G04 PC Custom Flashes*
G04 Layer Name CSM34P80A V1.0.pcb - flashes*
%LPD*%
*
*
G04 PC Circuitry*
G04 Layer Name CSM34P80A V1.0.pcb - circuitry*
%LPD*%
*
G54D10*
G54D11*
G01X79820Y345504D03*
X84545D03*
X89269D03*
X93994D03*
X98718D03*
X103443D03*
X108167D03*
X112891D03*
X117616D03*
X122340D03*
X127065D03*
X131789D03*
X136513D03*
X141238D03*
X145962D03*
X150687D03*
X155411D03*
X160135D03*
G54D12*
X124786Y161163D03*
X115337D03*
X124758Y161234D03*
X134207D03*
G54D13*
X119386Y142472D03*
G54D14*
Y118063D03*
G54D15*
X164603Y201622D03*
G54D16*
X153567Y180728D03*
G54D17*
X94283Y220311D02*
X93713Y218519D01*
X94283Y219505*
X94853Y218519*
X94283Y220311*
X93946Y219249D02*
X94136D01*
X94431D02*
X94621D01*
X94184Y219999D02*
X94383D01*
X93713Y218519D02*
X93713D01*
X94463Y219194D02*
Y219745D01*
X94283Y227913D02*
X94853Y229706D01*
X94283Y228719*
X93713Y229706*
X94283Y227913*
X94177Y228249D02*
X94390D01*
X93938Y228999D02*
X94122D01*
X94445D02*
X94629D01*
X93713Y229706D02*
X93713D01*
X94463Y228479D02*
Y229031D01*
X94909Y236559D02*
X94339Y234767D01*
X94909Y235753*
X95479Y234767*
X94909Y236559*
X94413Y234999D02*
X94474D01*
X95345D02*
X95406D01*
X94652Y235749D02*
X94907D01*
X94912D02*
X95167D01*
X94890Y236499D02*
X94929D01*
X94339Y234767D02*
X94339D01*
X95089Y235442D02*
Y235993D01*
X94909Y241819D02*
X95479Y243611D01*
X94909Y242625*
X94339Y243611*
X94909Y241819*
X94693Y242499D02*
X95126D01*
X94455Y243249D02*
X94549D01*
X95270D02*
X95364D01*
X94339Y243611D02*
X94339D01*
X95089Y242385D02*
Y242936D01*
X64449Y274933D02*
X62657Y275503D01*
X63643Y274933*
X62657Y274363*
X64449Y274933*
X63324Y274749D02*
X63869D01*
X62664Y275499D02*
X62670D01*
X62657Y274363D02*
X62657D01*
Y275503D02*
X62657D01*
X63407Y274602D02*
Y274797D01*
Y275070D02*
Y275265D01*
X64157Y274840D02*
Y275026D01*
X107275Y290003D02*
X108945Y290867D01*
X107845Y290573*
X108139Y291673*
X107275Y290003*
X107531Y290499D02*
X108233D01*
X107919Y291249D02*
X108025D01*
X107500Y290120D02*
Y290439D01*
X108250Y290508D02*
Y290681D01*
X83343Y298075D02*
X81550Y298645D01*
X82536Y298075*
X81550Y297505*
X83343Y298075*
X82405Y297999D02*
X83103D01*
X81550Y297505D02*
X81550D01*
Y298645D02*
X81550D01*
X82300Y297743D02*
Y297938D01*
Y298211D02*
Y298406D01*
X83050Y297982D02*
Y298168D01*
X89913Y298075D02*
X91706Y297505D01*
X90719Y298075*
X91706Y298645*
X89913Y298075*
X90153Y297999D02*
X90851D01*
X89913Y298075D02*
X89913D01*
X90663Y297836D02*
Y298313D01*
X91413Y297598D02*
Y297674D01*
Y298476D02*
Y298552D01*
X79840Y285505D02*
X78169Y284641D01*
X79270Y284935*
X78975Y283835*
X79840Y285505*
X79153Y284499D02*
X79319D01*
X79344Y285249D02*
X79707D01*
X78169Y284641D02*
X78169D01*
X78919Y284841D02*
Y285029D01*
X79669Y285176D02*
Y285417D01*
X88835Y292055D02*
X90627Y291485D01*
X89641Y292055*
X90627Y292625*
X88835Y292055*
X89012Y291999D02*
X89738D01*
X88835Y292055D02*
X88835D01*
X89585Y291817D02*
Y292294D01*
X90335Y291578D02*
Y291654D01*
Y292456D02*
Y292532D01*
X161130Y286189D02*
X160560Y284397D01*
X161130Y285383*
X161700Y284397*
X161130Y286189*
X160592Y284499D02*
X160619D01*
X161641D02*
X161667D01*
X160831Y285249D02*
X161052D01*
X161207D02*
X161429D01*
X161069Y285999D02*
X161190D01*
X160750Y284725D02*
Y284993D01*
X161500Y284743D02*
Y285027D01*
X161130Y291240D02*
X161700Y293032D01*
X161130Y292046*
X160560Y293032*
X161130Y291240*
X161127Y291249D02*
X161133D01*
X160889Y291999D02*
X161371D01*
X160650Y292749D02*
X160724D01*
X161536D02*
X161610D01*
X160750Y292436D02*
Y292704D01*
X161500Y292402D02*
Y292686D01*
X94283Y217949D02*
Y230276D01*
X94909Y234197D02*
Y244181D01*
X62087Y274933D02*
X75488D01*
X86398Y285843*
X103114*
X108945Y291673*
X80980Y298075D02*
X92276D01*
X78169Y283835D02*
X86390Y292055D01*
X91197*
X161130Y283827D02*
Y293602D01*
G54D18*
X128020Y189576D02*
X128455Y192340D01*
X128020Y190191*
X127584Y192340*
X128020Y189576*
X127866Y190551D02*
X127947D01*
X128093D02*
X128173D01*
X113268Y192406D02*
X115337Y190336D01*
Y161163*
X128020Y192776D02*
Y172563D01*
X134207Y166376*
Y161234*
X95587Y250512D02*
X99980Y246118D01*
Y231795*
X98638Y282740D02*
X104335D01*
X110705Y289110*
X122547*
X95538Y264507D02*
Y279640D01*
X98638Y282740*
X154012Y259854D03*
X75189Y295024D03*
X148472Y280035D03*
X95047Y307339D03*
G54D19*
X54858Y269500D02*
Y317760D01*
X62110Y325012*
X54858Y269500D02*
X59783Y264575D01*
X72236*
X90402Y282740*
X98638*
G54D20*
X84993Y350821D02*
G75*
G03X84452Y349542I1240J-1279D01*
X83911Y350821I-1781J0*
G01X84452Y349542D02*
Y350605D01*
Y351393D02*
Y345731D01*
X84545Y345504*
X89793Y351021D02*
G03X89252Y349742I1240J-1279D01*
X88711Y351021I-1781J0*
G01X89252Y349742D02*
Y350805D01*
Y351593D02*
Y346088D01*
X89269Y345504*
X94493Y350821D02*
G03X93952Y349542I1240J-1279D01*
X93411Y350821I-1781J0*
G01X93952Y349542D02*
Y350605D01*
Y351393D02*
Y345679D01*
X93994Y345504*
X99193Y351021D02*
G03X98652Y349742I1240J-1279D01*
X98111Y351021I-1781J0*
G01X98652Y349742D02*
Y350805D01*
Y351593D02*
Y346104D01*
X98718Y345504*
X80297Y350824D02*
G03X79764Y349543I1248J-1270D01*
G01X79764D02*
G03X79215Y350817I-1781J-12D01*
G01X79764Y349543D02*
X79757Y350605D01*
X79752Y351393D02*
X79787Y346123D01*
X79820Y345504*
X103437Y349743D02*
G03X102906Y351025I-1781J14D01*
G01X103988Y351016D02*
G03X103437Y349743I1229J-1288D01*
G01X103445Y350805*
X103452Y351593D02*
X103409Y346331D01*
X103443Y345504*
X108593Y351121D02*
G03X108052Y349842I1240J-1279D01*
X107511Y351121I-1781J0*
G01X108052Y349842D02*
Y350905D01*
Y351693D02*
Y345853D01*
X108167Y345504*
X118093Y351121D02*
G03X117552Y349842I1240J-1279D01*
X117011Y351121I-1781J0*
G01X117552Y349842D02*
Y350905D01*
Y351693D02*
Y346302D01*
X117616Y345504*
X122793Y351221D02*
G03X122252Y349942I1240J-1279D01*
X121711Y351221I-1781J0*
G01X122252Y349942D02*
Y351005D01*
Y351793D02*
Y346526D01*
X122340Y345504*
X127493Y351321D02*
G03X126952Y350042I1240J-1279D01*
X126411Y351321I-1781J0*
G01X126952Y350042D02*
Y351105D01*
Y351893D02*
Y346750D01*
X127065Y345504*
X132293Y351121D02*
G03X131752Y349842I1240J-1279D01*
X131211Y351121I-1781J0*
G01X131752Y349842D02*
Y350905D01*
Y351693D02*
Y346275D01*
X131789Y345504*
X136993Y351121D02*
G03X136452Y349842I1240J-1279D01*
X135911Y351121I-1781J0*
G01X136452Y349842D02*
Y350905D01*
Y351693D02*
Y346299D01*
X136513Y345504*
X112891D02*
X113152Y346766D01*
Y351793*
X160593Y350921D02*
G03X160052Y349642I1240J-1279D01*
X159511Y350921I-1781J0*
G01X160052Y349642D02*
Y350705D01*
Y351493D02*
Y345921D01*
X160135Y345504*
X146393Y351121D02*
G03X145852Y349842I1240J-1279D01*
X145311Y351121I-1781J0*
G01X145852Y349842D02*
Y350905D01*
Y351693D02*
Y346348D01*
X145962Y345504*
X155993Y351021D02*
G03X155452Y349742I1240J-1279D01*
X154911Y351021I-1781J0*
G01X155452Y349742D02*
Y350805D01*
X155411Y345504D02*
X155452Y346146D01*
Y351593*
X151393Y350921D02*
G03X150852Y349642I1240J-1279D01*
X150311Y350921I-1781J0*
G01X150852Y349642D02*
Y350705D01*
X150687Y345504D02*
X150852Y346071D01*
Y351493*
X141893Y351021D02*
G03X141352Y349742I1240J-1279D01*
X140811Y351021I-1781J0*
G01X141352Y349742D02*
Y350805D01*
X141238Y345504D02*
X141352Y346220D01*
Y351593*
G54D21*
X134720Y115272D03*
X130957Y134516D03*
X123366Y137413D03*
X100790Y137364D03*
X107494Y105404D03*
X109209Y125360D03*
X127801Y105677D03*
X133219Y124580D03*
X96598Y142933D03*
X88764Y165406D03*
X90035Y172823D03*
X124893Y161045D03*
X112189Y149969D03*
X131508Y148728D03*
X136500Y178728D03*
X108024Y178642D03*
X101256Y177937D03*
X101819Y160559D03*
X119889Y174704D03*
X147724Y157650D03*
X145547Y144508D03*
X150484Y169957D03*
X94283Y217949D03*
X72217Y198461D03*
X78173Y189169D03*
X94520Y186358D03*
X90563Y202268D03*
X85469Y206661D03*
X96693Y202472D03*
X94008Y198835D03*
X121154Y200114D03*
X120992Y193661D03*
X136677Y194870D03*
X116287Y214929D03*
X106937Y200067D03*
X105705Y214126D03*
X102291Y213783D03*
X117740Y211543D03*
X133583Y217815D03*
X129051Y216134D03*
X132185Y211878D03*
X173524Y217638D03*
X149571Y199024D03*
X153815Y192350D03*
X57827Y254957D03*
X56370Y259445D03*
X94909Y244181D03*
Y234197D03*
X95587Y250512D03*
X94283Y230276D03*
X61406Y250795D03*
X89331Y222039D03*
X63587Y233295D03*
Y222047D03*
X80638Y228461D03*
X74925Y235142D03*
X62220Y244823D03*
X91283Y245075D03*
X93114Y247933D03*
X89614Y247720D03*
X90398Y251394D03*
X99980Y231795D03*
X129984Y236118D03*
X117555Y234512D03*
X112547Y233811D03*
X126823Y220512D03*
X108299Y221843D03*
X105713Y225205D03*
X103236Y222614D03*
X100850Y226205D03*
X114756Y244902D03*
X108274Y255540D03*
X111821Y251526D03*
X117160Y259204D03*
X119655Y252734D03*
X153374Y228126D03*
X172138Y253752D03*
X150228Y238354D03*
X143732Y255413D03*
X140665Y255378D03*
X170425Y258705D03*
X161244D03*
X160449Y251386D03*
X165634Y253760D03*
X174949Y234598D03*
X161591Y230295D03*
X155701Y237677D03*
X153327Y235217D03*
X145858Y234425D03*
X181461Y235984D03*
X71429Y288980D03*
X70492Y298626D03*
X62087Y274933D03*
X98638Y282740D03*
X95538Y264507D03*
X80980Y298075D03*
X92276D03*
X78169Y283835D03*
X91197Y292055D03*
X71087Y260252D03*
X98969Y298000D03*
X95760Y294827D03*
X89921Y288697D03*
X91362Y264890D03*
X70902Y271496D03*
X66547Y268409D03*
X74386Y278795D03*
X70677Y277764D03*
X62760Y268197D03*
X108945Y291673D03*
X122547Y289110D03*
X134004Y276882D03*
X109417Y283079D03*
X137193Y288780D03*
X132449Y288886D03*
X128134Y288386D03*
X124567Y286386D03*
X137280Y297091D03*
X131588Y298446D03*
X101559Y299654D03*
X109365Y265596D03*
X109755Y274249D03*
X114042Y274210D03*
X117043Y265518D03*
X118213Y274210D03*
X161130Y293602D03*
Y283827D03*
X150256Y297252D03*
X160634Y299071D03*
X167882Y277764D03*
X179913Y280504D03*
X172598Y279402D03*
X158516Y278031D03*
X154031Y280055D03*
X147780Y273346D03*
X149535Y260157D03*
X69484Y301618D03*
X80713Y308776D03*
X62110Y325012D03*
X86063Y328646D03*
X63799Y335260D03*
X69004Y326472D03*
X71146Y318102D03*
X70118Y314217D03*
X93689Y331736D03*
X74358Y332909D03*
X68382Y330886D03*
X90429Y328925D03*
X97260Y329933D03*
X66217Y313988D03*
X68248Y317055D03*
X64795Y317307D03*
X62089Y315032D03*
X73039Y337234D03*
X62165Y305028D03*
X139098Y300516D03*
X147634Y307846D03*
X151402Y311413D03*
X178220Y309201D03*
X179567Y322594D03*
X178953Y334024D03*
X160673D03*
X157685Y329098D03*
X160146Y315390D03*
X160232Y311520D03*
X179642Y315898D03*
X180358Y329189D03*
X84452Y351393D03*
X89252Y351593D03*
X93952Y351393D03*
X98652Y351593D03*
X79752Y351393D03*
X103452Y351593D03*
X108052Y351693D03*
X113152Y351793D03*
X117552Y351693D03*
X122252Y351793D03*
X126952Y351893D03*
X131752Y351693D03*
X136452D03*
X141352Y351593D03*
X160052Y351493D03*
X155452Y351593D03*
X150852Y351493D03*
X145852Y351693D03*
G54D22*
X113268Y192406D03*
X128020Y192776D03*
X62075Y285039D03*
G54D23*
X165499Y216094D02*
G03X165499I-5759J0D01*
G01X85774Y215898D02*
G03X85774I-5758J0D01*
G01X97511Y209008D02*
G03X97511I-4109J0D01*
G01X64856Y285039D02*
G03X64856I-2781J0D01*
G01X64528Y305028D02*
G03X64528I-2363J0D01*
G01X150463Y208614D02*
G03X150463I-4109J0D01*
G01X185358Y238970D02*
Y322651D01*
G03X185353Y322696I-197J0*
X180736Y339544I-216799J-50362*
X180548Y339681I-188J-60*
G01X58087*
G03X57899Y339545I-0J-197*
X54711Y328506I179328J-57780*
X54705Y328458I191J-48*
G01Y320865*
G03X55041Y320726I197J0*
G01X59754Y325439*
G03X59807Y325535I-139J140*
G01X62633Y322708D02*
G03X59807Y325535I-523J2304D01*
G01X62633Y322708D02*
G03X62538Y322655I44J-192D01*
G01X56884Y317002*
G03X56827Y316863I140J-139*
G01Y270397*
G03X56884Y270258I197J-0*
G01X60541Y266601*
G03X60680Y266543I139J139*
G01X71339*
G03X71478Y266601I0J197*
G01X88828Y283950*
G03X88689Y284286I-139J140*
G01X87124*
G03X86985Y284229I-0J-196*
G01X76589Y273833*
X75488Y273377D02*
G03X76589Y273833I0J1556D01*
G01X75488Y273377D02*
X64721D01*
G03X64661Y273368I-0J-197*
G01X63417Y272972*
G03X63370Y272950I60J-188*
G01Y276917D02*
G03Y272950I-1283J-1984D01*
G01Y276917D02*
G03X63417Y276894I107J165D01*
G01X64661Y276498*
G03X64721Y276489I60J188*
G01X74762*
G03X74901Y276547I0J197*
G01X85297Y286943*
X86398Y287399D02*
G03X85297Y286943I-0J-1556D01*
G01X86398Y287399D02*
X102388D01*
G03X102527Y287456I0J196*
G01X105982Y290911*
G03X106017Y290960I-139J139*
G01X106618Y292119*
G03X106635Y292169I-175J91*
G01X111300Y291488D02*
G03X106635Y292169I-2355J185D01*
G01X111300Y291488D02*
G03X111496Y291276I196J-16D01*
G01X121563*
G03X121639Y291291I-0J196*
G01Y286930D02*
G03Y291291I908J2180D01*
G01Y286930D02*
G03X121563Y286945I-76J-182D01*
G01X111683*
G03X111544Y286887I0J-197*
G01X105866Y281209*
X104335Y280575D02*
G03X105866Y281209I-0J2165D01*
G01X104335Y280575D02*
X99622D01*
G03X99546Y280560I0J-197*
G01X99537Y280556D02*
G03X99546Y280560I-899J2184D01*
G01X99537Y280556D02*
G03X99473Y280513I75J-182D01*
G01X97761Y278801*
G03X97703Y278662I139J-139*
G01Y265491*
G03X97718Y265416I197J0*
G01X93357D02*
G03X97718I2181J-909D01*
G01X93357D02*
G03X93373Y265491I-181J75D01*
G01Y279640*
X93549Y280497D02*
G03X93373Y279640I1989J-857D01*
G01X93549Y280497D02*
G03X93368Y280772I-181J78D01*
G01X91299*
G03X91159Y280714I-0J-197*
G01X73628Y263183*
X72236Y262606D02*
G03X73628Y263183I0J1969D01*
G01X72236Y262606D02*
X59783D01*
X58392Y263183D02*
G03X59783Y262606I1391J1392D01*
G01X58392Y263183D02*
X55041Y266534D01*
G03X54705Y266394I-139J-140*
G01Y235050*
G03X54711Y235002I197J0*
X83462Y177639I144864J36721*
G01X83659Y177229D02*
G03X83462Y177639I-962J-209D01*
G01X83659Y177229D02*
X91576Y140937D01*
G03X91615Y140856I192J42*
G01X100721Y129473*
X100937Y128861D02*
G03X100721Y129473I-984J-3D01*
G01X100937Y128861D02*
X101016Y101147D01*
G03X101214Y100951I197J1*
G01X138489Y101025*
G03X138685Y101222I-1J197*
G01Y128768*
X138895Y129376D02*
G03X138685Y128768I774J-608D01*
G01X138895Y129376D02*
X148201Y141224D01*
G03X148238Y141301I-155J121*
G01X156537Y177269*
X156664Y177573D02*
G03X156537Y177269I832J-526D01*
G01X156664Y177573D02*
X169047Y197174D01*
G03X169056Y197191I-167J105*
G01X174341Y207686*
G03X174344Y207691I-176J88*
G01X175157Y209442*
G03X175164Y209461I-179J83*
G01X184357Y236108*
X184364Y236128D02*
G03X184357Y236108I923J-341D01*
G01X184364Y236128D02*
G03X185348Y238907I-104659J38621D01*
X185358Y238970I-187J63*
G01X165981Y197488D02*
G03Y205756I0J4134D01*
G01Y197488D02*
X163225D01*
Y205756D02*
G03Y197488I0J-4134D01*
G01Y205756D02*
X165981D01*
X165499Y216094D02*
G03X165499I-5759J0D01*
G01X163113Y292319D02*
G03X159146I-1983J1283D01*
G01X163113D02*
G03X163091Y292272I166J-107D01*
G01X162695Y291028*
G03X162686Y290968I188J-60*
G01Y286461*
G03X162695Y286401I197J0*
G01X163091Y285157*
G03X163113Y285110I188J60*
G01X159146D02*
G03X163113I1984J-1283D01*
G01X159146D02*
G03X159169Y285157I-165J107D01*
G01X159565Y286401*
G03X159574Y286461I-188J60*
G01Y290968*
G03X159565Y291028I-197J0*
G01X159169Y292272*
G03X159146Y292319I-188J-60*
G01X152029Y260725D02*
G03X155994I1983J-871D01*
G01X152029D02*
G03X152043Y260772I-180J79D01*
G01X152238Y261952*
G03X152240Y261984I-195J32*
G01Y273681*
G03X152182Y273820I-197J-0*
G01X148725Y277277*
G03X148701Y277298I-139J-139*
G01X147729Y277994*
G03X147686Y278018I-114J-160*
G01X150490Y280822D02*
G03X147686Y278018I-2018J-787D01*
G01X150490Y280822D02*
G03X150513Y280778I183J71D01*
G01X151210Y279807*
G03X151231Y279782I160J115*
G01X155265Y275749*
X155783Y274496D02*
G03X155265Y275749I-1771J0D01*
G01X155783Y274496D02*
Y261984D01*
G03X155786Y261952I197J-0*
G01X155980Y260772*
G03X155994Y260725I195J32*
G01X138341Y165171D02*
Y157297D01*
X137159Y156116D02*
G03X138341Y157297I0J1181D01*
G01X137159Y156116D02*
X131254D01*
X130073Y157297D02*
G03X131254Y156116I1181J0D01*
G01X130073Y157297D02*
Y165171D01*
X130846Y166280D02*
G03X130073Y165171I408J-1109D01*
G01X130846Y166280D02*
G03X130917Y166603I-68J184D01*
G01X126489Y171032*
X125854Y172563D02*
G03X126489Y171032I2166J-0D01*
G01X125854Y172563D02*
Y189391D01*
G03X125852Y189421I-197J-0*
G01X125518Y191542*
G03X125502Y191595I-194J-31*
G01X130538D02*
G03X125502I-2518J1181D01*
G01X130538D02*
G03X130521Y191542I178J-84D01*
G01X130187Y189421*
G03X130185Y189391I195J-30*
G01Y173541*
G03X130243Y173402I197J0*
G01X135738Y167907*
X136366Y166535D02*
G03X135738Y167907I-2159J-159D01*
G01X136366Y166535D02*
G03X136563Y166352I197J14D01*
G01X137159*
X138341Y165171D02*
G03X137159Y166352I-1182J0D01*
G01X119471Y165100D02*
Y157226D01*
X118290Y156045D02*
G03X119471Y157226I-0J1181D01*
G01X118290Y156045D02*
X112384D01*
X111203Y157226D02*
G03X112384Y156045I1181J0D01*
G01X111203Y157226D02*
Y165100D01*
X112384Y166281D02*
G03X111203Y165100I0J-1181D01*
G01X112384Y166281D02*
X112975D01*
G03X113172Y166478I-0J197*
G01Y189358*
G03X113114Y189497I-197J-0*
G01X113019Y189592*
G03X112905Y189648I-139J-139*
G01X116025Y192768D02*
G03X112905Y189648I-2757J-362D01*
G01X116025Y192768D02*
G03X116081Y192654I195J26D01*
G01X116868Y191867*
X117502Y190336D02*
G03X116868Y191867I-2165J0D01*
G01X117502Y190336D02*
Y166478D01*
G03X117699Y166281I197J0*
G01X118290*
X119471Y165100D02*
G03X118290Y166281I-1181J0D01*
G01X97800Y232704D02*
G03X102161I2180J-909D01*
G01X97800D02*
G03X97815Y232780I-182J76D01*
G01Y245140*
G03X97757Y245279I-197J-0*
G01X94751Y248285*
G03X94687Y248328I-139J-140*
G01X97771Y251411D02*
G03X94687Y248328I-2184J-899D01*
G01X97771Y251411D02*
G03X97814Y251347I182J75D01*
G01X101511Y247649*
X102146Y246118D02*
G03X101511Y247649I-2166J0D01*
G01X102146Y246118D02*
Y232780D01*
G03X102161Y232704I197J-0*
G01X85774Y215898D02*
G03X85774I-5758J0D01*
G01X97511Y209008D02*
G03X97511I-4109J0D01*
G01X96893Y242898D02*
G03X92926I-1984J1283D01*
G01X96893D02*
G03X96871Y242851I165J-107D01*
G01X96475Y241607*
G03X96466Y241547I187J-60*
G01Y236831*
G03X96475Y236771I196J0*
G01X96871Y235527*
G03X96893Y235480I187J60*
G01X96092Y232152D02*
G03X96893Y235480I-1183J2045D01*
G01X96092Y232152D02*
G03X96044Y231850I99J-170D01*
G01X96267Y228993D02*
G03X96044Y231850I-1984J1283D01*
G01X96267Y228993D02*
G03X96245Y228945I165J-107D01*
G01X95849Y227701*
G03X95840Y227641I187J-60*
G01Y220583*
G03X95849Y220523I196J0*
G01X96245Y219279*
G03X96267Y219232I187J60*
G01X92300D02*
G03X96267I1983J-1283D01*
G01X92300D02*
G03X92322Y219279I-165J107D01*
G01X92718Y220523*
G03X92727Y220583I-188J60*
G01Y227641*
G03X92718Y227701I-197J0*
G01X92322Y228945*
G03X92300Y228993I-187J-59*
G01X93101Y232320D02*
G03X92300Y228993I1182J-2044D01*
G01X93101Y232320D02*
G03X93149Y232622I-99J171D01*
G01X92926Y235480D02*
G03X93149Y232622I1983J-1283D01*
G01X92926Y235480D02*
G03X92948Y235527I-165J107D01*
G01X93344Y236771*
G03X93353Y236831I-188J60*
G01Y241547*
G03X93344Y241607I-197J-0*
G01X92948Y242851*
G03X92926Y242898I-187J-60*
G01X89914Y290072D02*
G03Y294039I1283J1983D01*
G01Y290072D02*
G03X89867Y290094I-107J-166D01*
G01X88622Y290490*
G03X88563Y290499I-59J-188*
G01X87116*
G03X86977Y290441I-0J-197*
G01X81132Y284597*
G03X81097Y284548I140J-139*
G01X80497Y283389*
G03X80479Y283339I174J-91*
G01X77674Y286144D02*
G03X80479Y283339I495J-2309D01*
G01X77674Y286144D02*
G03X77723Y286162I-41J193D01*
G01X78883Y286762*
G03X78932Y286798I-91J175*
G01X85289Y293155*
X86390Y293611D02*
G03X85289Y293155I-0J-1556D01*
G01X86390Y293611D02*
X88563D01*
G03X88622Y293620I-0J197*
G01X88622D02*
X89867Y294016D01*
G03X89914Y294039I-60J188*
G01X90993Y296091D02*
G03Y300058I1283J1984D01*
G01Y296091D02*
G03X90945Y296114I-107J-165D01*
G01X89701Y296509*
G03X89641Y296519I-60J-187*
G01X83615*
G03X83555Y296509I-0J-197*
G01X82311Y296114*
G03X82263Y296091I59J-188*
G01Y300058D02*
G03Y296091I-1283J-1983D01*
G01Y300058D02*
G03X82311Y300036I107J166D01*
G01X83555Y299640*
G03X83615Y299631I60J188*
G01X89641*
G03X89701Y299640I0J197*
G01X90945Y300036*
G03X90993Y300058I-59J188*
G01X82705Y307507D02*
G03X78720I-1992J1269D01*
G01X82705D02*
G03X82683Y307459I166J-106D01*
G01X82296Y306204*
G03X82287Y306146I188J-58*
G01Y304516*
X81826Y303402D02*
G03X82287Y304516I-1113J1114D01*
G01X81826Y303402D02*
X76821Y298397D01*
G03X76764Y298258I140J-139*
G01Y297226*
G03X76771Y297175I197J0*
G01X77047Y296150*
G03X77066Y296103I190J51*
G01X73312D02*
G03X77066I1877J-1079D01*
G01X73312D02*
G03X73331Y296150I-171J98D01*
G01X73607Y297175*
G03X73614Y297226I-190J51*
G01Y298992*
X74075Y300106D02*
G03X73614Y298992I1114J-1114D01*
G01X74075Y300106D02*
X79080Y305110D01*
G03X79138Y305250I-139J140*
G01Y306146*
G03X79129Y306204I-197J0*
G01X78742Y307459*
G03X78720Y307507I-188J-58*
G01X64856Y285039D02*
G03X64856I-2781J0D01*
G01X64528Y305028D02*
G03X64528I-2363J0D01*
G01X119976Y113929D02*
G03Y122197I0J4134D01*
G01Y113929D02*
X118795D01*
Y122197D02*
G03Y113929I0J-4134D01*
G01Y122197D02*
X119976D01*
X124110Y145425D02*
Y139520D01*
X122929Y138339D02*
G03X124110Y139520I0J1181D01*
G01X122929Y138339D02*
X115843D01*
X114661Y139520D02*
G03X115843Y138339I1182J-0D01*
G01X114661Y139520D02*
Y145425D01*
X115843Y146606D02*
G03X114661Y145425I-0J-1181D01*
G01X115843Y146606D02*
X122929D01*
X124110Y145425D02*
G03X122929Y146606I-1181J0D01*
G01X128920Y165100D02*
Y157226D01*
X127739Y156045D02*
G03X128920Y157226I-0J1181D01*
G01X127739Y156045D02*
X121833D01*
X120722Y156826D02*
G03X121833Y156045I1111J400D01*
G01X120722Y156826D02*
G03X120718Y156836I-185J-67D01*
G01X120624Y157297D02*
G03X120718Y156836I1181J0D01*
G01X120624Y157297D02*
Y165171D01*
X121805Y166352D02*
G03X120624Y165171I0J-1181D01*
G01X121805Y166352D02*
X127711D01*
X128822Y165572D02*
G03X127711Y166352I-1111J-401D01*
G01X128822Y165572D02*
G03X128826Y165561I185J66D01*
G01X128920Y165100D02*
G03X128826Y165561I-1181J-0D01*
G01X150463Y208614D02*
G03X150463I-4109J0D01*
G01X62393Y322510D02*
X185358D01*
X62039Y322156D02*
X185358D01*
X61684Y321802D02*
X185358D01*
X61330Y321448D02*
X185358D01*
X60976Y321093D02*
X185358D01*
X60621Y320739D02*
X185358D01*
X60267Y320385D02*
X185358D01*
X59913Y320030D02*
X185358D01*
X59558Y319676D02*
X185358D01*
X59204Y319322D02*
X185358D01*
X58850Y318967D02*
X185358D01*
X58495Y318613D02*
X185358D01*
X58141Y318259D02*
X185358D01*
X57787Y317904D02*
X185358D01*
X57432Y317550D02*
X185358D01*
X57078Y317196D02*
X185358D01*
X56827Y316841D02*
X185358D01*
X56827Y316487D02*
X185358D01*
X56827Y316133D02*
X185358D01*
X56827Y315778D02*
X185358D01*
X56827Y315424D02*
X185358D01*
X56827Y315070D02*
X185358D01*
X56827Y314715D02*
X185358D01*
X56827Y314361D02*
X185358D01*
X56827Y314007D02*
X185358D01*
X56827Y313652D02*
X185358D01*
X56827Y313298D02*
X185358D01*
X56827Y312944D02*
X185358D01*
X56827Y312589D02*
X185358D01*
X56827Y312235D02*
X185358D01*
X56827Y311881D02*
X185358D01*
X56827Y311526D02*
X185358D01*
X56827Y311172D02*
X185358D01*
X81900Y310818D02*
X185358D01*
X82365Y310463D02*
X185358D01*
X82663Y310109D02*
X185358D01*
X82862Y309755D02*
X185358D01*
X82991Y309400D02*
X185358D01*
X83059Y309046D02*
X185358D01*
X83073Y308692D02*
X185358D01*
X83034Y308337D02*
X185358D01*
X82938Y307983D02*
X185358D01*
X82778Y307629D02*
X185358D01*
X82626Y307274D02*
X185358D01*
X82517Y306920D02*
X185358D01*
X82408Y306566D02*
X185358D01*
X82298Y306211D02*
X185358D01*
X82287Y305857D02*
X185358D01*
X82287Y305503D02*
X185358D01*
X82287Y305148D02*
X185358D01*
X82287Y304794D02*
X185358D01*
X82286Y304440D02*
X185358D01*
X82227Y304085D02*
X185358D01*
X82078Y303731D02*
X185358D01*
X81801Y303377D02*
X185358D01*
X81446Y303022D02*
X185358D01*
X81092Y302668D02*
X185358D01*
X80738Y302314D02*
X185358D01*
X80383Y301959D02*
X185358D01*
X80029Y301605D02*
X185358D01*
X79675Y301251D02*
X185358D01*
X79320Y300896D02*
X185358D01*
X78966Y300542D02*
X185358D01*
X93332Y300188D02*
X185358D01*
X93853Y299833D02*
X185358D01*
X94175Y299479D02*
X185358D01*
X94392Y299125D02*
X185358D01*
X94533Y298770D02*
X185358D01*
X94613Y298416D02*
X185358D01*
X94638Y298062D02*
X185358D01*
X94609Y297707D02*
X185358D01*
X94525Y297353D02*
X185358D01*
X94378Y296999D02*
X185358D01*
X94155Y296644D02*
X185358D01*
X93823Y296290D02*
X185358D01*
X161498Y295936D02*
X185358D01*
X162420Y295581D02*
X185358D01*
X162845Y295227D02*
X185358D01*
X163121Y294873D02*
X185358D01*
X163307Y294518D02*
X185358D01*
X163424Y294164D02*
X185358D01*
X163483Y293810D02*
X185358D01*
X163488Y293455D02*
X185358D01*
X163438Y293101D02*
X185358D01*
X163332Y292747D02*
X185358D01*
X163159Y292392D02*
X185358D01*
X163017Y292038D02*
X185358D01*
X162904Y291684D02*
X185358D01*
X162791Y291329D02*
X185358D01*
X162686Y290975D02*
X185358D01*
X162686Y290621D02*
X185358D01*
X162686Y290266D02*
X185358D01*
X162686Y289912D02*
X185358D01*
X162686Y289558D02*
X185358D01*
X162686Y289203D02*
X185358D01*
X162686Y288849D02*
X185358D01*
X162686Y288495D02*
X185358D01*
X162686Y288140D02*
X185358D01*
X162686Y287786D02*
X185358D01*
X162686Y287432D02*
X185358D01*
X162686Y287077D02*
X185358D01*
X162686Y286723D02*
X185358D01*
X162706Y286369D02*
X185358D01*
X162818Y286014D02*
X185358D01*
X162931Y285660D02*
X185358D01*
X163044Y285306D02*
X185358D01*
X163207Y284951D02*
X185358D01*
X163363Y284597D02*
X185358D01*
X163455Y284243D02*
X185358D01*
X163491Y283888D02*
X185358D01*
X163474Y283534D02*
X185358D01*
X163402Y283180D02*
X185358D01*
X163269Y282825D02*
X185358D01*
X163064Y282471D02*
X185358D01*
X162760Y282117D02*
X185358D01*
X162278Y281762D02*
X185358D01*
X150147Y281408D02*
X185358D01*
X150383Y281054D02*
X185358D01*
X150570Y280699D02*
X185358D01*
X150824Y280345D02*
X185358D01*
X151078Y279991D02*
X185358D01*
X151377Y279636D02*
X185358D01*
X151731Y279282D02*
X185358D01*
X152086Y278928D02*
X185358D01*
X152440Y278573D02*
X185358D01*
X152794Y278219D02*
X185358D01*
X153149Y277865D02*
X185358D01*
X153503Y277510D02*
X185358D01*
X153857Y277156D02*
X185358D01*
X154212Y276802D02*
X185358D01*
X154566Y276448D02*
X185358D01*
X154920Y276093D02*
X185358D01*
X155274Y275739D02*
X185358D01*
X155545Y275385D02*
X185358D01*
X155701Y275030D02*
X185358D01*
X155774Y274676D02*
X185358D01*
X155783Y274322D02*
X185358D01*
X155783Y273967D02*
X185358D01*
X155783Y273613D02*
X185358D01*
X155783Y273259D02*
X185358D01*
X155783Y272904D02*
X185358D01*
X155783Y272550D02*
X185358D01*
X155783Y272196D02*
X185358D01*
X155783Y271841D02*
X185358D01*
X155783Y271487D02*
X185358D01*
X155783Y271133D02*
X185358D01*
X155783Y270778D02*
X185358D01*
X155783Y270424D02*
X185358D01*
X155783Y270070D02*
X185358D01*
X155783Y269715D02*
X185358D01*
X155783Y269361D02*
X185358D01*
X155783Y269007D02*
X185358D01*
X155783Y268652D02*
X185358D01*
X155783Y268298D02*
X185358D01*
X155783Y267944D02*
X185358D01*
X155783Y267589D02*
X185358D01*
X155783Y267235D02*
X185358D01*
X155783Y266881D02*
X185358D01*
X155783Y266526D02*
X185358D01*
X155783Y266172D02*
X185358D01*
X155783Y265818D02*
X185358D01*
X155783Y265463D02*
X185358D01*
X155783Y265109D02*
X185358D01*
X155783Y264755D02*
X185358D01*
X155783Y264400D02*
X185358D01*
X155783Y264046D02*
X185358D01*
X155783Y263692D02*
X185358D01*
X155783Y263337D02*
X185358D01*
X155783Y262983D02*
X185358D01*
X155783Y262629D02*
X185358D01*
X155783Y262274D02*
X185358D01*
X155791Y261920D02*
X185358D01*
X155850Y261566D02*
X185358D01*
X155908Y261211D02*
X185358D01*
X155966Y260857D02*
X185358D01*
X156078Y260503D02*
X185358D01*
X156157Y260148D02*
X185358D01*
X156176Y259794D02*
X185358D01*
X156137Y259440D02*
X185358D01*
X156036Y259085D02*
X185358D01*
X155863Y258731D02*
X185358D01*
X155595Y258377D02*
X185358D01*
X155166Y258022D02*
X185358D01*
X54705Y257668D02*
X185358D01*
X54705Y257314D02*
X185358D01*
X54705Y256959D02*
X185358D01*
X54705Y256605D02*
X185358D01*
X54705Y256251D02*
X185358D01*
X54705Y255896D02*
X185358D01*
X54705Y255542D02*
X185358D01*
X54705Y255188D02*
X185358D01*
X54705Y254833D02*
X185358D01*
X54705Y254479D02*
X185358D01*
X54705Y254125D02*
X185358D01*
X54705Y253770D02*
X185358D01*
X54705Y253416D02*
X185358D01*
X54705Y253062D02*
X185358D01*
X96458Y252707D02*
X185358D01*
X97066Y252353D02*
X185358D01*
X97422Y251999D02*
X185358D01*
X97660Y251644D02*
X185358D01*
X97871Y251290D02*
X185358D01*
X98225Y250936D02*
X185358D01*
X98579Y250581D02*
X185358D01*
X98934Y250227D02*
X185358D01*
X99288Y249873D02*
X185358D01*
X99642Y249518D02*
X185358D01*
X99997Y249164D02*
X185358D01*
X100351Y248810D02*
X185358D01*
X100705Y248455D02*
X185358D01*
X101060Y248101D02*
X185358D01*
X101414Y247747D02*
X185358D01*
X101731Y247392D02*
X185358D01*
X101941Y247038D02*
X185358D01*
X102071Y246684D02*
X185358D01*
X102135Y246329D02*
X185358D01*
X102146Y245975D02*
X185358D01*
X102146Y245621D02*
X185358D01*
X102146Y245266D02*
X185358D01*
X102146Y244912D02*
X185358D01*
X102146Y244558D02*
X185358D01*
X102146Y244203D02*
X185358D01*
X102146Y243849D02*
X185358D01*
X102146Y243495D02*
X185358D01*
X102146Y243140D02*
X185358D01*
X102146Y242786D02*
X185358D01*
X102146Y242432D02*
X185358D01*
X102146Y242077D02*
X185358D01*
X102146Y241723D02*
X185358D01*
X102146Y241369D02*
X185358D01*
X102146Y241014D02*
X185358D01*
X102146Y240660D02*
X185358D01*
X102146Y240306D02*
X185358D01*
X102146Y239951D02*
X185358D01*
X102146Y239597D02*
X185358D01*
X102146Y239243D02*
X185358D01*
X102146Y238888D02*
X185342D01*
X63095Y322865D02*
X185314D01*
X63649Y323219D02*
X185231D01*
X102146Y238534D02*
X185221D01*
X63984Y323573D02*
X185147D01*
X102146Y238180D02*
X185098D01*
X64209Y323928D02*
X185063D01*
X64357Y324282D02*
X184979D01*
X102146Y237825D02*
X184975D01*
X64442Y324636D02*
X184893D01*
X102146Y237471D02*
X184850D01*
X64472Y324991D02*
X184807D01*
X102146Y237117D02*
X184724D01*
X64449Y325345D02*
X184721D01*
X64370Y325699D02*
X184633D01*
X102146Y236762D02*
X184596D01*
X64230Y326054D02*
X184546D01*
X102146Y236408D02*
X184467D01*
X64016Y326408D02*
X184457D01*
X63696Y326762D02*
X184368D01*
X102146Y236054D02*
X184338D01*
X63182Y327117D02*
X184278D01*
X102146Y235699D02*
X184216D01*
X54705Y327471D02*
X184188D01*
X54705Y327825D02*
X184097D01*
X102146Y235345D02*
X184094D01*
X54705Y328180D02*
X184006D01*
X102146Y234991D02*
X183971D01*
X54718Y328534D02*
X183914D01*
X102146Y234636D02*
X183849D01*
X54809Y328888D02*
X183821D01*
X54901Y329243D02*
X183727D01*
X102146Y234282D02*
X183727D01*
X54994Y329597D02*
X183633D01*
X102146Y233928D02*
X183605D01*
X55087Y329951D02*
X183539D01*
X102146Y233573D02*
X183482D01*
X55181Y330306D02*
X183443D01*
X102146Y233219D02*
X183360D01*
X55276Y330660D02*
X183348D01*
X55372Y331014D02*
X183251D01*
X102146Y232865D02*
X183238D01*
X55468Y331369D02*
X183154D01*
X102232Y232510D02*
X183116D01*
X55565Y331723D02*
X183056D01*
X102315Y232156D02*
X182994D01*
X55663Y332077D02*
X182958D01*
X102343Y231802D02*
X182871D01*
X55761Y332432D02*
X182859D01*
X55861Y332786D02*
X182759D01*
X102317Y231448D02*
X182749D01*
X55961Y333140D02*
X182659D01*
X102236Y231093D02*
X182627D01*
X56062Y333495D02*
X182558D01*
X102093Y230739D02*
X182505D01*
X56163Y333849D02*
X182456D01*
X101875Y230385D02*
X182382D01*
X56265Y334203D02*
X182354D01*
X101550Y230030D02*
X182260D01*
X56368Y334558D02*
X182251D01*
X56472Y334912D02*
X182147D01*
X101023Y229676D02*
X182138D01*
X56577Y335266D02*
X182043D01*
X96444Y229322D02*
X182016D01*
X56682Y335621D02*
X181939D01*
X96253Y228967D02*
X181893D01*
X56788Y335975D02*
X181833D01*
X96139Y228613D02*
X181771D01*
X56895Y336329D02*
X181727D01*
X96026Y228259D02*
X181649D01*
X57003Y336684D02*
X181620D01*
X95913Y227904D02*
X181527D01*
X57111Y337038D02*
X181513D01*
X57220Y337392D02*
X181405D01*
X95840Y227550D02*
X181404D01*
X57330Y337747D02*
X181296D01*
X95840Y227196D02*
X181282D01*
X57441Y338101D02*
X181187D01*
X95840Y226841D02*
X181160D01*
X57552Y338455D02*
X181077D01*
X95840Y226487D02*
X181038D01*
X57664Y338810D02*
X180967D01*
X95840Y226133D02*
X180915D01*
X57777Y339164D02*
X180856D01*
X95840Y225778D02*
X180793D01*
X57891Y339518D02*
X180744D01*
X95840Y225424D02*
X180671D01*
X95840Y225070D02*
X180549D01*
X95840Y224715D02*
X180427D01*
X95840Y224361D02*
X180304D01*
X95840Y224007D02*
X180182D01*
X95840Y223652D02*
X180060D01*
X95840Y223298D02*
X179938D01*
X95840Y222944D02*
X179815D01*
X95840Y222589D02*
X179693D01*
X95840Y222235D02*
X179571D01*
X95840Y221881D02*
X179449D01*
X161653Y221526D02*
X179326D01*
X162457Y221172D02*
X179204D01*
X163035Y220818D02*
X179082D01*
X163492Y220463D02*
X178960D01*
X163869Y220109D02*
X178837D01*
X164186Y219755D02*
X178715D01*
X164455Y219400D02*
X178593D01*
X164685Y219046D02*
X178471D01*
X164880Y218692D02*
X178348D01*
X165044Y218337D02*
X178226D01*
X165180Y217983D02*
X178104D01*
X165291Y217629D02*
X177982D01*
X165377Y217274D02*
X177860D01*
X165439Y216920D02*
X177737D01*
X165480Y216566D02*
X177615D01*
X165498Y216211D02*
X177493D01*
X165494Y215857D02*
X177371D01*
X165468Y215503D02*
X177248D01*
X165421Y215148D02*
X177126D01*
X165350Y214794D02*
X177004D01*
X165256Y214440D02*
X176882D01*
X165137Y214085D02*
X176759D01*
X164991Y213731D02*
X176637D01*
X164817Y213377D02*
X176515D01*
X164611Y213022D02*
X176393D01*
X164368Y212668D02*
X176270D01*
X164084Y212314D02*
X176148D01*
X163748Y211959D02*
X176026D01*
X163347Y211605D02*
X175904D01*
X162855Y211251D02*
X175782D01*
X162218Y210896D02*
X175659D01*
X161267Y210542D02*
X175537D01*
X150150Y210188D02*
X175415D01*
X150278Y209833D02*
X175293D01*
X150371Y209479D02*
X175170D01*
X150432Y209125D02*
X175009D01*
X150461Y208770D02*
X174845D01*
X150459Y208416D02*
X174680D01*
X150426Y208062D02*
X174515D01*
X150362Y207707D02*
X174351D01*
X150265Y207353D02*
X174173D01*
X150133Y206999D02*
X173995D01*
X149961Y206644D02*
X173816D01*
X149743Y206290D02*
X173638D01*
X149471Y205936D02*
X173460D01*
X167169Y205581D02*
X173281D01*
X168004Y205227D02*
X173103D01*
X168535Y204873D02*
X172924D01*
X168931Y204518D02*
X172746D01*
X169241Y204164D02*
X172567D01*
X169489Y203810D02*
X172389D01*
X169686Y203455D02*
X172211D01*
X169841Y203101D02*
X172032D01*
X169959Y202747D02*
X171854D01*
X170043Y202392D02*
X171675D01*
X170094Y202038D02*
X171497D01*
X170115Y201684D02*
X171319D01*
X170105Y201329D02*
X171140D01*
X170064Y200975D02*
X170962D01*
X169992Y200621D02*
X170783D01*
X169887Y200266D02*
X170605D01*
X169745Y199912D02*
X170426D01*
X169563Y199558D02*
X170248D01*
X169334Y199203D02*
X170070D01*
X169047Y198849D02*
X169891D01*
X168685Y198495D02*
X169713D01*
X168210Y198140D02*
X169534D01*
X167523Y197786D02*
X169356D01*
X69903Y197432D02*
X169177D01*
X70106Y197077D02*
X168986D01*
X70311Y196723D02*
X168762D01*
X70518Y196369D02*
X168538D01*
X70725Y196014D02*
X168314D01*
X70934Y195660D02*
X168090D01*
X129174Y195306D02*
X167866D01*
X129752Y194951D02*
X167643D01*
X130121Y194597D02*
X167419D01*
X130382Y194243D02*
X167195D01*
X130568Y193888D02*
X166971D01*
X130695Y193534D02*
X166747D01*
X130771Y193180D02*
X166523D01*
X130800Y192825D02*
X166300D01*
X130784Y192471D02*
X166076D01*
X130722Y192117D02*
X165852D01*
X130610Y191762D02*
X165628D01*
X130500Y191408D02*
X165404D01*
X130445Y191054D02*
X165180D01*
X130389Y190699D02*
X164956D01*
X130333Y190345D02*
X164733D01*
X130277Y189991D02*
X164509D01*
X130221Y189636D02*
X164285D01*
X130185Y189282D02*
X164061D01*
X130185Y188928D02*
X163837D01*
X130185Y188573D02*
X163613D01*
X130185Y188219D02*
X163390D01*
X130185Y187865D02*
X163166D01*
X130185Y187510D02*
X162942D01*
X130185Y187156D02*
X162718D01*
X130185Y186802D02*
X162494D01*
X130185Y186448D02*
X162270D01*
X130185Y186093D02*
X162046D01*
X149127Y205581D02*
X162037D01*
X130185Y185739D02*
X161823D01*
X69700Y197786D02*
X161684D01*
X130185Y185385D02*
X161599D01*
X130185Y185030D02*
X161375D01*
X148681Y205227D02*
X161203D01*
X130185Y184676D02*
X161151D01*
X69499Y198140D02*
X160996D01*
X130185Y184322D02*
X160927D01*
X93278Y295936D02*
X160762D01*
X130185Y183967D02*
X160703D01*
X148053Y204873D02*
X160672D01*
X69300Y198495D02*
X160522D01*
X130185Y183613D02*
X160480D01*
X146685Y204518D02*
X160276D01*
X130185Y183259D02*
X160256D01*
X69101Y198849D02*
X160159D01*
X130185Y182904D02*
X160032D01*
X149779Y281762D02*
X159982D01*
X66271Y204164D02*
X159966D01*
X68904Y199203D02*
X159873D01*
X77281Y295581D02*
X159840D01*
X130185Y182550D02*
X159808D01*
X66452Y203810D02*
X159718D01*
X68708Y199558D02*
X159644D01*
X130185Y182196D02*
X159584D01*
X124363Y290621D02*
X159574D01*
X124607Y290266D02*
X159574D01*
X124769Y289912D02*
X159574D01*
X124867Y289558D02*
X159574D01*
X124908Y289203D02*
X159574D01*
X124895Y288849D02*
X159574D01*
X124828Y288495D02*
X159574D01*
X124701Y288140D02*
X159574D01*
X124503Y287786D02*
X159574D01*
X124209Y287432D02*
X159574D01*
X123750Y287077D02*
X159574D01*
X111380Y286723D02*
X159574D01*
X123997Y290975D02*
X159574D01*
X111026Y286369D02*
X159554D01*
X66633Y203455D02*
X159520D01*
X149070Y282117D02*
X159500D01*
X123357Y291329D02*
X159469D01*
X68513Y199912D02*
X159462D01*
X110671Y286014D02*
X159441D01*
X77345Y295227D02*
X159415D01*
X66815Y203101D02*
X159365D01*
X130185Y181841D02*
X159360D01*
X111307Y291684D02*
X159356D01*
X110317Y285660D02*
X159329D01*
X68319Y200266D02*
X159320D01*
X66999Y202747D02*
X159247D01*
X111279Y292038D02*
X159243D01*
X109963Y285306D02*
X159216D01*
X68127Y200621D02*
X159214D01*
X107128Y282471D02*
X159195D01*
X67184Y202392D02*
X159164D01*
X67936Y200975D02*
X159142D01*
X77349Y294873D02*
X159138D01*
X130185Y181487D02*
X159137D01*
X67370Y202038D02*
X159112D01*
X67746Y201329D02*
X159102D01*
X111195Y292392D02*
X159101D01*
X67558Y201684D02*
X159092D01*
X109608Y284951D02*
X159053D01*
X107482Y282825D02*
X158990D01*
X77295Y294518D02*
X158953D01*
X111049Y292747D02*
X158928D01*
X130185Y181133D02*
X158913D01*
X109254Y284597D02*
X158897D01*
X107837Y283180D02*
X158858D01*
X92261Y294164D02*
X158835D01*
X110827Y293101D02*
X158822D01*
X108900Y284243D02*
X158805D01*
X108191Y283534D02*
X158786D01*
X109953Y293810D02*
X158777D01*
X110495Y293455D02*
X158772D01*
X108545Y283888D02*
X158769D01*
X130185Y180778D02*
X158689D01*
X130185Y180424D02*
X158465D01*
X130185Y180070D02*
X158241D01*
X149983Y210542D02*
X158213D01*
X130185Y179715D02*
X158017D01*
X95840Y221526D02*
X157827D01*
X130185Y179361D02*
X157793D01*
X130185Y179007D02*
X157570D01*
X130185Y178652D02*
X157346D01*
X149771Y210896D02*
X157262D01*
X130185Y178298D02*
X157122D01*
X95840Y221172D02*
X157023D01*
X130185Y177944D02*
X156898D01*
X130185Y177589D02*
X156674D01*
X149506Y211251D02*
X156626D01*
X130185Y177235D02*
X156529D01*
X130185Y176881D02*
X156447D01*
X95840Y220818D02*
X156445D01*
X130185Y176526D02*
X156366D01*
X130185Y176172D02*
X156284D01*
X130185Y175818D02*
X156202D01*
X149172Y211605D02*
X156134D01*
X130185Y175463D02*
X156120D01*
X130185Y175109D02*
X156039D01*
X95868Y220463D02*
X155988D01*
X130185Y174755D02*
X155957D01*
X130185Y174400D02*
X155875D01*
X130185Y174046D02*
X155793D01*
X148741Y211959D02*
X155732D01*
X130185Y173692D02*
X155712D01*
X130308Y173337D02*
X155630D01*
X95981Y220109D02*
X155611D01*
X130662Y172983D02*
X155548D01*
X131016Y172629D02*
X155466D01*
X148143Y212314D02*
X155396D01*
X131371Y172274D02*
X155385D01*
X131725Y171920D02*
X155303D01*
X96093Y219755D02*
X155294D01*
X132079Y171566D02*
X155221D01*
X132434Y171211D02*
X155139D01*
X147027Y212668D02*
X155112D01*
X132788Y170857D02*
X155058D01*
X96206Y219400D02*
X155025D01*
X133142Y170503D02*
X154976D01*
X133497Y170148D02*
X154894D01*
X94279Y213022D02*
X154869D01*
X133851Y169794D02*
X154812D01*
X96375Y219046D02*
X154795D01*
X134205Y169440D02*
X154731D01*
X85193Y213377D02*
X154663D01*
X134560Y169085D02*
X154649D01*
X96526Y218692D02*
X154600D01*
X134914Y168731D02*
X154567D01*
X85351Y213731D02*
X154489D01*
X135268Y168377D02*
X154485D01*
X96614Y218337D02*
X154436D01*
X135623Y168022D02*
X154404D01*
X85482Y214085D02*
X154343D01*
X135944Y167668D02*
X154322D01*
X96645Y217983D02*
X154300D01*
X136159Y167314D02*
X154240D01*
X85587Y214440D02*
X154224D01*
X96624Y217629D02*
X154190D01*
X136292Y166959D02*
X154158D01*
X85668Y214794D02*
X154130D01*
X96547Y217274D02*
X154104D01*
X136360Y166605D02*
X154077D01*
X85725Y215148D02*
X154060D01*
X96410Y216920D02*
X154041D01*
X85761Y215503D02*
X154012D01*
X96198Y216566D02*
X154001D01*
X137639Y166251D02*
X153995D01*
X95381Y215857D02*
X153986D01*
X95884Y216211D02*
X153983D01*
X138092Y165896D02*
X153913D01*
X138281Y165542D02*
X153831D01*
X138340Y165188D02*
X153749D01*
X138341Y164833D02*
X153668D01*
X138341Y164479D02*
X153586D01*
X138341Y164125D02*
X153504D01*
X138341Y163770D02*
X153422D01*
X138341Y163416D02*
X153341D01*
X138341Y163062D02*
X153259D01*
X138341Y162707D02*
X153177D01*
X138341Y162353D02*
X153095D01*
X138341Y161999D02*
X153014D01*
X138341Y161644D02*
X152932D01*
X54705Y258022D02*
X152857D01*
X138341Y161290D02*
X152850D01*
X138341Y160936D02*
X152768D01*
X138341Y160581D02*
X152687D01*
X138341Y160227D02*
X152605D01*
X138341Y159873D02*
X152523D01*
X138341Y159518D02*
X152441D01*
X54705Y258377D02*
X152429D01*
X138341Y159164D02*
X152360D01*
X138341Y158810D02*
X152278D01*
X97703Y273613D02*
X152240D01*
X97703Y273259D02*
X152240D01*
X97703Y272904D02*
X152240D01*
X97703Y272550D02*
X152240D01*
X97703Y272196D02*
X152240D01*
X97703Y271841D02*
X152240D01*
X97703Y271487D02*
X152240D01*
X97703Y271133D02*
X152240D01*
X97703Y270778D02*
X152240D01*
X97703Y270424D02*
X152240D01*
X97703Y270070D02*
X152240D01*
X97703Y269715D02*
X152240D01*
X97703Y269361D02*
X152240D01*
X97703Y269007D02*
X152240D01*
X97703Y268652D02*
X152240D01*
X97703Y268298D02*
X152240D01*
X97703Y267944D02*
X152240D01*
X97703Y267589D02*
X152240D01*
X97703Y267235D02*
X152240D01*
X97703Y266881D02*
X152240D01*
X97703Y266526D02*
X152240D01*
X97703Y266172D02*
X152240D01*
X97703Y265818D02*
X152240D01*
X97705Y265463D02*
X152240D01*
X97822Y265109D02*
X152240D01*
X97887Y264755D02*
X152240D01*
X97898Y264400D02*
X152240D01*
X97855Y264046D02*
X152240D01*
X97755Y263692D02*
X152240D01*
X97590Y263337D02*
X152240D01*
X97343Y262983D02*
X152240D01*
X96970Y262629D02*
X152240D01*
X96309Y262274D02*
X152240D01*
X54705Y261920D02*
X152232D01*
X138341Y158455D02*
X152196D01*
X54705Y261566D02*
X152174D01*
X54705Y258731D02*
X152161D01*
X54705Y261211D02*
X152116D01*
X138341Y158101D02*
X152114D01*
X54705Y260857D02*
X152057D01*
X97703Y273967D02*
X152035D01*
X138341Y157747D02*
X152033D01*
X54705Y259085D02*
X151988D01*
X138341Y157392D02*
X151951D01*
X54705Y260503D02*
X151946D01*
X54705Y259440D02*
X151887D01*
X138312Y157038D02*
X151869D01*
X54705Y260148D02*
X151866D01*
X54705Y259794D02*
X151847D01*
X138169Y156684D02*
X151787D01*
X137836Y156329D02*
X151706D01*
X97703Y274322D02*
X151681D01*
X88295Y155975D02*
X151624D01*
X88373Y155621D02*
X151542D01*
X88450Y155266D02*
X151460D01*
X88527Y154912D02*
X151379D01*
X97703Y274676D02*
X151326D01*
X88604Y154558D02*
X151297D01*
X88682Y154203D02*
X151215D01*
X88759Y153849D02*
X151133D01*
X88836Y153495D02*
X151052D01*
X97703Y275030D02*
X150972D01*
X88914Y153140D02*
X150970D01*
X88991Y152786D02*
X150888D01*
X89068Y152432D02*
X150806D01*
X89146Y152077D02*
X150724D01*
X89223Y151723D02*
X150643D01*
X97703Y275385D02*
X150618D01*
X89300Y151369D02*
X150561D01*
X89377Y151014D02*
X150479D01*
X89455Y150660D02*
X150397D01*
X89532Y150306D02*
X150316D01*
X97703Y275739D02*
X150264D01*
X89609Y149951D02*
X150234D01*
X89687Y149597D02*
X150152D01*
X89764Y149243D02*
X150070D01*
X89841Y148888D02*
X149989D01*
X97703Y276093D02*
X149909D01*
X89919Y148534D02*
X149907D01*
X89996Y148180D02*
X149825D01*
X90073Y147825D02*
X149743D01*
X90150Y147471D02*
X149662D01*
X90228Y147117D02*
X149580D01*
X97703Y276448D02*
X149555D01*
X90305Y146762D02*
X149498D01*
X123584Y146408D02*
X149416D01*
X123929Y146054D02*
X149335D01*
X124078Y145699D02*
X149253D01*
X97703Y276802D02*
X149201D01*
X124110Y145345D02*
X149171D01*
X124110Y144991D02*
X149089D01*
X124110Y144636D02*
X149008D01*
X124110Y144282D02*
X148926D01*
X97703Y277156D02*
X148846D01*
X124110Y143928D02*
X148844D01*
X124110Y143573D02*
X148762D01*
X124110Y143219D02*
X148681D01*
X124110Y142865D02*
X148599D01*
X124110Y142510D02*
X148517D01*
X124110Y142156D02*
X148435D01*
X97703Y277510D02*
X148404D01*
X124110Y141802D02*
X148354D01*
X124110Y141448D02*
X148272D01*
X124110Y141093D02*
X148099D01*
X97703Y277865D02*
X147910D01*
X106774Y282117D02*
X147875D01*
X124110Y140739D02*
X147820D01*
X124110Y140385D02*
X147542D01*
X97703Y278219D02*
X147293D01*
X124110Y140030D02*
X147264D01*
X106419Y281762D02*
X147166D01*
X124110Y139676D02*
X146985D01*
X97703Y278573D02*
X146875D01*
X106065Y281408D02*
X146798D01*
X124094Y139322D02*
X146707D01*
X97888Y278928D02*
X146612D01*
X105693Y281054D02*
X146561D01*
X98242Y279282D02*
X146442D01*
X123973Y138967D02*
X146429D01*
X105059Y280699D02*
X146411D01*
X98596Y279636D02*
X146344D01*
X99305Y280345D02*
X146329D01*
X98951Y279991D02*
X146308D01*
X123686Y138613D02*
X146150D01*
X66092Y204518D02*
X146023D01*
X93692Y138259D02*
X145872D01*
X95269Y212668D02*
X145682D01*
X93976Y137904D02*
X145594D01*
X94259Y137550D02*
X145316D01*
X94543Y137196D02*
X145037D01*
X94826Y136841D02*
X144759D01*
X65915Y204873D02*
X144655D01*
X95842Y212314D02*
X144566D01*
X95110Y136487D02*
X144481D01*
X95393Y136133D02*
X144202D01*
X95011Y205227D02*
X144028D01*
X96261Y211959D02*
X143968D01*
X95677Y135778D02*
X143924D01*
X95960Y135424D02*
X143646D01*
X95670Y205581D02*
X143582D01*
X96586Y211605D02*
X143536D01*
X96244Y135070D02*
X143367D01*
X96130Y205936D02*
X143238D01*
X96845Y211251D02*
X143202D01*
X96527Y134715D02*
X143089D01*
X96484Y206290D02*
X142966D01*
X97051Y210896D02*
X142937D01*
X96811Y134361D02*
X142811D01*
X96763Y206644D02*
X142748D01*
X97214Y210542D02*
X142725D01*
X96986Y206999D02*
X142576D01*
X97338Y210188D02*
X142558D01*
X97094Y134007D02*
X142532D01*
X97163Y207353D02*
X142443D01*
X97427Y209833D02*
X142430D01*
X97299Y207707D02*
X142346D01*
X97484Y209479D02*
X142337D01*
X97400Y208062D02*
X142282D01*
X97509Y209125D02*
X142277D01*
X97378Y133652D02*
X142254D01*
X97468Y208416D02*
X142250D01*
X97504Y208770D02*
X142248D01*
X97661Y133298D02*
X141976D01*
X97945Y132944D02*
X141698D01*
X98228Y132589D02*
X141419D01*
X98512Y132235D02*
X141141D01*
X98795Y131881D02*
X140863D01*
X99079Y131526D02*
X140584D01*
X99362Y131172D02*
X140306D01*
X99646Y130818D02*
X140028D01*
X99929Y130463D02*
X139749D01*
X100213Y130109D02*
X139471D01*
X100496Y129755D02*
X139193D01*
X100774Y129400D02*
X138915D01*
X100919Y129046D02*
X138725D01*
X100938Y128692D02*
X138685D01*
X100939Y128337D02*
X138685D01*
X100940Y127983D02*
X138685D01*
X100941Y127629D02*
X138685D01*
X100942Y127274D02*
X138685D01*
X100943Y126920D02*
X138685D01*
X100944Y126566D02*
X138685D01*
X100945Y126211D02*
X138685D01*
X100946Y125857D02*
X138685D01*
X100947Y125503D02*
X138685D01*
X100948Y125148D02*
X138685D01*
X100949Y124794D02*
X138685D01*
X100950Y124440D02*
X138685D01*
X100951Y124085D02*
X138685D01*
X100952Y123731D02*
X138685D01*
X100953Y123377D02*
X138685D01*
X100954Y123022D02*
X138685D01*
X100955Y122668D02*
X138685D01*
X100956Y122314D02*
X138685D01*
X121358Y121959D02*
X138685D01*
X122108Y121605D02*
X138685D01*
X122608Y121251D02*
X138685D01*
X122987Y120896D02*
X138685D01*
X123284Y120542D02*
X138685D01*
X123522Y120188D02*
X138685D01*
X123712Y119833D02*
X138685D01*
X123860Y119479D02*
X138685D01*
X123972Y119125D02*
X138685D01*
X124049Y118770D02*
X138685D01*
X124095Y118416D02*
X138685D01*
X124110Y118062D02*
X138685D01*
X124095Y117707D02*
X138685D01*
X124049Y117353D02*
X138685D01*
X123971Y116999D02*
X138685D01*
X123859Y116644D02*
X138685D01*
X123711Y116290D02*
X138685D01*
X123521Y115936D02*
X138685D01*
X123283Y115581D02*
X138685D01*
X122984Y115227D02*
X138685D01*
X122605Y114873D02*
X138685D01*
X122104Y114518D02*
X138685D01*
X121350Y114164D02*
X138685D01*
X100980Y113810D02*
X138685D01*
X100981Y113455D02*
X138685D01*
X100982Y113101D02*
X138685D01*
X100983Y112747D02*
X138685D01*
X100984Y112392D02*
X138685D01*
X100985Y112038D02*
X138685D01*
X100986Y111684D02*
X138685D01*
X100987Y111329D02*
X138685D01*
X100988Y110975D02*
X138685D01*
X100989Y110621D02*
X138685D01*
X100990Y110266D02*
X138685D01*
X100991Y109912D02*
X138685D01*
X100992Y109558D02*
X138685D01*
X100993Y109203D02*
X138685D01*
X100994Y108849D02*
X138685D01*
X100995Y108495D02*
X138685D01*
X100996Y108140D02*
X138685D01*
X100997Y107786D02*
X138685D01*
X100998Y107432D02*
X138685D01*
X100999Y107077D02*
X138685D01*
X101000Y106723D02*
X138685D01*
X101001Y106369D02*
X138685D01*
X101002Y106014D02*
X138685D01*
X101003Y105660D02*
X138685D01*
X101004Y105306D02*
X138685D01*
X101005Y104951D02*
X138685D01*
X101006Y104597D02*
X138685D01*
X101007Y104243D02*
X138685D01*
X101008Y103888D02*
X138685D01*
X101009Y103534D02*
X138685D01*
X101011Y103180D02*
X138685D01*
X101012Y102825D02*
X138685D01*
X101013Y102471D02*
X138685D01*
X101014Y102117D02*
X138685D01*
X101015Y101762D02*
X138685D01*
X101016Y101408D02*
X138685D01*
X101040Y101054D02*
X138590D01*
X117502Y166605D02*
X130915D01*
X128190Y166251D02*
X130774D01*
X128507Y156329D02*
X130577D01*
X117502Y166959D02*
X130561D01*
X128643Y165896D02*
X130322D01*
X128788Y156684D02*
X130245D01*
X117502Y167314D02*
X130207D01*
X128834Y165542D02*
X130133D01*
X128905Y157038D02*
X130102D01*
X128916Y165188D02*
X130073D01*
X128920Y164833D02*
X130073D01*
X128920Y164479D02*
X130073D01*
X128920Y164125D02*
X130073D01*
X128920Y163770D02*
X130073D01*
X128920Y163416D02*
X130073D01*
X128920Y163062D02*
X130073D01*
X128920Y162707D02*
X130073D01*
X128920Y162353D02*
X130073D01*
X128920Y161999D02*
X130073D01*
X128920Y161644D02*
X130073D01*
X128920Y161290D02*
X130073D01*
X128920Y160936D02*
X130073D01*
X128920Y160581D02*
X130073D01*
X128920Y160227D02*
X130073D01*
X128920Y159873D02*
X130073D01*
X128920Y159518D02*
X130073D01*
X128920Y159164D02*
X130073D01*
X128920Y158810D02*
X130073D01*
X128920Y158455D02*
X130073D01*
X128920Y158101D02*
X130073D01*
X128920Y157747D02*
X130073D01*
X128920Y157392D02*
X130073D01*
X117502Y167668D02*
X129852D01*
X117502Y168022D02*
X129498D01*
X117502Y168377D02*
X129144D01*
X117502Y168731D02*
X128789D01*
X117502Y169085D02*
X128435D01*
X117502Y169440D02*
X128081D01*
X117502Y169794D02*
X127726D01*
X117502Y170148D02*
X127372D01*
X117502Y170503D02*
X127018D01*
X71144Y195306D02*
X126865D01*
X117502Y170857D02*
X126663D01*
X117502Y171211D02*
X126328D01*
X114387Y194951D02*
X126288D01*
X117502Y171566D02*
X126098D01*
X117502Y171920D02*
X125952D01*
X114980Y194597D02*
X125918D01*
X117502Y172274D02*
X125874D01*
X117502Y189282D02*
X125854D01*
X117502Y188928D02*
X125854D01*
X117502Y188573D02*
X125854D01*
X117502Y188219D02*
X125854D01*
X117502Y187865D02*
X125854D01*
X117502Y187510D02*
X125854D01*
X117502Y187156D02*
X125854D01*
X117502Y186802D02*
X125854D01*
X117502Y186448D02*
X125854D01*
X117502Y186093D02*
X125854D01*
X117502Y185739D02*
X125854D01*
X117502Y185385D02*
X125854D01*
X117502Y185030D02*
X125854D01*
X117502Y184676D02*
X125854D01*
X117502Y184322D02*
X125854D01*
X117502Y183967D02*
X125854D01*
X117502Y183613D02*
X125854D01*
X117502Y183259D02*
X125854D01*
X117502Y182904D02*
X125854D01*
X117502Y182550D02*
X125854D01*
X117502Y182196D02*
X125854D01*
X117502Y181841D02*
X125854D01*
X117502Y181487D02*
X125854D01*
X117502Y181133D02*
X125854D01*
X117502Y180778D02*
X125854D01*
X117502Y180424D02*
X125854D01*
X117502Y180070D02*
X125854D01*
X117502Y179715D02*
X125854D01*
X117502Y179361D02*
X125854D01*
X117502Y179007D02*
X125854D01*
X117502Y178652D02*
X125854D01*
X117502Y178298D02*
X125854D01*
X117502Y177944D02*
X125854D01*
X117502Y177589D02*
X125854D01*
X117502Y177235D02*
X125854D01*
X117502Y176881D02*
X125854D01*
X117502Y176526D02*
X125854D01*
X117502Y176172D02*
X125854D01*
X117502Y175818D02*
X125854D01*
X117502Y175463D02*
X125854D01*
X117502Y175109D02*
X125854D01*
X117502Y174755D02*
X125854D01*
X117502Y174400D02*
X125854D01*
X117502Y174046D02*
X125854D01*
X117502Y173692D02*
X125854D01*
X117502Y173337D02*
X125854D01*
X117502Y172983D02*
X125854D01*
X117502Y172629D02*
X125854D01*
X117502Y189636D02*
X125818D01*
X117502Y189991D02*
X125762D01*
X117502Y190345D02*
X125706D01*
X115356Y194243D02*
X125657D01*
X117472Y190699D02*
X125651D01*
X117380Y191054D02*
X125595D01*
X117218Y191408D02*
X125539D01*
X115620Y193888D02*
X125471D01*
X116966Y191762D02*
X125430D01*
X115810Y193534D02*
X125344D01*
X116619Y192117D02*
X125318D01*
X115939Y193180D02*
X125268D01*
X116264Y192471D02*
X125255D01*
X116017Y192825D02*
X125239D01*
X111361Y291329D02*
X121738D01*
X118557Y166251D02*
X121325D01*
X119059Y156329D02*
X121064D01*
X119162Y165896D02*
X120873D01*
X119339Y156684D02*
X120784D01*
X119385Y165542D02*
X120684D01*
X119456Y157038D02*
X120653D01*
X119468Y165188D02*
X120624D01*
X119471Y164833D02*
X120624D01*
X119471Y164479D02*
X120624D01*
X119471Y164125D02*
X120624D01*
X119471Y163770D02*
X120624D01*
X119471Y163416D02*
X120624D01*
X119471Y163062D02*
X120624D01*
X119471Y162707D02*
X120624D01*
X119471Y162353D02*
X120624D01*
X119471Y161999D02*
X120624D01*
X119471Y161644D02*
X120624D01*
X119471Y161290D02*
X120624D01*
X119471Y160936D02*
X120624D01*
X119471Y160581D02*
X120624D01*
X119471Y160227D02*
X120624D01*
X119471Y159873D02*
X120624D01*
X119471Y159518D02*
X120624D01*
X119471Y159164D02*
X120624D01*
X119471Y158810D02*
X120624D01*
X119471Y158455D02*
X120624D01*
X119471Y158101D02*
X120624D01*
X119471Y157747D02*
X120624D01*
X119471Y157392D02*
X120624D01*
X100979Y114164D02*
X117422D01*
X100957Y121959D02*
X117414D01*
X100978Y114518D02*
X116668D01*
X100958Y121605D02*
X116664D01*
X100977Y114873D02*
X116166D01*
X100959Y121251D02*
X116163D01*
X100976Y115227D02*
X115788D01*
X100960Y120896D02*
X115785D01*
X100975Y115581D02*
X115489D01*
X100961Y120542D02*
X115487D01*
X100974Y115936D02*
X115251D01*
X100962Y120188D02*
X115249D01*
X90382Y146408D02*
X115188D01*
X93409Y138613D02*
X115086D01*
X100973Y116290D02*
X115061D01*
X100963Y119833D02*
X115060D01*
X100972Y116644D02*
X114912D01*
X100964Y119479D02*
X114911D01*
X90460Y146054D02*
X114843D01*
X100971Y116999D02*
X114801D01*
X100965Y119125D02*
X114800D01*
X93125Y138967D02*
X114799D01*
X100970Y117353D02*
X114723D01*
X100966Y118770D02*
X114722D01*
X90537Y145699D02*
X114694D01*
X92842Y139322D02*
X114678D01*
X100969Y117707D02*
X114677D01*
X100967Y118416D02*
X114677D01*
X90614Y145345D02*
X114661D01*
X90692Y144991D02*
X114661D01*
X90769Y144636D02*
X114661D01*
X90846Y144282D02*
X114661D01*
X90923Y143928D02*
X114661D01*
X91001Y143573D02*
X114661D01*
X91078Y143219D02*
X114661D01*
X91155Y142865D02*
X114661D01*
X91233Y142510D02*
X114661D01*
X91310Y142156D02*
X114661D01*
X91387Y141802D02*
X114661D01*
X91464Y141448D02*
X114661D01*
X91542Y141093D02*
X114661D01*
X91708Y140739D02*
X114661D01*
X91992Y140385D02*
X114661D01*
X92275Y140030D02*
X114661D01*
X92558Y139676D02*
X114661D01*
X100968Y118062D02*
X114661D01*
X74925Y189282D02*
X113172D01*
X75160Y188928D02*
X113172D01*
X75397Y188573D02*
X113172D01*
X75635Y188219D02*
X113172D01*
X75874Y187865D02*
X113172D01*
X76115Y187510D02*
X113172D01*
X76358Y187156D02*
X113172D01*
X76602Y186802D02*
X113172D01*
X76847Y186448D02*
X113172D01*
X77094Y186093D02*
X113172D01*
X77342Y185739D02*
X113172D01*
X77592Y185385D02*
X113172D01*
X77844Y185030D02*
X113172D01*
X78097Y184676D02*
X113172D01*
X78352Y184322D02*
X113172D01*
X78608Y183967D02*
X113172D01*
X78866Y183613D02*
X113172D01*
X79125Y183259D02*
X113172D01*
X79386Y182904D02*
X113172D01*
X79649Y182550D02*
X113172D01*
X79913Y182196D02*
X113172D01*
X80179Y181841D02*
X113172D01*
X80447Y181487D02*
X113172D01*
X80716Y181133D02*
X113172D01*
X80987Y180778D02*
X113172D01*
X81260Y180424D02*
X113172D01*
X81534Y180070D02*
X113172D01*
X81810Y179715D02*
X113172D01*
X82088Y179361D02*
X113172D01*
X82367Y179007D02*
X113172D01*
X82648Y178652D02*
X113172D01*
X82931Y178298D02*
X113172D01*
X83216Y177944D02*
X113172D01*
X83500Y177589D02*
X113172D01*
X83657Y177235D02*
X113172D01*
X83735Y176881D02*
X113172D01*
X83812Y176526D02*
X113172D01*
X83889Y176172D02*
X113172D01*
X83967Y175818D02*
X113172D01*
X84044Y175463D02*
X113172D01*
X84121Y175109D02*
X113172D01*
X84198Y174755D02*
X113172D01*
X84276Y174400D02*
X113172D01*
X84353Y174046D02*
X113172D01*
X84430Y173692D02*
X113172D01*
X84508Y173337D02*
X113172D01*
X84585Y172983D02*
X113172D01*
X84662Y172629D02*
X113172D01*
X84740Y172274D02*
X113172D01*
X84817Y171920D02*
X113172D01*
X84894Y171566D02*
X113172D01*
X84971Y171211D02*
X113172D01*
X85049Y170857D02*
X113172D01*
X85126Y170503D02*
X113172D01*
X85203Y170148D02*
X113172D01*
X85281Y169794D02*
X113172D01*
X85358Y169440D02*
X113172D01*
X85435Y169085D02*
X113172D01*
X85512Y168731D02*
X113172D01*
X85590Y168377D02*
X113172D01*
X85667Y168022D02*
X113172D01*
X85744Y167668D02*
X113172D01*
X85822Y167314D02*
X113172D01*
X85899Y166959D02*
X113172D01*
X85976Y166605D02*
X113172D01*
X74692Y189636D02*
X112951D01*
X71356Y194951D02*
X112148D01*
X86054Y166251D02*
X112117D01*
X74459Y189991D02*
X111888D01*
X88218Y156329D02*
X111615D01*
X71568Y194597D02*
X111556D01*
X86131Y165896D02*
X111512D01*
X74229Y190345D02*
X111400D01*
X88141Y156684D02*
X111335D01*
X86208Y165542D02*
X111289D01*
X88063Y157038D02*
X111218D01*
X86285Y165188D02*
X111206D01*
X86363Y164833D02*
X111203D01*
X86440Y164479D02*
X111203D01*
X86517Y164125D02*
X111203D01*
X86595Y163770D02*
X111203D01*
X86672Y163416D02*
X111203D01*
X86749Y163062D02*
X111203D01*
X86827Y162707D02*
X111203D01*
X86904Y162353D02*
X111203D01*
X86981Y161999D02*
X111203D01*
X87058Y161644D02*
X111203D01*
X87136Y161290D02*
X111203D01*
X87213Y160936D02*
X111203D01*
X87290Y160581D02*
X111203D01*
X87368Y160227D02*
X111203D01*
X87445Y159873D02*
X111203D01*
X87522Y159518D02*
X111203D01*
X87600Y159164D02*
X111203D01*
X87677Y158810D02*
X111203D01*
X87754Y158455D02*
X111203D01*
X87831Y158101D02*
X111203D01*
X87909Y157747D02*
X111203D01*
X87986Y157392D02*
X111203D01*
X71783Y194243D02*
X111180D01*
X73999Y190699D02*
X111071D01*
X71998Y193888D02*
X110915D01*
X73771Y191054D02*
X110837D01*
X72215Y193534D02*
X110726D01*
X73545Y191408D02*
X110672D01*
X72433Y193180D02*
X110597D01*
X73320Y191762D02*
X110562D01*
X72653Y192825D02*
X110518D01*
X73096Y192117D02*
X110502D01*
X72874Y192471D02*
X110487D01*
X92778Y293810D02*
X107937D01*
X93099Y293455D02*
X107394D01*
X93315Y293101D02*
X107063D01*
X93456Y292747D02*
X106841D01*
X93535Y292392D02*
X106695D01*
X93559Y292038D02*
X106575D01*
X93530Y291684D02*
X106392D01*
X93445Y291329D02*
X106209D01*
X93298Y290975D02*
X106025D01*
X93074Y290621D02*
X105692D01*
X92740Y290266D02*
X105337D01*
X92191Y289912D02*
X104983D01*
X86093Y289558D02*
X104629D01*
X85739Y289203D02*
X104274D01*
X85384Y288849D02*
X103920D01*
X85030Y288495D02*
X103566D01*
X84676Y288140D02*
X103211D01*
X84321Y287786D02*
X102857D01*
X83967Y287432D02*
X102497D01*
X96568Y229676D02*
X98937D01*
X96633Y230030D02*
X98410D01*
X96643Y230385D02*
X98086D01*
X96600Y230739D02*
X97867D01*
X97156Y244912D02*
X97815D01*
X97241Y244558D02*
X97815D01*
X97272Y244203D02*
X97815D01*
X97248Y243849D02*
X97815D01*
X97170Y243495D02*
X97815D01*
X97030Y243140D02*
X97815D01*
X96850Y242786D02*
X97815D01*
X96737Y242432D02*
X97815D01*
X96625Y242077D02*
X97815D01*
X96512Y241723D02*
X97815D01*
X96466Y241369D02*
X97815D01*
X96466Y241014D02*
X97815D01*
X96466Y240660D02*
X97815D01*
X96466Y240306D02*
X97815D01*
X96466Y239951D02*
X97815D01*
X96466Y239597D02*
X97815D01*
X96466Y239243D02*
X97815D01*
X96466Y238888D02*
X97815D01*
X96466Y238534D02*
X97815D01*
X96466Y238180D02*
X97815D01*
X96466Y237825D02*
X97815D01*
X96466Y237471D02*
X97815D01*
X96466Y237117D02*
X97815D01*
X96478Y236762D02*
X97815D01*
X96590Y236408D02*
X97815D01*
X96703Y236054D02*
X97815D01*
X96816Y235699D02*
X97815D01*
X96974Y235345D02*
X97815D01*
X97134Y234991D02*
X97815D01*
X97230Y234636D02*
X97815D01*
X97270Y234282D02*
X97815D01*
X97256Y233928D02*
X97815D01*
X97188Y233573D02*
X97815D01*
X97060Y233219D02*
X97815D01*
X96860Y232865D02*
X97815D01*
X97008Y245266D02*
X97769D01*
X96564Y232510D02*
X97729D01*
X96500Y231093D02*
X97725D01*
X96099Y232156D02*
X97646D01*
X96334Y231448D02*
X97644D01*
X96086Y231802D02*
X97618D01*
X96782Y245621D02*
X97415D01*
X96446Y245975D02*
X97061D01*
X95892Y246329D02*
X96707D01*
X54705Y246684D02*
X96352D01*
X54705Y247038D02*
X95998D01*
X54705Y247392D02*
X95644D01*
X54705Y247747D02*
X95289D01*
X54705Y248101D02*
X94935D01*
X54705Y262274D02*
X94767D01*
X54705Y252707D02*
X94715D01*
X54705Y248455D02*
X94424D01*
X54705Y252353D02*
X94107D01*
X72532Y262629D02*
X94106D01*
X54705Y248810D02*
X93949D01*
X54705Y246329D02*
X93927D01*
X54705Y251999D02*
X93751D01*
X73394Y262983D02*
X93733D01*
X54705Y249164D02*
X93647D01*
X91145Y280699D02*
X93521D01*
X54705Y251644D02*
X93514D01*
X90790Y280345D02*
X93490D01*
X73783Y263337D02*
X93486D01*
X54705Y249518D02*
X93443D01*
X90436Y279991D02*
X93401D01*
X54705Y245975D02*
X93373D01*
X90082Y279636D02*
X93373D01*
X89727Y279282D02*
X93373D01*
X89373Y278928D02*
X93373D01*
X89019Y278573D02*
X93373D01*
X88664Y278219D02*
X93373D01*
X88310Y277865D02*
X93373D01*
X87956Y277510D02*
X93373D01*
X87602Y277156D02*
X93373D01*
X87247Y276802D02*
X93373D01*
X86893Y276448D02*
X93373D01*
X86539Y276093D02*
X93373D01*
X86184Y275739D02*
X93373D01*
X85830Y275385D02*
X93373D01*
X85476Y275030D02*
X93373D01*
X85121Y274676D02*
X93373D01*
X84767Y274322D02*
X93373D01*
X84413Y273967D02*
X93373D01*
X84058Y273613D02*
X93373D01*
X83704Y273259D02*
X93373D01*
X83350Y272904D02*
X93373D01*
X82995Y272550D02*
X93373D01*
X82641Y272196D02*
X93373D01*
X82287Y271841D02*
X93373D01*
X81932Y271487D02*
X93373D01*
X81578Y271133D02*
X93373D01*
X81224Y270778D02*
X93373D01*
X80869Y270424D02*
X93373D01*
X80515Y270070D02*
X93373D01*
X80161Y269715D02*
X93373D01*
X79806Y269361D02*
X93373D01*
X79452Y269007D02*
X93373D01*
X79098Y268652D02*
X93373D01*
X78743Y268298D02*
X93373D01*
X78389Y267944D02*
X93373D01*
X78035Y267589D02*
X93373D01*
X77680Y267235D02*
X93373D01*
X77326Y266881D02*
X93373D01*
X76972Y266526D02*
X93373D01*
X76617Y266172D02*
X93373D01*
X76263Y265818D02*
X93373D01*
X75909Y265463D02*
X93371D01*
X54705Y251290D02*
X93356D01*
X54705Y241369D02*
X93353D01*
X54705Y241014D02*
X93353D01*
X54705Y240660D02*
X93353D01*
X54705Y240306D02*
X93353D01*
X54705Y239951D02*
X93353D01*
X54705Y239597D02*
X93353D01*
X54705Y239243D02*
X93353D01*
X54705Y238888D02*
X93353D01*
X54705Y238534D02*
X93353D01*
X54705Y238180D02*
X93353D01*
X54705Y237825D02*
X93353D01*
X54705Y237471D02*
X93353D01*
X54705Y237117D02*
X93353D01*
X54705Y236762D02*
X93341D01*
X74137Y263692D02*
X93321D01*
X54705Y249873D02*
X93312D01*
X54705Y241723D02*
X93307D01*
X54705Y250936D02*
X93263D01*
X75554Y265109D02*
X93254D01*
X54705Y250227D02*
X93242D01*
X54705Y236408D02*
X93229D01*
X54705Y250581D02*
X93225D01*
X74491Y264046D02*
X93221D01*
X55365Y232510D02*
X93198D01*
X54705Y242077D02*
X93194D01*
X75200Y264755D02*
X93189D01*
X85774Y215857D02*
X93186D01*
X74846Y264400D02*
X93178D01*
X54705Y236054D02*
X93116D01*
X54705Y242432D02*
X93082D01*
X54705Y245621D02*
X93037D01*
X54705Y235699D02*
X93003D01*
X54705Y242786D02*
X92969D01*
X55269Y232865D02*
X92959D01*
X55462Y232156D02*
X92854D01*
X54705Y235345D02*
X92845D01*
X54705Y245266D02*
X92811D01*
X54705Y243140D02*
X92789D01*
X55174Y233219D02*
X92759D01*
X56807Y227550D02*
X92727D01*
X56917Y227196D02*
X92727D01*
X57028Y226841D02*
X92727D01*
X57140Y226487D02*
X92727D01*
X57253Y226133D02*
X92727D01*
X57367Y225778D02*
X92727D01*
X57482Y225424D02*
X92727D01*
X57598Y225070D02*
X92727D01*
X57715Y224715D02*
X92727D01*
X57833Y224361D02*
X92727D01*
X57951Y224007D02*
X92727D01*
X58071Y223652D02*
X92727D01*
X58192Y223298D02*
X92727D01*
X58314Y222944D02*
X92727D01*
X58437Y222589D02*
X92727D01*
X58561Y222235D02*
X92727D01*
X58686Y221881D02*
X92727D01*
X81233Y221526D02*
X92727D01*
X82328Y221172D02*
X92727D01*
X83008Y220818D02*
X92727D01*
X83525Y220463D02*
X92699D01*
X54714Y234991D02*
X92685D01*
X85766Y216211D02*
X92683D01*
X54705Y244912D02*
X92663D01*
X56697Y227904D02*
X92653D01*
X54705Y243495D02*
X92649D01*
X55080Y233573D02*
X92631D01*
X54804Y234636D02*
X92588D01*
X83944Y220109D02*
X92586D01*
X54705Y244558D02*
X92577D01*
X54705Y243849D02*
X92571D01*
X54987Y233928D02*
X92563D01*
X54895Y234282D02*
X92549D01*
X54705Y244203D02*
X92547D01*
X56589Y228259D02*
X92541D01*
X85005Y213022D02*
X92524D01*
X55560Y231802D02*
X92481D01*
X84292Y219755D02*
X92474D01*
X56482Y228613D02*
X92428D01*
X85736Y216566D02*
X92369D01*
X84587Y219400D02*
X92361D01*
X56376Y228967D02*
X92314D01*
X55658Y231448D02*
X92232D01*
X84838Y219046D02*
X92191D01*
X85683Y216920D02*
X92157D01*
X56270Y229322D02*
X92122D01*
X55758Y231093D02*
X92067D01*
X85051Y218692D02*
X92041D01*
X85607Y217274D02*
X92020D01*
X56166Y229676D02*
X91999D01*
X55859Y230739D02*
X91967D01*
X85232Y218337D02*
X91953D01*
X85508Y217629D02*
X91943D01*
X56063Y230030D02*
X91934D01*
X55960Y230385D02*
X91924D01*
X85384Y217983D02*
X91921D01*
X65738Y205227D02*
X91792D01*
X84784Y212668D02*
X91534D01*
X81982Y295936D02*
X91273D01*
X82037Y300188D02*
X91219D01*
X65562Y205581D02*
X91133D01*
X84523Y212314D02*
X90961D01*
X65388Y205936D02*
X90673D01*
X84217Y211959D02*
X90543D01*
X82865Y296290D02*
X90391D01*
X65215Y206290D02*
X90320D01*
X82948Y299833D02*
X90308D01*
X83854Y211605D02*
X90217D01*
X86447Y289912D02*
X90203D01*
X77176Y294164D02*
X90133D01*
X65043Y206644D02*
X90040D01*
X83417Y211251D02*
X89958D01*
X64872Y206999D02*
X89817D01*
X82870Y210896D02*
X89752D01*
X64703Y207353D02*
X89640D01*
X82132Y210542D02*
X89590D01*
X64534Y207707D02*
X89504D01*
X80763Y210188D02*
X89465D01*
X64367Y208062D02*
X89403D01*
X63547Y209833D02*
X89376D01*
X64200Y208416D02*
X89335D01*
X86802Y290266D02*
X89324D01*
X63708Y209479D02*
X89320D01*
X64035Y208770D02*
X89299D01*
X63871Y209125D02*
X89294D01*
X76982Y293810D02*
X89217D01*
X87000Y284243D02*
X88812D01*
X86644Y283888D02*
X88766D01*
X86290Y283534D02*
X88412D01*
X85936Y283180D02*
X88057D01*
X85581Y282825D02*
X87703D01*
X85227Y282471D02*
X87349D01*
X84873Y282117D02*
X86994D01*
X84518Y281762D02*
X86640D01*
X84164Y281408D02*
X86286D01*
X83810Y281054D02*
X85931D01*
X76682Y293455D02*
X85711D01*
X83455Y280699D02*
X85577D01*
X83613Y287077D02*
X85451D01*
X76185Y293101D02*
X85235D01*
X83101Y280345D02*
X85223D01*
X83258Y286723D02*
X85078D01*
X56827Y292747D02*
X84881D01*
X82747Y279991D02*
X84868D01*
X82904Y286369D02*
X84723D01*
X56827Y292392D02*
X84526D01*
X82392Y279636D02*
X84514D01*
X82550Y286014D02*
X84369D01*
X56827Y292038D02*
X84172D01*
X82038Y279282D02*
X84160D01*
X82195Y285660D02*
X84015D01*
X56827Y291684D02*
X83818D01*
X81684Y278928D02*
X83805D01*
X81841Y285306D02*
X83660D01*
X56827Y291329D02*
X83463D01*
X81329Y278573D02*
X83451D01*
X81487Y284951D02*
X83306D01*
X56827Y290975D02*
X83109D01*
X80975Y278219D02*
X83097D01*
X81132Y284597D02*
X82952D01*
X56827Y290621D02*
X82755D01*
X80621Y277865D02*
X82742D01*
X80939Y284243D02*
X82597D01*
X56827Y290266D02*
X82400D01*
X80266Y277510D02*
X82388D01*
X80755Y283888D02*
X82243D01*
X56827Y289912D02*
X82046D01*
X79912Y277156D02*
X82034D01*
X80572Y283534D02*
X81889D01*
X56827Y289558D02*
X81692D01*
X79558Y276802D02*
X81679D01*
X80439Y283180D02*
X81534D01*
X56827Y289203D02*
X81337D01*
X79203Y276448D02*
X81325D01*
X80305Y282825D02*
X81180D01*
X56827Y288849D02*
X80983D01*
X78849Y276093D02*
X80971D01*
X80098Y282471D02*
X80826D01*
X56827Y288495D02*
X80629D01*
X78495Y275739D02*
X80616D01*
X79791Y282117D02*
X80471D01*
X56827Y288140D02*
X80274D01*
X78140Y275385D02*
X80262D01*
X79303Y281762D02*
X80117D01*
X77153Y295936D02*
X79978D01*
X78612Y300188D02*
X79924D01*
X62511Y287786D02*
X79920D01*
X77786Y275030D02*
X79908D01*
X56827Y281408D02*
X79763D01*
X63493Y287432D02*
X79566D01*
X77432Y274676D02*
X79553D01*
X56827Y310818D02*
X79525D01*
X77009Y296290D02*
X79433D01*
X56827Y281054D02*
X79408D01*
X78257Y299833D02*
X79403D01*
X63386Y210188D02*
X79268D01*
X63967Y287077D02*
X79211D01*
X77077Y274322D02*
X79199D01*
X64377Y305857D02*
X79138D01*
X64479Y305503D02*
X79138D01*
X64210Y306211D02*
X79127D01*
X64524Y305148D02*
X79110D01*
X76914Y296644D02*
X79100D01*
X77903Y299479D02*
X79081D01*
X56827Y310463D02*
X79060D01*
X56827Y280699D02*
X79054D01*
X63958Y306566D02*
X79018D01*
X63579Y306920D02*
X78908D01*
X76818Y296999D02*
X78877D01*
X77549Y299125D02*
X78864D01*
X76723Y273967D02*
X78845D01*
X64288Y286723D02*
X78808D01*
X62895Y307274D02*
X78799D01*
X58811Y221526D02*
X78799D01*
X64516Y304794D02*
X78764D01*
X56827Y310109D02*
X78763D01*
X76764Y297353D02*
X78731D01*
X77194Y298770D02*
X78723D01*
X56827Y280345D02*
X78700D01*
X56827Y307629D02*
X78648D01*
X76764Y297707D02*
X78647D01*
X76840Y298416D02*
X78643D01*
X76764Y298062D02*
X78618D01*
X56827Y309755D02*
X78563D01*
X76312Y273613D02*
X78490D01*
X56827Y307983D02*
X78487D01*
X56827Y309400D02*
X78434D01*
X64453Y304440D02*
X78409D01*
X56827Y308337D02*
X78391D01*
X56827Y309046D02*
X78366D01*
X56827Y308692D02*
X78352D01*
X56827Y279991D02*
X78345D01*
X64318Y273259D02*
X78136D01*
X64518Y286369D02*
X78123D01*
X64332Y304085D02*
X78055D01*
X56827Y279636D02*
X77991D01*
X63226Y210542D02*
X77899D01*
X63296Y272904D02*
X77782D01*
X58938Y221172D02*
X77704D01*
X64140Y303731D02*
X77701D01*
X56827Y279282D02*
X77637D01*
X56827Y272550D02*
X77427D01*
X63855Y303377D02*
X77346D01*
X56827Y278928D02*
X77282D01*
X64679Y286014D02*
X77259D01*
X63068Y210896D02*
X77161D01*
X56827Y272196D02*
X77073D01*
X56827Y281762D02*
X77035D01*
X59066Y220818D02*
X77023D01*
X63414Y303022D02*
X76992D01*
X56827Y278573D02*
X76928D01*
X56827Y271841D02*
X76719D01*
X64786Y285660D02*
X76670D01*
X62277Y302668D02*
X76638D01*
X62911Y211251D02*
X76615D01*
X56827Y278219D02*
X76574D01*
X56827Y282117D02*
X76548D01*
X59195Y220463D02*
X76506D01*
X56827Y271487D02*
X76364D01*
X64843Y285306D02*
X76321D01*
X56827Y302314D02*
X76283D01*
X63142Y282471D02*
X76240D01*
X56827Y277865D02*
X76219D01*
X62754Y211605D02*
X76177D01*
X59325Y220109D02*
X76088D01*
X64855Y284951D02*
X76088D01*
X63758Y282825D02*
X76033D01*
X56827Y271133D02*
X76010D01*
X64821Y284597D02*
X75934D01*
X56827Y301959D02*
X75929D01*
X64143Y283180D02*
X75900D01*
X56827Y277510D02*
X75865D01*
X64739Y284243D02*
X75843D01*
X64413Y283534D02*
X75826D01*
X62599Y211959D02*
X75814D01*
X64607Y283888D02*
X75808D01*
X59456Y219755D02*
X75739D01*
X56827Y270778D02*
X75656D01*
X56827Y301605D02*
X75575D01*
X62885Y277156D02*
X75511D01*
X62445Y212314D02*
X75508D01*
X59588Y219400D02*
X75445D01*
X56827Y270424D02*
X75301D01*
X62292Y212668D02*
X75248D01*
X56827Y301251D02*
X75220D01*
X59721Y219046D02*
X75194D01*
X63707Y276802D02*
X75156D01*
X62140Y213022D02*
X75026D01*
X59855Y218692D02*
X74980D01*
X57073Y270070D02*
X74947D01*
X56827Y300896D02*
X74866D01*
X61989Y213377D02*
X74838D01*
X59990Y218337D02*
X74799D01*
X61840Y213731D02*
X74680D01*
X60126Y217983D02*
X74648D01*
X57427Y269715D02*
X74593D01*
X61691Y214085D02*
X74550D01*
X60263Y217629D02*
X74523D01*
X56827Y300542D02*
X74512D01*
X61543Y214440D02*
X74445D01*
X60401Y217274D02*
X74424D01*
X61397Y214794D02*
X74364D01*
X60540Y216920D02*
X74349D01*
X61252Y215148D02*
X74306D01*
X60680Y216566D02*
X74296D01*
X61107Y215503D02*
X74271D01*
X60821Y216211D02*
X74266D01*
X60964Y215857D02*
X74257D01*
X57781Y269361D02*
X74238D01*
X56827Y293101D02*
X74193D01*
X56827Y300188D02*
X74157D01*
X58136Y269007D02*
X73884D01*
X56827Y299833D02*
X73858D01*
X56827Y293455D02*
X73696D01*
X56827Y299479D02*
X73691D01*
X56827Y299125D02*
X73620D01*
X56827Y298770D02*
X73614D01*
X56827Y298416D02*
X73614D01*
X56827Y298062D02*
X73614D01*
X56827Y297707D02*
X73614D01*
X56827Y297353D02*
X73614D01*
X56827Y296999D02*
X73560D01*
X58490Y268652D02*
X73530D01*
X56827Y296644D02*
X73464D01*
X56827Y293810D02*
X73396D01*
X56827Y296290D02*
X73369D01*
X56827Y295936D02*
X73225D01*
X56827Y294164D02*
X73202D01*
X58844Y268298D02*
X73175D01*
X56827Y295581D02*
X73097D01*
X56827Y294518D02*
X73083D01*
X56827Y295227D02*
X73033D01*
X56827Y294873D02*
X73029D01*
X59199Y267944D02*
X72821D01*
X59553Y267589D02*
X72467D01*
X59907Y267235D02*
X72112D01*
X60262Y266881D02*
X71758D01*
X56827Y302668D02*
X62054D01*
X56827Y287786D02*
X61639D01*
X56827Y307274D02*
X61436D01*
X56827Y277156D02*
X61288D01*
X54705Y327117D02*
X61038D01*
X56827Y282471D02*
X61008D01*
X56827Y303022D02*
X60917D01*
X56827Y272904D02*
X60877D01*
X56827Y306920D02*
X60752D01*
X56827Y287432D02*
X60657D01*
X56827Y276802D02*
X60642D01*
X54705Y326762D02*
X60524D01*
X56827Y303377D02*
X60476D01*
X56827Y273259D02*
X60420D01*
X56827Y282825D02*
X60392D01*
X56827Y306566D02*
X60372D01*
X56827Y276448D02*
X60274D01*
X54705Y326408D02*
X60205D01*
X56827Y303731D02*
X60191D01*
X56827Y287077D02*
X60182D01*
X56827Y273613D02*
X60128D01*
X56827Y306211D02*
X60121D01*
X56827Y276093D02*
X60029D01*
X56827Y283180D02*
X60007D01*
X56827Y304085D02*
X59999D01*
X54705Y326054D02*
X59990D01*
X56827Y305857D02*
X59954D01*
X56827Y273967D02*
X59931D01*
X56827Y304440D02*
X59877D01*
X56827Y275739D02*
X59866D01*
X56827Y286723D02*
X59861D01*
X56827Y305503D02*
X59851D01*
X54705Y325699D02*
X59850D01*
X56827Y304794D02*
X59815D01*
X56827Y305148D02*
X59806D01*
X56827Y274322D02*
X59805D01*
X56827Y275385D02*
X59768D01*
X56827Y274676D02*
X59738D01*
X56827Y283534D02*
X59736D01*
X56827Y275030D02*
X59726D01*
X54705Y325345D02*
X59660D01*
X56827Y286369D02*
X59632D01*
X56827Y283888D02*
X59543D01*
X54705Y262629D02*
X59488D01*
X56827Y286014D02*
X59470D01*
X56827Y284243D02*
X59410D01*
X56827Y285660D02*
X59364D01*
X56827Y284597D02*
X59329D01*
X56827Y285306D02*
X59306D01*
X54705Y324991D02*
X59305D01*
X56827Y284951D02*
X59295D01*
X54705Y324636D02*
X58951D01*
X54705Y262983D02*
X58625D01*
X54705Y324282D02*
X58597D01*
X54705Y323928D02*
X58242D01*
X54705Y263337D02*
X58237D01*
X54705Y323573D02*
X57888D01*
X54705Y263692D02*
X57883D01*
X54705Y323219D02*
X57534D01*
X54705Y264046D02*
X57528D01*
X54705Y322865D02*
X57179D01*
X54705Y264400D02*
X57174D01*
X54705Y322510D02*
X56825D01*
X54705Y264755D02*
X56820D01*
X54705Y322156D02*
X56471D01*
X54705Y265109D02*
X56465D01*
X54705Y321802D02*
X56116D01*
X54705Y265463D02*
X56111D01*
X54705Y321448D02*
X55762D01*
X54705Y265818D02*
X55757D01*
X54705Y321093D02*
X55408D01*
X54705Y266172D02*
X55402D01*
X54751Y320739D02*
X55053D01*
X54755Y266526D02*
X55048D01*
G54D24*
X139669Y100043D02*
Y128768D01*
X149138Y140823*
X157496Y177047*
X169909Y196697*
X175228Y207260*
X176075Y209083*
X185287Y235787*
X185257Y235704D02*
G03X189091Y248286I-105552J39045D01*
G01X189122Y248413D02*
X191937Y281130D01*
X191930Y281305D02*
G03X164270Y380374I-223376J-8971D01*
G01X164354Y380220D02*
X75772D01*
X66063Y362831*
X66002Y362703D02*
G03X53383Y236269I171225J-80938D01*
G01X53363Y236351D02*
G03X82669Y177054I146212J35372D01*
G01X82697Y177020D02*
X90673Y140457D01*
X99953Y128858*
X100035Y99965*
X139669Y100043*
X168648Y359795D02*
G03X168648I-4774J0D01*
G01X80656D02*
G03X80656I-4774J0D01*
G01X164515Y216094D02*
G03X164515I-4775J0D01*
G01X149479Y208614D02*
G03X149479I-3125J0D01*
G01X96526Y209008D02*
G03X96526I-3124J0D01*
G01X84790Y215898D02*
G03X84790I-4774J0D01*
G54D25*
G01X109283Y99957D02*
X109286D01*
X108642Y380098D02*
X108644D01*
X47591Y281173D02*
X47593D01*
X191921Y281358D02*
X191924D01*
G54D45*
X75189Y296992D02*
X74771Y295441D01*
X75189Y296402*
X75607Y295441*
X75189Y296992*
X74939Y296063D02*
X75042D01*
X75336D02*
X75439D01*
X75151Y296850D02*
X75227D01*
X74771Y295441D02*
X74771D01*
X75559Y295551D02*
Y295619D01*
X80713Y306413D02*
X81269Y308219D01*
X80713Y307201*
X80156Y308219*
X80713Y306413*
X80505Y307087D02*
X80920D01*
X80262Y307874D02*
X80344D01*
X81081D02*
X81163D01*
X80156Y308219D02*
X80156D01*
X80943Y307161D02*
Y307622D01*
X75189Y295024D02*
Y298992D01*
X80713Y304516*
Y308776*
G54D50*
X149864Y278643D02*
X148866Y280035D01*
X149586Y278922*
X148472Y279642*
X149864Y278643*
X148632Y279528D02*
X148649D01*
X149194D02*
X149230D01*
X149606Y278829D02*
Y279003D01*
X154012Y261823D02*
X153733Y260133D01*
X154012Y261429*
X154290Y260133*
X154012Y261823*
X153815Y260630D02*
X153840D01*
X154183D02*
X154208D01*
X154010Y261811D02*
X154014D01*
X148472Y280035D02*
X154012Y274496D01*
Y259854*
G74*
X0Y0D02*
M02*
