%
T1C.01181F095S3
X014847Y028004
X015401Y025985
X009505Y030734
X007519Y029502
T2C.01575F095S3
X00966Y014293
X010079Y013736
X010749Y01054
X010921Y012536
X011219Y014997
X012337Y013741
X01278Y010568
X013096Y013452
X013151Y014873
X013322Y012458
X013472Y011527
X014555Y014451
X015048Y016996
X014772Y015765
X01365Y017873
X012489Y016104
X011989Y01747
X010802Y017864
X010182Y016056
X010126Y017794
X009004Y017282
X008876Y016541
X007222Y019846
X007817Y018917
X009056Y020227
X009401Y019883
X009452Y018636
X009669Y020247
X010694Y020007
X012099Y019366
X012115Y020011
X013668Y019487
X014957Y019902
X015381Y019235
X017352Y021764
X016159Y02303
X015337Y022813
X013358Y021781
X013219Y021188
X012905Y021613
X012682Y022051
X011774Y021154
X011629Y021493
X01083Y022184
X010571Y02252
X01057Y021413
X010324Y022261
X010229Y021378
X010085Y02262
X009428Y021795
X009428Y023028
X008933Y022204
X008547Y020666
X008064Y022846
X006359Y022205
X005783Y025496
X006141Y02508
X006222Y024482
X006359Y02333
X007493Y023514
X008961Y024772
X00904Y025139
X009128Y024507
X009311Y024793
X009491Y024418
X009491Y02342
X009559Y025051
X009998Y02318
X011182Y025153
X011255Y023381
X011476Y02449
X011756Y023451
X011965Y025273
X012998Y023612
X014067Y025538
X014586Y023443
X015023Y023835
X015333Y023522
X01557Y023768
X016045Y025139
X016563Y025376
X017214Y025375
X017495Y02346
X018146Y023598
X01726Y02794
X017043Y02587
X016788Y027776
X016124Y02587
X015852Y027803
X015403Y028006
X014954Y026016
X014778Y027335
X014373Y025541
X0134Y027688
X011821Y027421
X011716Y02592
X011704Y026552
X011404Y027421
X010975Y027425
X010937Y02656
X010827Y025554
X009554Y026451
X009136Y026489
X007439Y02788
X007109Y026025
X00709Y02715
X007068Y027776
X006655Y026841
X006276Y02682
X006209Y027493
X005637Y025944
X006217Y030503
X006948Y030162
X007049Y029863
X007143Y028898
X007817Y028383
X008098Y029807
X008992Y02887
X00912Y029206
X009228Y029807
X009576Y029483
X009864Y028274
X009897Y0298
X010156Y029965
X010894Y029167
X010942Y028308
X012255Y028911
X012457Y028639
X012813Y028839
X013159Y029845
X013245Y028889
X013719Y028878
X013728Y029709
X01391Y030052
X015026Y029725
X016063Y029907
X016113Y02936
X016113Y028383
X017991Y02805
X018036Y032919
X017964Y03159
X017957Y032259
X017822Y03092
X016023Y031152
X016015Y031539
X015769Y03291
X01514Y031141
X014763Y030785
X009726Y032993
X009043Y032893
X008606Y032865
X008071Y030878
X007115Y03181
X007012Y031422
X0069Y032647
X006825Y031706
X006622Y031399
X00648Y031731
X006211Y032501
X006209Y031503
X00638Y033526
X006838Y033089
X007304Y033723
X007436Y033291
X007975Y035139
X008445Y035139
X008925Y035159
X009369Y033174
X009395Y035139
X009865Y035159
X010345Y035159
X010805Y035169
X011315Y035179
X011755Y035169
X012225Y035179
X012695Y035189
X013175Y035169
X013645Y035169
X014135Y035159
X014585Y035169
X015085Y035149
X015545Y035159
X016005Y035149
X016067Y033402
X017895Y033402
T3C.017F095S3
X011327Y019241
X012802Y019278
X006207Y028504
T4C.02362F197S55
X015357Y018073
X01646Y020162
T5C.0315F197S55
X011939Y014247
T6C.03937F197S55
X011939Y011806
M30
