*
*
G04 PADS VX.0 Build Number: 635560 generated Gerber (RS-274-X) file*
G04 PC Version=2.1*
*
%IN "CSM34P80A V1.0.pcb"*%
*
%MOIN*%
*
%FSLAX35Y35*%
*
*
*
*
G04 PC Standard Apertures*
*
*
G04 Thermal Relief Aperture macro.*
%AMTER*
1,1,$1,0,0*
1,0,$1-$2,0,0*
21,0,$3,$4,0,0,45*
21,0,$3,$4,0,0,135*
%
*
*
G04 Annular Aperture macro.*
%AMANN*
1,1,$1,0,0*
1,0,$2,0,0*
%
*
*
G04 Odd Aperture macro.*
%AMODD*
1,1,$1,0,0*
1,0,$1-0.005,0,0*
%
*
*
G04 PC Custom Aperture Macros*
*
*
*
*
*
*
G04 PC Aperture Table*
*
%ADD010C,0.00004*%
%ADD024C,0.00591*%
%ADD031C,0.00039*%
%ADD064R,0.07487X0.06306*%
%ADD065O,0.07487X0.06306*%
%ADD066O,0.09061X0.06306*%
%ADD067O,0.06306X0.09061*%
%ADD068C,0.05124*%
%ADD069C,0.04337*%
%ADD070R,0.054X0.044*%
%ADD071R,0.08274X0.08274*%
%ADD072R,0.06306X0.01581*%
%ADD073O,0.01581X0.06306*%
%ADD074R,0.01581X0.06306*%
%ADD075R,0.01975X0.01187*%
%ADD076R,0.01187X0.01975*%
%ADD077R,0.02369X0.02369*%
%ADD078R,0.078X0.029*%
%ADD079O,0.078X0.029*%
%ADD080R,0.08274X0.05124*%
%ADD081O,0.08274X0.05124*%
%ADD082R,0.04337X0.05124*%
%ADD083R,0.034X0.034*%
%ADD084O,0.06699X0.02762*%
*
*
*
*
G04 PC Circuitry*
G04 Layer Name CSM34P80A V1.0.pcb - circuitry*
%LPD*%
*
*
G04 PC Custom Flashes*
G04 Layer Name CSM34P80A V1.0.pcb - flashes*
%LPD*%
*
*
G04 PC Circuitry*
G04 Layer Name CSM34P80A V1.0.pcb - circuitry*
%LPD*%
*
G54D10*
G54D24*
G01X139669Y100043D02*
Y128768D01*
X149138Y140823*
X157496Y177047*
X169909Y196697*
X175228Y207260*
X176075Y209083*
X185287Y235787*
X185257Y235704D02*
G75*
G03X189091Y248286I-105552J39045D01*
G01X189122Y248413D02*
X191937Y281130D01*
X191930Y281305D02*
G03X164270Y380374I-223376J-8971D01*
G01X164354Y380220D02*
X75772D01*
X66063Y362831*
X66002Y362703D02*
G03X53383Y236269I171225J-80938D01*
G01X53363Y236351D02*
G03X82669Y177054I146212J35372D01*
G01X82697Y177020D02*
X90673Y140457D01*
X99953Y128858*
X100035Y99965*
X139669Y100043*
X168648Y359795D02*
G03X168648I-4774J0D01*
G01X80656D02*
G03X80656I-4774J0D01*
G01X164515Y216094D02*
G03X164515I-4775J0D01*
G01X149479Y208614D02*
G03X149479I-3125J0D01*
G01X96526Y209008D02*
G03X96526I-3124J0D01*
G01X84790Y215898D02*
G03X84790I-4774J0D01*
G54D31*
G01X96040Y308967D02*
Y309707D01*
X96441Y310108*
X101905*
X102306Y309707*
Y308967*
X101905Y308566*
X96441*
X96040Y308967*
X96424Y308583D02*
X101922D01*
X96384Y308622D02*
X101961D01*
X96345Y308661D02*
X102000D01*
X96306Y308701D02*
X102040D01*
X96266Y308740D02*
X102079D01*
X96227Y308780D02*
X102118D01*
X96188Y308819D02*
X102158D01*
X96148Y308858D02*
X102197D01*
X96109Y308898D02*
X102237D01*
X96069Y308937D02*
X102276D01*
X96040Y308976D02*
X102306D01*
X96040Y309016D02*
X102306D01*
X96040Y309055D02*
X102306D01*
X96040Y309094D02*
X102306D01*
X96040Y309134D02*
X102306D01*
X96040Y309173D02*
X102306D01*
X96040Y309213D02*
X102306D01*
X96040Y309252D02*
X102306D01*
X96040Y309291D02*
X102306D01*
X96040Y309331D02*
X102306D01*
X96040Y309370D02*
X102306D01*
X96040Y309409D02*
X102306D01*
X96040Y309449D02*
X102306D01*
X96040Y309488D02*
X102306D01*
X96040Y309528D02*
X102306D01*
X96040Y309567D02*
X102306D01*
X96040Y309606D02*
X102306D01*
X96040Y309646D02*
X102306D01*
X96040Y309685D02*
X102306D01*
X96057Y309724D02*
X102288D01*
X96097Y309764D02*
X102249D01*
X96136Y309803D02*
X102209D01*
X96175Y309843D02*
X102170D01*
X96215Y309882D02*
X102131D01*
X96254Y309921D02*
X102091D01*
X96294Y309961D02*
X102052D01*
X96333Y310000D02*
X102013D01*
X96372Y310039D02*
X101973D01*
X96412Y310079D02*
X101934D01*
X96040Y308967D02*
Y309707D01*
X96079Y308927D02*
Y309746D01*
X96118Y308888D02*
Y309785D01*
X96158Y308849D02*
Y309825D01*
X96197Y308809D02*
Y309864D01*
X96236Y308770D02*
Y309904D01*
X96276Y308731D02*
Y309943D01*
X96315Y308691D02*
Y309982D01*
X96355Y308652D02*
Y310022D01*
X96394Y308612D02*
Y310061D01*
X96433Y308573D02*
Y310100D01*
X96473Y308566D02*
Y310108D01*
X96512Y308566D02*
Y310108D01*
X96551Y308566D02*
Y310108D01*
X96591Y308566D02*
Y310108D01*
X96630Y308566D02*
Y310108D01*
X96670Y308566D02*
Y310108D01*
X96709Y308566D02*
Y310108D01*
X96748Y308566D02*
Y310108D01*
X96788Y308566D02*
Y310108D01*
X96827Y308566D02*
Y310108D01*
X96866Y308566D02*
Y310108D01*
X96906Y308566D02*
Y310108D01*
X96945Y308566D02*
Y310108D01*
X96985Y308566D02*
Y310108D01*
X97024Y308566D02*
Y310108D01*
X97063Y308566D02*
Y310108D01*
X97103Y308566D02*
Y310108D01*
X97142Y308566D02*
Y310108D01*
X97181Y308566D02*
Y310108D01*
X97221Y308566D02*
Y310108D01*
X97260Y308566D02*
Y310108D01*
X97299Y308566D02*
Y310108D01*
X97339Y308566D02*
Y310108D01*
X97378Y308566D02*
Y310108D01*
X97418Y308566D02*
Y310108D01*
X97457Y308566D02*
Y310108D01*
X97496Y308566D02*
Y310108D01*
X97536Y308566D02*
Y310108D01*
X97575Y308566D02*
Y310108D01*
X97614Y308566D02*
Y310108D01*
X97654Y308566D02*
Y310108D01*
X97693Y308566D02*
Y310108D01*
X97733Y308566D02*
Y310108D01*
X97772Y308566D02*
Y310108D01*
X97811Y308566D02*
Y310108D01*
X97851Y308566D02*
Y310108D01*
X97890Y308566D02*
Y310108D01*
X97929Y308566D02*
Y310108D01*
X97969Y308566D02*
Y310108D01*
X98008Y308566D02*
Y310108D01*
X98048Y308566D02*
Y310108D01*
X98087Y308566D02*
Y310108D01*
X98126Y308566D02*
Y310108D01*
X98166Y308566D02*
Y310108D01*
X98205Y308566D02*
Y310108D01*
X98244Y308566D02*
Y310108D01*
X98284Y308566D02*
Y310108D01*
X98323Y308566D02*
Y310108D01*
X98362Y308566D02*
Y310108D01*
X98402Y308566D02*
Y310108D01*
X98441Y308566D02*
Y310108D01*
X98481Y308566D02*
Y310108D01*
X98520Y308566D02*
Y310108D01*
X98559Y308566D02*
Y310108D01*
X98599Y308566D02*
Y310108D01*
X98638Y308566D02*
Y310108D01*
X98677Y308566D02*
Y310108D01*
X98717Y308566D02*
Y310108D01*
X98756Y308566D02*
Y310108D01*
X98796Y308566D02*
Y310108D01*
X98835Y308566D02*
Y310108D01*
X98874Y308566D02*
Y310108D01*
X98914Y308566D02*
Y310108D01*
X98953Y308566D02*
Y310108D01*
X98992Y308566D02*
Y310108D01*
X99032Y308566D02*
Y310108D01*
X99071Y308566D02*
Y310108D01*
X99111Y308566D02*
Y310108D01*
X99150Y308566D02*
Y310108D01*
X99189Y308566D02*
Y310108D01*
X99229Y308566D02*
Y310108D01*
X99268Y308566D02*
Y310108D01*
X99307Y308566D02*
Y310108D01*
X99347Y308566D02*
Y310108D01*
X99386Y308566D02*
Y310108D01*
X99425Y308566D02*
Y310108D01*
X99465Y308566D02*
Y310108D01*
X99504Y308566D02*
Y310108D01*
X99544Y308566D02*
Y310108D01*
X99583Y308566D02*
Y310108D01*
X99622Y308566D02*
Y310108D01*
X99662Y308566D02*
Y310108D01*
X99701Y308566D02*
Y310108D01*
X99740Y308566D02*
Y310108D01*
X99780Y308566D02*
Y310108D01*
X99819Y308566D02*
Y310108D01*
X99859Y308566D02*
Y310108D01*
X99898Y308566D02*
Y310108D01*
X99937Y308566D02*
Y310108D01*
X99977Y308566D02*
Y310108D01*
X100016Y308566D02*
Y310108D01*
X100055Y308566D02*
Y310108D01*
X100095Y308566D02*
Y310108D01*
X100134Y308566D02*
Y310108D01*
X100173Y308566D02*
Y310108D01*
X100213Y308566D02*
Y310108D01*
X100252Y308566D02*
Y310108D01*
X100292Y308566D02*
Y310108D01*
X100331Y308566D02*
Y310108D01*
X100370Y308566D02*
Y310108D01*
X100410Y308566D02*
Y310108D01*
X100449Y308566D02*
Y310108D01*
X100488Y308566D02*
Y310108D01*
X100528Y308566D02*
Y310108D01*
X100567Y308566D02*
Y310108D01*
X100607Y308566D02*
Y310108D01*
X100646Y308566D02*
Y310108D01*
X100685Y308566D02*
Y310108D01*
X100725Y308566D02*
Y310108D01*
X100764Y308566D02*
Y310108D01*
X100803Y308566D02*
Y310108D01*
X100843Y308566D02*
Y310108D01*
X100882Y308566D02*
Y310108D01*
X100922Y308566D02*
Y310108D01*
X100961Y308566D02*
Y310108D01*
X101000Y308566D02*
Y310108D01*
X101040Y308566D02*
Y310108D01*
X101079Y308566D02*
Y310108D01*
X101118Y308566D02*
Y310108D01*
X101158Y308566D02*
Y310108D01*
X101197Y308566D02*
Y310108D01*
X101236Y308566D02*
Y310108D01*
X101276Y308566D02*
Y310108D01*
X101315Y308566D02*
Y310108D01*
X101355Y308566D02*
Y310108D01*
X101394Y308566D02*
Y310108D01*
X101433Y308566D02*
Y310108D01*
X101473Y308566D02*
Y310108D01*
X101512Y308566D02*
Y310108D01*
X101551Y308566D02*
Y310108D01*
X101591Y308566D02*
Y310108D01*
X101630Y308566D02*
Y310108D01*
X101670Y308566D02*
Y310108D01*
X101709Y308566D02*
Y310108D01*
X101748Y308566D02*
Y310108D01*
X101788Y308566D02*
Y310108D01*
X101827Y308566D02*
Y310108D01*
X101866Y308566D02*
Y310108D01*
X101906Y308567D02*
Y310107D01*
X101945Y308606D02*
Y310067D01*
X101985Y308646D02*
Y310028D01*
X102024Y308685D02*
Y309989D01*
X102063Y308724D02*
Y309949D01*
X102103Y308764D02*
Y309910D01*
X102142Y308803D02*
Y309871D01*
X102181Y308842D02*
Y309831D01*
X102221Y308882D02*
Y309792D01*
X102260Y308921D02*
Y309752D01*
X102299Y308961D02*
Y309713D01*
X122710Y303990D02*
X122166D01*
X121864Y304293*
Y305623*
X122166Y305926*
X122710*
X123012Y305623*
Y304293*
X122710Y303990*
X122141Y304016D02*
X122735D01*
X122102Y304055D02*
X122774D01*
X122062Y304094D02*
X122814D01*
X122023Y304134D02*
X122853D01*
X121984Y304173D02*
X122893D01*
X121944Y304213D02*
X122932D01*
X121905Y304252D02*
X122971D01*
X121865Y304291D02*
X123011D01*
X121864Y304331D02*
X123012D01*
X121864Y304370D02*
X123012D01*
X121864Y304409D02*
X123012D01*
X121864Y304449D02*
X123012D01*
X121864Y304488D02*
X123012D01*
X121864Y304528D02*
X123012D01*
X121864Y304567D02*
X123012D01*
X121864Y304606D02*
X123012D01*
X121864Y304646D02*
X123012D01*
X121864Y304685D02*
X123012D01*
X121864Y304724D02*
X123012D01*
X121864Y304764D02*
X123012D01*
X121864Y304803D02*
X123012D01*
X121864Y304843D02*
X123012D01*
X121864Y304882D02*
X123012D01*
X121864Y304921D02*
X123012D01*
X121864Y304961D02*
X123012D01*
X121864Y305000D02*
X123012D01*
X121864Y305039D02*
X123012D01*
X121864Y305079D02*
X123012D01*
X121864Y305118D02*
X123012D01*
X121864Y305157D02*
X123012D01*
X121864Y305197D02*
X123012D01*
X121864Y305236D02*
X123012D01*
X121864Y305276D02*
X123012D01*
X121864Y305315D02*
X123012D01*
X121864Y305354D02*
X123012D01*
X121864Y305394D02*
X123012D01*
X121864Y305433D02*
X123012D01*
X121864Y305472D02*
X123012D01*
X121864Y305512D02*
X123012D01*
X121864Y305551D02*
X123012D01*
X121864Y305591D02*
X123012D01*
X121871Y305630D02*
X123005D01*
X121910Y305669D02*
X122966D01*
X121949Y305709D02*
X122927D01*
X121989Y305748D02*
X122887D01*
X122028Y305787D02*
X122848D01*
X122068Y305827D02*
X122809D01*
X122107Y305866D02*
X122769D01*
X122146Y305906D02*
X122730D01*
X121890Y304267D02*
Y305649D01*
X121929Y304228D02*
Y305688D01*
X121969Y304188D02*
Y305728D01*
X122008Y304149D02*
Y305767D01*
X122047Y304110D02*
Y305806D01*
X122087Y304070D02*
Y305846D01*
X122126Y304031D02*
Y305885D01*
X122165Y303991D02*
Y305925D01*
X122205Y303990D02*
Y305926D01*
X122244Y303990D02*
Y305926D01*
X122283Y303990D02*
Y305926D01*
X122323Y303990D02*
Y305926D01*
X122362Y303990D02*
Y305926D01*
X122402Y303990D02*
Y305926D01*
X122441Y303990D02*
Y305926D01*
X122480Y303990D02*
Y305926D01*
X122520Y303990D02*
Y305926D01*
X122559Y303990D02*
Y305926D01*
X122598Y303990D02*
Y305926D01*
X122638Y303990D02*
Y305926D01*
X122677Y303990D02*
Y305926D01*
X122717Y303997D02*
Y305919D01*
X122756Y304037D02*
Y305879D01*
X122795Y304076D02*
Y305840D01*
X122835Y304115D02*
Y305801D01*
X122874Y304155D02*
Y305761D01*
X122913Y304194D02*
Y305722D01*
X122953Y304233D02*
Y305683D01*
X122992Y304273D02*
Y305643D01*
X120938Y303990D02*
X120395D01*
X120092Y304293*
Y305623*
X120395Y305926*
X120938*
X121240Y305623*
Y304293*
X120938Y303990*
X120369Y304016D02*
X120963D01*
X120330Y304055D02*
X121003D01*
X120291Y304094D02*
X121042D01*
X120251Y304134D02*
X121081D01*
X120212Y304173D02*
X121121D01*
X120173Y304213D02*
X121160D01*
X120133Y304252D02*
X121200D01*
X120094Y304291D02*
X121239D01*
X120092Y304331D02*
X121240D01*
X120092Y304370D02*
X121240D01*
X120092Y304409D02*
X121240D01*
X120092Y304449D02*
X121240D01*
X120092Y304488D02*
X121240D01*
X120092Y304528D02*
X121240D01*
X120092Y304567D02*
X121240D01*
X120092Y304606D02*
X121240D01*
X120092Y304646D02*
X121240D01*
X120092Y304685D02*
X121240D01*
X120092Y304724D02*
X121240D01*
X120092Y304764D02*
X121240D01*
X120092Y304803D02*
X121240D01*
X120092Y304843D02*
X121240D01*
X120092Y304882D02*
X121240D01*
X120092Y304921D02*
X121240D01*
X120092Y304961D02*
X121240D01*
X120092Y305000D02*
X121240D01*
X120092Y305039D02*
X121240D01*
X120092Y305079D02*
X121240D01*
X120092Y305118D02*
X121240D01*
X120092Y305157D02*
X121240D01*
X120092Y305197D02*
X121240D01*
X120092Y305236D02*
X121240D01*
X120092Y305276D02*
X121240D01*
X120092Y305315D02*
X121240D01*
X120092Y305354D02*
X121240D01*
X120092Y305394D02*
X121240D01*
X120092Y305433D02*
X121240D01*
X120092Y305472D02*
X121240D01*
X120092Y305512D02*
X121240D01*
X120092Y305551D02*
X121240D01*
X120092Y305591D02*
X121240D01*
X120099Y305630D02*
X121234D01*
X120138Y305669D02*
X121194D01*
X120178Y305709D02*
X121155D01*
X120217Y305748D02*
X121116D01*
X120257Y305787D02*
X121076D01*
X120296Y305827D02*
X121037D01*
X120335Y305866D02*
X120998D01*
X120375Y305906D02*
X120958D01*
X120118Y304267D02*
Y305649D01*
X120157Y304228D02*
Y305688D01*
X120197Y304188D02*
Y305728D01*
X120236Y304149D02*
Y305767D01*
X120276Y304110D02*
Y305806D01*
X120315Y304070D02*
Y305846D01*
X120354Y304031D02*
Y305885D01*
X120394Y303991D02*
Y305925D01*
X120433Y303990D02*
Y305926D01*
X120472Y303990D02*
Y305926D01*
X120512Y303990D02*
Y305926D01*
X120551Y303990D02*
Y305926D01*
X120591Y303990D02*
Y305926D01*
X120630Y303990D02*
Y305926D01*
X120669Y303990D02*
Y305926D01*
X120709Y303990D02*
Y305926D01*
X120748Y303990D02*
Y305926D01*
X120787Y303990D02*
Y305926D01*
X120827Y303990D02*
Y305926D01*
X120866Y303990D02*
Y305926D01*
X120906Y303990D02*
Y305926D01*
X120945Y303997D02*
Y305919D01*
X120984Y304037D02*
Y305879D01*
X121024Y304076D02*
Y305840D01*
X121063Y304115D02*
Y305801D01*
X121102Y304155D02*
Y305761D01*
X121142Y304194D02*
Y305722D01*
X121181Y304233D02*
Y305683D01*
X121220Y304273D02*
Y305643D01*
X117377Y294275D02*
X116637D01*
X116236Y294675*
Y300140*
X116637Y300541*
X117377*
X117778Y300140*
Y294675*
X117377Y294275*
X116621Y294291D02*
X117394D01*
X116581Y294331D02*
X117433D01*
X116542Y294370D02*
X117473D01*
X116502Y294409D02*
X117512D01*
X116463Y294449D02*
X117552D01*
X116424Y294488D02*
X117591D01*
X116384Y294528D02*
X117630D01*
X116345Y294567D02*
X117670D01*
X116306Y294606D02*
X117709D01*
X116266Y294646D02*
X117748D01*
X116236Y294685D02*
X117778D01*
X116236Y294724D02*
X117778D01*
X116236Y294764D02*
X117778D01*
X116236Y294803D02*
X117778D01*
X116236Y294843D02*
X117778D01*
X116236Y294882D02*
X117778D01*
X116236Y294921D02*
X117778D01*
X116236Y294961D02*
X117778D01*
X116236Y295000D02*
X117778D01*
X116236Y295039D02*
X117778D01*
X116236Y295079D02*
X117778D01*
X116236Y295118D02*
X117778D01*
X116236Y295157D02*
X117778D01*
X116236Y295197D02*
X117778D01*
X116236Y295236D02*
X117778D01*
X116236Y295276D02*
X117778D01*
X116236Y295315D02*
X117778D01*
X116236Y295354D02*
X117778D01*
X116236Y295394D02*
X117778D01*
X116236Y295433D02*
X117778D01*
X116236Y295472D02*
X117778D01*
X116236Y295512D02*
X117778D01*
X116236Y295551D02*
X117778D01*
X116236Y295591D02*
X117778D01*
X116236Y295630D02*
X117778D01*
X116236Y295669D02*
X117778D01*
X116236Y295709D02*
X117778D01*
X116236Y295748D02*
X117778D01*
X116236Y295787D02*
X117778D01*
X116236Y295827D02*
X117778D01*
X116236Y295866D02*
X117778D01*
X116236Y295906D02*
X117778D01*
X116236Y295945D02*
X117778D01*
X116236Y295984D02*
X117778D01*
X116236Y296024D02*
X117778D01*
X116236Y296063D02*
X117778D01*
X116236Y296102D02*
X117778D01*
X116236Y296142D02*
X117778D01*
X116236Y296181D02*
X117778D01*
X116236Y296220D02*
X117778D01*
X116236Y296260D02*
X117778D01*
X116236Y296299D02*
X117778D01*
X116236Y296339D02*
X117778D01*
X116236Y296378D02*
X117778D01*
X116236Y296417D02*
X117778D01*
X116236Y296457D02*
X117778D01*
X116236Y296496D02*
X117778D01*
X116236Y296535D02*
X117778D01*
X116236Y296575D02*
X117778D01*
X116236Y296614D02*
X117778D01*
X116236Y296654D02*
X117778D01*
X116236Y296693D02*
X117778D01*
X116236Y296732D02*
X117778D01*
X116236Y296772D02*
X117778D01*
X116236Y296811D02*
X117778D01*
X116236Y296850D02*
X117778D01*
X116236Y296890D02*
X117778D01*
X116236Y296929D02*
X117778D01*
X116236Y296969D02*
X117778D01*
X116236Y297008D02*
X117778D01*
X116236Y297047D02*
X117778D01*
X116236Y297087D02*
X117778D01*
X116236Y297126D02*
X117778D01*
X116236Y297165D02*
X117778D01*
X116236Y297205D02*
X117778D01*
X116236Y297244D02*
X117778D01*
X116236Y297283D02*
X117778D01*
X116236Y297323D02*
X117778D01*
X116236Y297362D02*
X117778D01*
X116236Y297402D02*
X117778D01*
X116236Y297441D02*
X117778D01*
X116236Y297480D02*
X117778D01*
X116236Y297520D02*
X117778D01*
X116236Y297559D02*
X117778D01*
X116236Y297598D02*
X117778D01*
X116236Y297638D02*
X117778D01*
X116236Y297677D02*
X117778D01*
X116236Y297717D02*
X117778D01*
X116236Y297756D02*
X117778D01*
X116236Y297795D02*
X117778D01*
X116236Y297835D02*
X117778D01*
X116236Y297874D02*
X117778D01*
X116236Y297913D02*
X117778D01*
X116236Y297953D02*
X117778D01*
X116236Y297992D02*
X117778D01*
X116236Y298031D02*
X117778D01*
X116236Y298071D02*
X117778D01*
X116236Y298110D02*
X117778D01*
X116236Y298150D02*
X117778D01*
X116236Y298189D02*
X117778D01*
X116236Y298228D02*
X117778D01*
X116236Y298268D02*
X117778D01*
X116236Y298307D02*
X117778D01*
X116236Y298346D02*
X117778D01*
X116236Y298386D02*
X117778D01*
X116236Y298425D02*
X117778D01*
X116236Y298465D02*
X117778D01*
X116236Y298504D02*
X117778D01*
X116236Y298543D02*
X117778D01*
X116236Y298583D02*
X117778D01*
X116236Y298622D02*
X117778D01*
X116236Y298661D02*
X117778D01*
X116236Y298701D02*
X117778D01*
X116236Y298740D02*
X117778D01*
X116236Y298780D02*
X117778D01*
X116236Y298819D02*
X117778D01*
X116236Y298858D02*
X117778D01*
X116236Y298898D02*
X117778D01*
X116236Y298937D02*
X117778D01*
X116236Y298976D02*
X117778D01*
X116236Y299016D02*
X117778D01*
X116236Y299055D02*
X117778D01*
X116236Y299094D02*
X117778D01*
X116236Y299134D02*
X117778D01*
X116236Y299173D02*
X117778D01*
X116236Y299213D02*
X117778D01*
X116236Y299252D02*
X117778D01*
X116236Y299291D02*
X117778D01*
X116236Y299331D02*
X117778D01*
X116236Y299370D02*
X117778D01*
X116236Y299409D02*
X117778D01*
X116236Y299449D02*
X117778D01*
X116236Y299488D02*
X117778D01*
X116236Y299528D02*
X117778D01*
X116236Y299567D02*
X117778D01*
X116236Y299606D02*
X117778D01*
X116236Y299646D02*
X117778D01*
X116236Y299685D02*
X117778D01*
X116236Y299724D02*
X117778D01*
X116236Y299764D02*
X117778D01*
X116236Y299803D02*
X117778D01*
X116236Y299843D02*
X117778D01*
X116236Y299882D02*
X117778D01*
X116236Y299921D02*
X117778D01*
X116236Y299961D02*
X117778D01*
X116236Y300000D02*
X117778D01*
X116236Y300039D02*
X117778D01*
X116236Y300079D02*
X117778D01*
X116236Y300118D02*
X117778D01*
X116254Y300157D02*
X117761D01*
X116294Y300197D02*
X117721D01*
X116333Y300236D02*
X117682D01*
X116372Y300276D02*
X117642D01*
X116412Y300315D02*
X117603D01*
X116451Y300354D02*
X117564D01*
X116490Y300394D02*
X117524D01*
X116530Y300433D02*
X117485D01*
X116569Y300472D02*
X117446D01*
X116608Y300512D02*
X117406D01*
X116260Y294652D02*
Y300163D01*
X116299Y294613D02*
Y300203D01*
X116339Y294573D02*
Y300242D01*
X116378Y294534D02*
Y300281D01*
X116417Y294495D02*
Y300321D01*
X116457Y294455D02*
Y300360D01*
X116496Y294416D02*
Y300399D01*
X116535Y294377D02*
Y300439D01*
X116575Y294337D02*
Y300478D01*
X116614Y294298D02*
Y300517D01*
X116654Y294275D02*
Y300541D01*
X116693Y294275D02*
Y300541D01*
X116732Y294275D02*
Y300541D01*
X116772Y294275D02*
Y300541D01*
X116811Y294275D02*
Y300541D01*
X116850Y294275D02*
Y300541D01*
X116890Y294275D02*
Y300541D01*
X116929Y294275D02*
Y300541D01*
X116969Y294275D02*
Y300541D01*
X117008Y294275D02*
Y300541D01*
X117047Y294275D02*
Y300541D01*
X117087Y294275D02*
Y300541D01*
X117126Y294275D02*
Y300541D01*
X117165Y294275D02*
Y300541D01*
X117205Y294275D02*
Y300541D01*
X117244Y294275D02*
Y300541D01*
X117283Y294275D02*
Y300541D01*
X117323Y294275D02*
Y300541D01*
X117362Y294275D02*
Y300541D01*
X117402Y294299D02*
Y300516D01*
X117441Y294338D02*
Y300477D01*
X117480Y294378D02*
Y300438D01*
X117520Y294417D02*
Y300398D01*
X117559Y294456D02*
Y300359D01*
X117598Y294496D02*
Y300320D01*
X117638Y294535D02*
Y300280D01*
X117677Y294574D02*
Y300241D01*
X117717Y294614D02*
Y300201D01*
X117756Y294653D02*
Y300162D01*
X119166Y303990D02*
X118623D01*
X118321Y304293*
Y305623*
X118623Y305926*
X119166*
X119469Y305623*
Y304293*
X119166Y303990*
X118598Y304016D02*
X119192D01*
X118558Y304055D02*
X119231D01*
X118519Y304094D02*
X119270D01*
X118480Y304134D02*
X119310D01*
X118440Y304173D02*
X119349D01*
X118401Y304213D02*
X119389D01*
X118362Y304252D02*
X119428D01*
X118322Y304291D02*
X119467D01*
X118321Y304331D02*
X119469D01*
X118321Y304370D02*
X119469D01*
X118321Y304409D02*
X119469D01*
X118321Y304449D02*
X119469D01*
X118321Y304488D02*
X119469D01*
X118321Y304528D02*
X119469D01*
X118321Y304567D02*
X119469D01*
X118321Y304606D02*
X119469D01*
X118321Y304646D02*
X119469D01*
X118321Y304685D02*
X119469D01*
X118321Y304724D02*
X119469D01*
X118321Y304764D02*
X119469D01*
X118321Y304803D02*
X119469D01*
X118321Y304843D02*
X119469D01*
X118321Y304882D02*
X119469D01*
X118321Y304921D02*
X119469D01*
X118321Y304961D02*
X119469D01*
X118321Y305000D02*
X119469D01*
X118321Y305039D02*
X119469D01*
X118321Y305079D02*
X119469D01*
X118321Y305118D02*
X119469D01*
X118321Y305157D02*
X119469D01*
X118321Y305197D02*
X119469D01*
X118321Y305236D02*
X119469D01*
X118321Y305276D02*
X119469D01*
X118321Y305315D02*
X119469D01*
X118321Y305354D02*
X119469D01*
X118321Y305394D02*
X119469D01*
X118321Y305433D02*
X119469D01*
X118321Y305472D02*
X119469D01*
X118321Y305512D02*
X119469D01*
X118321Y305551D02*
X119469D01*
X118321Y305591D02*
X119469D01*
X118327Y305630D02*
X119462D01*
X118367Y305669D02*
X119423D01*
X118406Y305709D02*
X119383D01*
X118445Y305748D02*
X119344D01*
X118485Y305787D02*
X119305D01*
X118524Y305827D02*
X119265D01*
X118564Y305866D02*
X119226D01*
X118603Y305906D02*
X119186D01*
X118346Y304267D02*
Y305649D01*
X118386Y304228D02*
Y305688D01*
X118425Y304188D02*
Y305728D01*
X118465Y304149D02*
Y305767D01*
X118504Y304110D02*
Y305806D01*
X118543Y304070D02*
Y305846D01*
X118583Y304031D02*
Y305885D01*
X118622Y303991D02*
Y305925D01*
X118661Y303990D02*
Y305926D01*
X118701Y303990D02*
Y305926D01*
X118740Y303990D02*
Y305926D01*
X118780Y303990D02*
Y305926D01*
X118819Y303990D02*
Y305926D01*
X118858Y303990D02*
Y305926D01*
X118898Y303990D02*
Y305926D01*
X118937Y303990D02*
Y305926D01*
X118976Y303990D02*
Y305926D01*
X119016Y303990D02*
Y305926D01*
X119055Y303990D02*
Y305926D01*
X119094Y303990D02*
Y305926D01*
X119134Y303990D02*
Y305926D01*
X119173Y303997D02*
Y305919D01*
X119213Y304037D02*
Y305879D01*
X119252Y304076D02*
Y305840D01*
X119291Y304115D02*
Y305801D01*
X119331Y304155D02*
Y305761D01*
X119370Y304194D02*
Y305722D01*
X119409Y304233D02*
Y305683D01*
X119449Y304273D02*
Y305643D01*
X115409Y294275D02*
X114669D01*
X114268Y294675*
Y300140*
X114669Y300541*
X115409*
X115810Y300140*
Y294675*
X115409Y294275*
X114652Y294291D02*
X115426D01*
X114613Y294331D02*
X115465D01*
X114573Y294370D02*
X115504D01*
X114534Y294409D02*
X115544D01*
X114495Y294449D02*
X115583D01*
X114455Y294488D02*
X115622D01*
X114416Y294528D02*
X115662D01*
X114377Y294567D02*
X115701D01*
X114337Y294606D02*
X115741D01*
X114298Y294646D02*
X115780D01*
X114268Y294685D02*
X115810D01*
X114268Y294724D02*
X115810D01*
X114268Y294764D02*
X115810D01*
X114268Y294803D02*
X115810D01*
X114268Y294843D02*
X115810D01*
X114268Y294882D02*
X115810D01*
X114268Y294921D02*
X115810D01*
X114268Y294961D02*
X115810D01*
X114268Y295000D02*
X115810D01*
X114268Y295039D02*
X115810D01*
X114268Y295079D02*
X115810D01*
X114268Y295118D02*
X115810D01*
X114268Y295157D02*
X115810D01*
X114268Y295197D02*
X115810D01*
X114268Y295236D02*
X115810D01*
X114268Y295276D02*
X115810D01*
X114268Y295315D02*
X115810D01*
X114268Y295354D02*
X115810D01*
X114268Y295394D02*
X115810D01*
X114268Y295433D02*
X115810D01*
X114268Y295472D02*
X115810D01*
X114268Y295512D02*
X115810D01*
X114268Y295551D02*
X115810D01*
X114268Y295591D02*
X115810D01*
X114268Y295630D02*
X115810D01*
X114268Y295669D02*
X115810D01*
X114268Y295709D02*
X115810D01*
X114268Y295748D02*
X115810D01*
X114268Y295787D02*
X115810D01*
X114268Y295827D02*
X115810D01*
X114268Y295866D02*
X115810D01*
X114268Y295906D02*
X115810D01*
X114268Y295945D02*
X115810D01*
X114268Y295984D02*
X115810D01*
X114268Y296024D02*
X115810D01*
X114268Y296063D02*
X115810D01*
X114268Y296102D02*
X115810D01*
X114268Y296142D02*
X115810D01*
X114268Y296181D02*
X115810D01*
X114268Y296220D02*
X115810D01*
X114268Y296260D02*
X115810D01*
X114268Y296299D02*
X115810D01*
X114268Y296339D02*
X115810D01*
X114268Y296378D02*
X115810D01*
X114268Y296417D02*
X115810D01*
X114268Y296457D02*
X115810D01*
X114268Y296496D02*
X115810D01*
X114268Y296535D02*
X115810D01*
X114268Y296575D02*
X115810D01*
X114268Y296614D02*
X115810D01*
X114268Y296654D02*
X115810D01*
X114268Y296693D02*
X115810D01*
X114268Y296732D02*
X115810D01*
X114268Y296772D02*
X115810D01*
X114268Y296811D02*
X115810D01*
X114268Y296850D02*
X115810D01*
X114268Y296890D02*
X115810D01*
X114268Y296929D02*
X115810D01*
X114268Y296969D02*
X115810D01*
X114268Y297008D02*
X115810D01*
X114268Y297047D02*
X115810D01*
X114268Y297087D02*
X115810D01*
X114268Y297126D02*
X115810D01*
X114268Y297165D02*
X115810D01*
X114268Y297205D02*
X115810D01*
X114268Y297244D02*
X115810D01*
X114268Y297283D02*
X115810D01*
X114268Y297323D02*
X115810D01*
X114268Y297362D02*
X115810D01*
X114268Y297402D02*
X115810D01*
X114268Y297441D02*
X115810D01*
X114268Y297480D02*
X115810D01*
X114268Y297520D02*
X115810D01*
X114268Y297559D02*
X115810D01*
X114268Y297598D02*
X115810D01*
X114268Y297638D02*
X115810D01*
X114268Y297677D02*
X115810D01*
X114268Y297717D02*
X115810D01*
X114268Y297756D02*
X115810D01*
X114268Y297795D02*
X115810D01*
X114268Y297835D02*
X115810D01*
X114268Y297874D02*
X115810D01*
X114268Y297913D02*
X115810D01*
X114268Y297953D02*
X115810D01*
X114268Y297992D02*
X115810D01*
X114268Y298031D02*
X115810D01*
X114268Y298071D02*
X115810D01*
X114268Y298110D02*
X115810D01*
X114268Y298150D02*
X115810D01*
X114268Y298189D02*
X115810D01*
X114268Y298228D02*
X115810D01*
X114268Y298268D02*
X115810D01*
X114268Y298307D02*
X115810D01*
X114268Y298346D02*
X115810D01*
X114268Y298386D02*
X115810D01*
X114268Y298425D02*
X115810D01*
X114268Y298465D02*
X115810D01*
X114268Y298504D02*
X115810D01*
X114268Y298543D02*
X115810D01*
X114268Y298583D02*
X115810D01*
X114268Y298622D02*
X115810D01*
X114268Y298661D02*
X115810D01*
X114268Y298701D02*
X115810D01*
X114268Y298740D02*
X115810D01*
X114268Y298780D02*
X115810D01*
X114268Y298819D02*
X115810D01*
X114268Y298858D02*
X115810D01*
X114268Y298898D02*
X115810D01*
X114268Y298937D02*
X115810D01*
X114268Y298976D02*
X115810D01*
X114268Y299016D02*
X115810D01*
X114268Y299055D02*
X115810D01*
X114268Y299094D02*
X115810D01*
X114268Y299134D02*
X115810D01*
X114268Y299173D02*
X115810D01*
X114268Y299213D02*
X115810D01*
X114268Y299252D02*
X115810D01*
X114268Y299291D02*
X115810D01*
X114268Y299331D02*
X115810D01*
X114268Y299370D02*
X115810D01*
X114268Y299409D02*
X115810D01*
X114268Y299449D02*
X115810D01*
X114268Y299488D02*
X115810D01*
X114268Y299528D02*
X115810D01*
X114268Y299567D02*
X115810D01*
X114268Y299606D02*
X115810D01*
X114268Y299646D02*
X115810D01*
X114268Y299685D02*
X115810D01*
X114268Y299724D02*
X115810D01*
X114268Y299764D02*
X115810D01*
X114268Y299803D02*
X115810D01*
X114268Y299843D02*
X115810D01*
X114268Y299882D02*
X115810D01*
X114268Y299921D02*
X115810D01*
X114268Y299961D02*
X115810D01*
X114268Y300000D02*
X115810D01*
X114268Y300039D02*
X115810D01*
X114268Y300079D02*
X115810D01*
X114268Y300118D02*
X115810D01*
X114286Y300157D02*
X115792D01*
X114325Y300197D02*
X115753D01*
X114364Y300236D02*
X115713D01*
X114404Y300276D02*
X115674D01*
X114443Y300315D02*
X115635D01*
X114483Y300354D02*
X115595D01*
X114522Y300394D02*
X115556D01*
X114561Y300433D02*
X115516D01*
X114601Y300472D02*
X115477D01*
X114640Y300512D02*
X115438D01*
X114291Y294652D02*
Y300163D01*
X114331Y294613D02*
Y300203D01*
X114370Y294573D02*
Y300242D01*
X114409Y294534D02*
Y300281D01*
X114449Y294495D02*
Y300321D01*
X114488Y294455D02*
Y300360D01*
X114528Y294416D02*
Y300399D01*
X114567Y294377D02*
Y300439D01*
X114606Y294337D02*
Y300478D01*
X114646Y294298D02*
Y300517D01*
X114685Y294275D02*
Y300541D01*
X114724Y294275D02*
Y300541D01*
X114764Y294275D02*
Y300541D01*
X114803Y294275D02*
Y300541D01*
X114843Y294275D02*
Y300541D01*
X114882Y294275D02*
Y300541D01*
X114921Y294275D02*
Y300541D01*
X114961Y294275D02*
Y300541D01*
X115000Y294275D02*
Y300541D01*
X115039Y294275D02*
Y300541D01*
X115079Y294275D02*
Y300541D01*
X115118Y294275D02*
Y300541D01*
X115157Y294275D02*
Y300541D01*
X115197Y294275D02*
Y300541D01*
X115236Y294275D02*
Y300541D01*
X115276Y294275D02*
Y300541D01*
X115315Y294275D02*
Y300541D01*
X115354Y294275D02*
Y300541D01*
X115394Y294275D02*
Y300541D01*
X115433Y294299D02*
Y300516D01*
X115472Y294338D02*
Y300477D01*
X115512Y294378D02*
Y300438D01*
X115551Y294417D02*
Y300398D01*
X115591Y294456D02*
Y300359D01*
X115630Y294496D02*
Y300320D01*
X115669Y294535D02*
Y300280D01*
X115709Y294574D02*
Y300241D01*
X115748Y294614D02*
Y300201D01*
X115787Y294653D02*
Y300162D01*
X117395Y303990D02*
X116852D01*
X116549Y304293*
Y305623*
X116852Y305926*
X117395*
X117697Y305623*
Y304293*
X117395Y303990*
X116826Y304016D02*
X117420D01*
X116787Y304055D02*
X117459D01*
X116747Y304094D02*
X117499D01*
X116708Y304134D02*
X117538D01*
X116669Y304173D02*
X117578D01*
X116629Y304213D02*
X117617D01*
X116590Y304252D02*
X117656D01*
X116550Y304291D02*
X117696D01*
X116549Y304331D02*
X117697D01*
X116549Y304370D02*
X117697D01*
X116549Y304409D02*
X117697D01*
X116549Y304449D02*
X117697D01*
X116549Y304488D02*
X117697D01*
X116549Y304528D02*
X117697D01*
X116549Y304567D02*
X117697D01*
X116549Y304606D02*
X117697D01*
X116549Y304646D02*
X117697D01*
X116549Y304685D02*
X117697D01*
X116549Y304724D02*
X117697D01*
X116549Y304764D02*
X117697D01*
X116549Y304803D02*
X117697D01*
X116549Y304843D02*
X117697D01*
X116549Y304882D02*
X117697D01*
X116549Y304921D02*
X117697D01*
X116549Y304961D02*
X117697D01*
X116549Y305000D02*
X117697D01*
X116549Y305039D02*
X117697D01*
X116549Y305079D02*
X117697D01*
X116549Y305118D02*
X117697D01*
X116549Y305157D02*
X117697D01*
X116549Y305197D02*
X117697D01*
X116549Y305236D02*
X117697D01*
X116549Y305276D02*
X117697D01*
X116549Y305315D02*
X117697D01*
X116549Y305354D02*
X117697D01*
X116549Y305394D02*
X117697D01*
X116549Y305433D02*
X117697D01*
X116549Y305472D02*
X117697D01*
X116549Y305512D02*
X117697D01*
X116549Y305551D02*
X117697D01*
X116549Y305591D02*
X117697D01*
X116556Y305630D02*
X117690D01*
X116595Y305669D02*
X117651D01*
X116634Y305709D02*
X117612D01*
X116674Y305748D02*
X117572D01*
X116713Y305787D02*
X117533D01*
X116753Y305827D02*
X117494D01*
X116792Y305866D02*
X117454D01*
X116831Y305906D02*
X117415D01*
X116575Y304267D02*
Y305649D01*
X116614Y304228D02*
Y305688D01*
X116654Y304188D02*
Y305728D01*
X116693Y304149D02*
Y305767D01*
X116732Y304110D02*
Y305806D01*
X116772Y304070D02*
Y305846D01*
X116811Y304031D02*
Y305885D01*
X116850Y303991D02*
Y305925D01*
X116890Y303990D02*
Y305926D01*
X116929Y303990D02*
Y305926D01*
X116969Y303990D02*
Y305926D01*
X117008Y303990D02*
Y305926D01*
X117047Y303990D02*
Y305926D01*
X117087Y303990D02*
Y305926D01*
X117126Y303990D02*
Y305926D01*
X117165Y303990D02*
Y305926D01*
X117205Y303990D02*
Y305926D01*
X117244Y303990D02*
Y305926D01*
X117283Y303990D02*
Y305926D01*
X117323Y303990D02*
Y305926D01*
X117362Y303990D02*
Y305926D01*
X117402Y303997D02*
Y305919D01*
X117441Y304037D02*
Y305879D01*
X117480Y304076D02*
Y305840D01*
X117520Y304115D02*
Y305801D01*
X117559Y304155D02*
Y305761D01*
X117598Y304194D02*
Y305722D01*
X117638Y304233D02*
Y305683D01*
X117677Y304273D02*
Y305643D01*
X113440Y294275D02*
X112700D01*
X112299Y294675*
Y300140*
X112700Y300541*
X113440*
X113841Y300140*
Y294675*
X113440Y294275*
X112684Y294291D02*
X113457D01*
X112644Y294331D02*
X113496D01*
X112605Y294370D02*
X113536D01*
X112565Y294409D02*
X113575D01*
X112526Y294449D02*
X113615D01*
X112487Y294488D02*
X113654D01*
X112447Y294528D02*
X113693D01*
X112408Y294567D02*
X113733D01*
X112369Y294606D02*
X113772D01*
X112329Y294646D02*
X113811D01*
X112299Y294685D02*
X113841D01*
X112299Y294724D02*
X113841D01*
X112299Y294764D02*
X113841D01*
X112299Y294803D02*
X113841D01*
X112299Y294843D02*
X113841D01*
X112299Y294882D02*
X113841D01*
X112299Y294921D02*
X113841D01*
X112299Y294961D02*
X113841D01*
X112299Y295000D02*
X113841D01*
X112299Y295039D02*
X113841D01*
X112299Y295079D02*
X113841D01*
X112299Y295118D02*
X113841D01*
X112299Y295157D02*
X113841D01*
X112299Y295197D02*
X113841D01*
X112299Y295236D02*
X113841D01*
X112299Y295276D02*
X113841D01*
X112299Y295315D02*
X113841D01*
X112299Y295354D02*
X113841D01*
X112299Y295394D02*
X113841D01*
X112299Y295433D02*
X113841D01*
X112299Y295472D02*
X113841D01*
X112299Y295512D02*
X113841D01*
X112299Y295551D02*
X113841D01*
X112299Y295591D02*
X113841D01*
X112299Y295630D02*
X113841D01*
X112299Y295669D02*
X113841D01*
X112299Y295709D02*
X113841D01*
X112299Y295748D02*
X113841D01*
X112299Y295787D02*
X113841D01*
X112299Y295827D02*
X113841D01*
X112299Y295866D02*
X113841D01*
X112299Y295906D02*
X113841D01*
X112299Y295945D02*
X113841D01*
X112299Y295984D02*
X113841D01*
X112299Y296024D02*
X113841D01*
X112299Y296063D02*
X113841D01*
X112299Y296102D02*
X113841D01*
X112299Y296142D02*
X113841D01*
X112299Y296181D02*
X113841D01*
X112299Y296220D02*
X113841D01*
X112299Y296260D02*
X113841D01*
X112299Y296299D02*
X113841D01*
X112299Y296339D02*
X113841D01*
X112299Y296378D02*
X113841D01*
X112299Y296417D02*
X113841D01*
X112299Y296457D02*
X113841D01*
X112299Y296496D02*
X113841D01*
X112299Y296535D02*
X113841D01*
X112299Y296575D02*
X113841D01*
X112299Y296614D02*
X113841D01*
X112299Y296654D02*
X113841D01*
X112299Y296693D02*
X113841D01*
X112299Y296732D02*
X113841D01*
X112299Y296772D02*
X113841D01*
X112299Y296811D02*
X113841D01*
X112299Y296850D02*
X113841D01*
X112299Y296890D02*
X113841D01*
X112299Y296929D02*
X113841D01*
X112299Y296969D02*
X113841D01*
X112299Y297008D02*
X113841D01*
X112299Y297047D02*
X113841D01*
X112299Y297087D02*
X113841D01*
X112299Y297126D02*
X113841D01*
X112299Y297165D02*
X113841D01*
X112299Y297205D02*
X113841D01*
X112299Y297244D02*
X113841D01*
X112299Y297283D02*
X113841D01*
X112299Y297323D02*
X113841D01*
X112299Y297362D02*
X113841D01*
X112299Y297402D02*
X113841D01*
X112299Y297441D02*
X113841D01*
X112299Y297480D02*
X113841D01*
X112299Y297520D02*
X113841D01*
X112299Y297559D02*
X113841D01*
X112299Y297598D02*
X113841D01*
X112299Y297638D02*
X113841D01*
X112299Y297677D02*
X113841D01*
X112299Y297717D02*
X113841D01*
X112299Y297756D02*
X113841D01*
X112299Y297795D02*
X113841D01*
X112299Y297835D02*
X113841D01*
X112299Y297874D02*
X113841D01*
X112299Y297913D02*
X113841D01*
X112299Y297953D02*
X113841D01*
X112299Y297992D02*
X113841D01*
X112299Y298031D02*
X113841D01*
X112299Y298071D02*
X113841D01*
X112299Y298110D02*
X113841D01*
X112299Y298150D02*
X113841D01*
X112299Y298189D02*
X113841D01*
X112299Y298228D02*
X113841D01*
X112299Y298268D02*
X113841D01*
X112299Y298307D02*
X113841D01*
X112299Y298346D02*
X113841D01*
X112299Y298386D02*
X113841D01*
X112299Y298425D02*
X113841D01*
X112299Y298465D02*
X113841D01*
X112299Y298504D02*
X113841D01*
X112299Y298543D02*
X113841D01*
X112299Y298583D02*
X113841D01*
X112299Y298622D02*
X113841D01*
X112299Y298661D02*
X113841D01*
X112299Y298701D02*
X113841D01*
X112299Y298740D02*
X113841D01*
X112299Y298780D02*
X113841D01*
X112299Y298819D02*
X113841D01*
X112299Y298858D02*
X113841D01*
X112299Y298898D02*
X113841D01*
X112299Y298937D02*
X113841D01*
X112299Y298976D02*
X113841D01*
X112299Y299016D02*
X113841D01*
X112299Y299055D02*
X113841D01*
X112299Y299094D02*
X113841D01*
X112299Y299134D02*
X113841D01*
X112299Y299173D02*
X113841D01*
X112299Y299213D02*
X113841D01*
X112299Y299252D02*
X113841D01*
X112299Y299291D02*
X113841D01*
X112299Y299331D02*
X113841D01*
X112299Y299370D02*
X113841D01*
X112299Y299409D02*
X113841D01*
X112299Y299449D02*
X113841D01*
X112299Y299488D02*
X113841D01*
X112299Y299528D02*
X113841D01*
X112299Y299567D02*
X113841D01*
X112299Y299606D02*
X113841D01*
X112299Y299646D02*
X113841D01*
X112299Y299685D02*
X113841D01*
X112299Y299724D02*
X113841D01*
X112299Y299764D02*
X113841D01*
X112299Y299803D02*
X113841D01*
X112299Y299843D02*
X113841D01*
X112299Y299882D02*
X113841D01*
X112299Y299921D02*
X113841D01*
X112299Y299961D02*
X113841D01*
X112299Y300000D02*
X113841D01*
X112299Y300039D02*
X113841D01*
X112299Y300079D02*
X113841D01*
X112299Y300118D02*
X113841D01*
X112317Y300157D02*
X113824D01*
X112357Y300197D02*
X113784D01*
X112396Y300236D02*
X113745D01*
X112435Y300276D02*
X113705D01*
X112475Y300315D02*
X113666D01*
X112514Y300354D02*
X113627D01*
X112553Y300394D02*
X113587D01*
X112593Y300433D02*
X113548D01*
X112632Y300472D02*
X113509D01*
X112671Y300512D02*
X113469D01*
X112323Y294652D02*
Y300163D01*
X112362Y294613D02*
Y300203D01*
X112402Y294573D02*
Y300242D01*
X112441Y294534D02*
Y300281D01*
X112480Y294495D02*
Y300321D01*
X112520Y294455D02*
Y300360D01*
X112559Y294416D02*
Y300399D01*
X112598Y294377D02*
Y300439D01*
X112638Y294337D02*
Y300478D01*
X112677Y294298D02*
Y300517D01*
X112717Y294275D02*
Y300541D01*
X112756Y294275D02*
Y300541D01*
X112795Y294275D02*
Y300541D01*
X112835Y294275D02*
Y300541D01*
X112874Y294275D02*
Y300541D01*
X112913Y294275D02*
Y300541D01*
X112953Y294275D02*
Y300541D01*
X112992Y294275D02*
Y300541D01*
X113031Y294275D02*
Y300541D01*
X113071Y294275D02*
Y300541D01*
X113110Y294275D02*
Y300541D01*
X113150Y294275D02*
Y300541D01*
X113189Y294275D02*
Y300541D01*
X113228Y294275D02*
Y300541D01*
X113268Y294275D02*
Y300541D01*
X113307Y294275D02*
Y300541D01*
X113346Y294275D02*
Y300541D01*
X113386Y294275D02*
Y300541D01*
X113425Y294275D02*
Y300541D01*
X113465Y294299D02*
Y300516D01*
X113504Y294338D02*
Y300477D01*
X113543Y294378D02*
Y300438D01*
X113583Y294417D02*
Y300398D01*
X113622Y294456D02*
Y300359D01*
X113661Y294496D02*
Y300320D01*
X113701Y294535D02*
Y300280D01*
X113740Y294574D02*
Y300241D01*
X113780Y294614D02*
Y300201D01*
X113819Y294653D02*
Y300162D01*
X115623Y303990D02*
X115080D01*
X114777Y304293*
Y305623*
X115080Y305926*
X115623*
X115925Y305623*
Y304293*
X115623Y303990*
X115054Y304016D02*
X115648D01*
X115015Y304055D02*
X115688D01*
X114976Y304094D02*
X115727D01*
X114936Y304134D02*
X115767D01*
X114897Y304173D02*
X115806D01*
X114858Y304213D02*
X115845D01*
X114818Y304252D02*
X115885D01*
X114779Y304291D02*
X115924D01*
X114777Y304331D02*
X115925D01*
X114777Y304370D02*
X115925D01*
X114777Y304409D02*
X115925D01*
X114777Y304449D02*
X115925D01*
X114777Y304488D02*
X115925D01*
X114777Y304528D02*
X115925D01*
X114777Y304567D02*
X115925D01*
X114777Y304606D02*
X115925D01*
X114777Y304646D02*
X115925D01*
X114777Y304685D02*
X115925D01*
X114777Y304724D02*
X115925D01*
X114777Y304764D02*
X115925D01*
X114777Y304803D02*
X115925D01*
X114777Y304843D02*
X115925D01*
X114777Y304882D02*
X115925D01*
X114777Y304921D02*
X115925D01*
X114777Y304961D02*
X115925D01*
X114777Y305000D02*
X115925D01*
X114777Y305039D02*
X115925D01*
X114777Y305079D02*
X115925D01*
X114777Y305118D02*
X115925D01*
X114777Y305157D02*
X115925D01*
X114777Y305197D02*
X115925D01*
X114777Y305236D02*
X115925D01*
X114777Y305276D02*
X115925D01*
X114777Y305315D02*
X115925D01*
X114777Y305354D02*
X115925D01*
X114777Y305394D02*
X115925D01*
X114777Y305433D02*
X115925D01*
X114777Y305472D02*
X115925D01*
X114777Y305512D02*
X115925D01*
X114777Y305551D02*
X115925D01*
X114777Y305591D02*
X115925D01*
X114784Y305630D02*
X115919D01*
X114823Y305669D02*
X115879D01*
X114863Y305709D02*
X115840D01*
X114902Y305748D02*
X115801D01*
X114942Y305787D02*
X115761D01*
X114981Y305827D02*
X115722D01*
X115020Y305866D02*
X115683D01*
X115060Y305906D02*
X115643D01*
X114803Y304267D02*
Y305649D01*
X114843Y304228D02*
Y305688D01*
X114882Y304188D02*
Y305728D01*
X114921Y304149D02*
Y305767D01*
X114961Y304110D02*
Y305806D01*
X115000Y304070D02*
Y305846D01*
X115039Y304031D02*
Y305885D01*
X115079Y303991D02*
Y305925D01*
X115118Y303990D02*
Y305926D01*
X115157Y303990D02*
Y305926D01*
X115197Y303990D02*
Y305926D01*
X115236Y303990D02*
Y305926D01*
X115276Y303990D02*
Y305926D01*
X115315Y303990D02*
Y305926D01*
X115354Y303990D02*
Y305926D01*
X115394Y303990D02*
Y305926D01*
X115433Y303990D02*
Y305926D01*
X115472Y303990D02*
Y305926D01*
X115512Y303990D02*
Y305926D01*
X115551Y303990D02*
Y305926D01*
X115591Y303990D02*
Y305926D01*
X115630Y303997D02*
Y305919D01*
X115669Y304037D02*
Y305879D01*
X115709Y304076D02*
Y305840D01*
X115748Y304115D02*
Y305801D01*
X115787Y304155D02*
Y305761D01*
X115827Y304194D02*
Y305722D01*
X115866Y304233D02*
Y305683D01*
X115906Y304273D02*
Y305643D01*
X111472Y294275D02*
X110732D01*
X110331Y294675*
Y300140*
X110732Y300541*
X111472*
X111873Y300140*
Y294675*
X111472Y294275*
X110715Y294291D02*
X111489D01*
X110676Y294331D02*
X111528D01*
X110636Y294370D02*
X111567D01*
X110597Y294409D02*
X111607D01*
X110558Y294449D02*
X111646D01*
X110518Y294488D02*
X111685D01*
X110479Y294528D02*
X111725D01*
X110440Y294567D02*
X111764D01*
X110400Y294606D02*
X111804D01*
X110361Y294646D02*
X111843D01*
X110331Y294685D02*
X111873D01*
X110331Y294724D02*
X111873D01*
X110331Y294764D02*
X111873D01*
X110331Y294803D02*
X111873D01*
X110331Y294843D02*
X111873D01*
X110331Y294882D02*
X111873D01*
X110331Y294921D02*
X111873D01*
X110331Y294961D02*
X111873D01*
X110331Y295000D02*
X111873D01*
X110331Y295039D02*
X111873D01*
X110331Y295079D02*
X111873D01*
X110331Y295118D02*
X111873D01*
X110331Y295157D02*
X111873D01*
X110331Y295197D02*
X111873D01*
X110331Y295236D02*
X111873D01*
X110331Y295276D02*
X111873D01*
X110331Y295315D02*
X111873D01*
X110331Y295354D02*
X111873D01*
X110331Y295394D02*
X111873D01*
X110331Y295433D02*
X111873D01*
X110331Y295472D02*
X111873D01*
X110331Y295512D02*
X111873D01*
X110331Y295551D02*
X111873D01*
X110331Y295591D02*
X111873D01*
X110331Y295630D02*
X111873D01*
X110331Y295669D02*
X111873D01*
X110331Y295709D02*
X111873D01*
X110331Y295748D02*
X111873D01*
X110331Y295787D02*
X111873D01*
X110331Y295827D02*
X111873D01*
X110331Y295866D02*
X111873D01*
X110331Y295906D02*
X111873D01*
X110331Y295945D02*
X111873D01*
X110331Y295984D02*
X111873D01*
X110331Y296024D02*
X111873D01*
X110331Y296063D02*
X111873D01*
X110331Y296102D02*
X111873D01*
X110331Y296142D02*
X111873D01*
X110331Y296181D02*
X111873D01*
X110331Y296220D02*
X111873D01*
X110331Y296260D02*
X111873D01*
X110331Y296299D02*
X111873D01*
X110331Y296339D02*
X111873D01*
X110331Y296378D02*
X111873D01*
X110331Y296417D02*
X111873D01*
X110331Y296457D02*
X111873D01*
X110331Y296496D02*
X111873D01*
X110331Y296535D02*
X111873D01*
X110331Y296575D02*
X111873D01*
X110331Y296614D02*
X111873D01*
X110331Y296654D02*
X111873D01*
X110331Y296693D02*
X111873D01*
X110331Y296732D02*
X111873D01*
X110331Y296772D02*
X111873D01*
X110331Y296811D02*
X111873D01*
X110331Y296850D02*
X111873D01*
X110331Y296890D02*
X111873D01*
X110331Y296929D02*
X111873D01*
X110331Y296969D02*
X111873D01*
X110331Y297008D02*
X111873D01*
X110331Y297047D02*
X111873D01*
X110331Y297087D02*
X111873D01*
X110331Y297126D02*
X111873D01*
X110331Y297165D02*
X111873D01*
X110331Y297205D02*
X111873D01*
X110331Y297244D02*
X111873D01*
X110331Y297283D02*
X111873D01*
X110331Y297323D02*
X111873D01*
X110331Y297362D02*
X111873D01*
X110331Y297402D02*
X111873D01*
X110331Y297441D02*
X111873D01*
X110331Y297480D02*
X111873D01*
X110331Y297520D02*
X111873D01*
X110331Y297559D02*
X111873D01*
X110331Y297598D02*
X111873D01*
X110331Y297638D02*
X111873D01*
X110331Y297677D02*
X111873D01*
X110331Y297717D02*
X111873D01*
X110331Y297756D02*
X111873D01*
X110331Y297795D02*
X111873D01*
X110331Y297835D02*
X111873D01*
X110331Y297874D02*
X111873D01*
X110331Y297913D02*
X111873D01*
X110331Y297953D02*
X111873D01*
X110331Y297992D02*
X111873D01*
X110331Y298031D02*
X111873D01*
X110331Y298071D02*
X111873D01*
X110331Y298110D02*
X111873D01*
X110331Y298150D02*
X111873D01*
X110331Y298189D02*
X111873D01*
X110331Y298228D02*
X111873D01*
X110331Y298268D02*
X111873D01*
X110331Y298307D02*
X111873D01*
X110331Y298346D02*
X111873D01*
X110331Y298386D02*
X111873D01*
X110331Y298425D02*
X111873D01*
X110331Y298465D02*
X111873D01*
X110331Y298504D02*
X111873D01*
X110331Y298543D02*
X111873D01*
X110331Y298583D02*
X111873D01*
X110331Y298622D02*
X111873D01*
X110331Y298661D02*
X111873D01*
X110331Y298701D02*
X111873D01*
X110331Y298740D02*
X111873D01*
X110331Y298780D02*
X111873D01*
X110331Y298819D02*
X111873D01*
X110331Y298858D02*
X111873D01*
X110331Y298898D02*
X111873D01*
X110331Y298937D02*
X111873D01*
X110331Y298976D02*
X111873D01*
X110331Y299016D02*
X111873D01*
X110331Y299055D02*
X111873D01*
X110331Y299094D02*
X111873D01*
X110331Y299134D02*
X111873D01*
X110331Y299173D02*
X111873D01*
X110331Y299213D02*
X111873D01*
X110331Y299252D02*
X111873D01*
X110331Y299291D02*
X111873D01*
X110331Y299331D02*
X111873D01*
X110331Y299370D02*
X111873D01*
X110331Y299409D02*
X111873D01*
X110331Y299449D02*
X111873D01*
X110331Y299488D02*
X111873D01*
X110331Y299528D02*
X111873D01*
X110331Y299567D02*
X111873D01*
X110331Y299606D02*
X111873D01*
X110331Y299646D02*
X111873D01*
X110331Y299685D02*
X111873D01*
X110331Y299724D02*
X111873D01*
X110331Y299764D02*
X111873D01*
X110331Y299803D02*
X111873D01*
X110331Y299843D02*
X111873D01*
X110331Y299882D02*
X111873D01*
X110331Y299921D02*
X111873D01*
X110331Y299961D02*
X111873D01*
X110331Y300000D02*
X111873D01*
X110331Y300039D02*
X111873D01*
X110331Y300079D02*
X111873D01*
X110331Y300118D02*
X111873D01*
X110349Y300157D02*
X111855D01*
X110388Y300197D02*
X111816D01*
X110427Y300236D02*
X111776D01*
X110467Y300276D02*
X111737D01*
X110506Y300315D02*
X111698D01*
X110546Y300354D02*
X111658D01*
X110585Y300394D02*
X111619D01*
X110624Y300433D02*
X111579D01*
X110664Y300472D02*
X111540D01*
X110703Y300512D02*
X111501D01*
X110354Y294652D02*
Y300163D01*
X110394Y294613D02*
Y300203D01*
X110433Y294573D02*
Y300242D01*
X110472Y294534D02*
Y300281D01*
X110512Y294495D02*
Y300321D01*
X110551Y294455D02*
Y300360D01*
X110591Y294416D02*
Y300399D01*
X110630Y294377D02*
Y300439D01*
X110669Y294337D02*
Y300478D01*
X110709Y294298D02*
Y300517D01*
X110748Y294275D02*
Y300541D01*
X110787Y294275D02*
Y300541D01*
X110827Y294275D02*
Y300541D01*
X110866Y294275D02*
Y300541D01*
X110906Y294275D02*
Y300541D01*
X110945Y294275D02*
Y300541D01*
X110984Y294275D02*
Y300541D01*
X111024Y294275D02*
Y300541D01*
X111063Y294275D02*
Y300541D01*
X111102Y294275D02*
Y300541D01*
X111142Y294275D02*
Y300541D01*
X111181Y294275D02*
Y300541D01*
X111220Y294275D02*
Y300541D01*
X111260Y294275D02*
Y300541D01*
X111299Y294275D02*
Y300541D01*
X111339Y294275D02*
Y300541D01*
X111378Y294275D02*
Y300541D01*
X111417Y294275D02*
Y300541D01*
X111457Y294275D02*
Y300541D01*
X111496Y294299D02*
Y300516D01*
X111535Y294338D02*
Y300477D01*
X111575Y294378D02*
Y300438D01*
X111614Y294417D02*
Y300398D01*
X111654Y294456D02*
Y300359D01*
X111693Y294496D02*
Y300320D01*
X111732Y294535D02*
Y300280D01*
X111772Y294574D02*
Y300241D01*
X111811Y294614D02*
Y300201D01*
X111850Y294653D02*
Y300162D01*
X113851Y303990D02*
X113308D01*
X113006Y304293*
Y305623*
X113308Y305926*
X113851*
X114154Y305623*
Y304293*
X113851Y303990*
X113283Y304016D02*
X113877D01*
X113243Y304055D02*
X113916D01*
X113204Y304094D02*
X113955D01*
X113165Y304134D02*
X113995D01*
X113125Y304173D02*
X114034D01*
X113086Y304213D02*
X114074D01*
X113047Y304252D02*
X114113D01*
X113007Y304291D02*
X114152D01*
X113006Y304331D02*
X114154D01*
X113006Y304370D02*
X114154D01*
X113006Y304409D02*
X114154D01*
X113006Y304449D02*
X114154D01*
X113006Y304488D02*
X114154D01*
X113006Y304528D02*
X114154D01*
X113006Y304567D02*
X114154D01*
X113006Y304606D02*
X114154D01*
X113006Y304646D02*
X114154D01*
X113006Y304685D02*
X114154D01*
X113006Y304724D02*
X114154D01*
X113006Y304764D02*
X114154D01*
X113006Y304803D02*
X114154D01*
X113006Y304843D02*
X114154D01*
X113006Y304882D02*
X114154D01*
X113006Y304921D02*
X114154D01*
X113006Y304961D02*
X114154D01*
X113006Y305000D02*
X114154D01*
X113006Y305039D02*
X114154D01*
X113006Y305079D02*
X114154D01*
X113006Y305118D02*
X114154D01*
X113006Y305157D02*
X114154D01*
X113006Y305197D02*
X114154D01*
X113006Y305236D02*
X114154D01*
X113006Y305276D02*
X114154D01*
X113006Y305315D02*
X114154D01*
X113006Y305354D02*
X114154D01*
X113006Y305394D02*
X114154D01*
X113006Y305433D02*
X114154D01*
X113006Y305472D02*
X114154D01*
X113006Y305512D02*
X114154D01*
X113006Y305551D02*
X114154D01*
X113006Y305591D02*
X114154D01*
X113012Y305630D02*
X114147D01*
X113052Y305669D02*
X114108D01*
X113091Y305709D02*
X114068D01*
X113131Y305748D02*
X114029D01*
X113170Y305787D02*
X113990D01*
X113209Y305827D02*
X113950D01*
X113249Y305866D02*
X113911D01*
X113288Y305906D02*
X113872D01*
X113031Y304267D02*
Y305649D01*
X113071Y304228D02*
Y305688D01*
X113110Y304188D02*
Y305728D01*
X113150Y304149D02*
Y305767D01*
X113189Y304110D02*
Y305806D01*
X113228Y304070D02*
Y305846D01*
X113268Y304031D02*
Y305885D01*
X113307Y303991D02*
Y305925D01*
X113346Y303990D02*
Y305926D01*
X113386Y303990D02*
Y305926D01*
X113425Y303990D02*
Y305926D01*
X113465Y303990D02*
Y305926D01*
X113504Y303990D02*
Y305926D01*
X113543Y303990D02*
Y305926D01*
X113583Y303990D02*
Y305926D01*
X113622Y303990D02*
Y305926D01*
X113661Y303990D02*
Y305926D01*
X113701Y303990D02*
Y305926D01*
X113740Y303990D02*
Y305926D01*
X113780Y303990D02*
Y305926D01*
X113819Y303990D02*
Y305926D01*
X113858Y303997D02*
Y305919D01*
X113898Y304037D02*
Y305879D01*
X113937Y304076D02*
Y305840D01*
X113976Y304115D02*
Y305801D01*
X114016Y304155D02*
Y305761D01*
X114055Y304194D02*
Y305722D01*
X114094Y304233D02*
Y305683D01*
X114134Y304273D02*
Y305643D01*
X109503Y294275D02*
X108763D01*
X108362Y294675*
Y300140*
X108763Y300541*
X109503*
X109904Y300140*
Y294675*
X109503Y294275*
X108747Y294291D02*
X109520D01*
X108707Y294331D02*
X109559D01*
X108668Y294370D02*
X109599D01*
X108628Y294409D02*
X109638D01*
X108589Y294449D02*
X109678D01*
X108550Y294488D02*
X109717D01*
X108510Y294528D02*
X109756D01*
X108471Y294567D02*
X109796D01*
X108432Y294606D02*
X109835D01*
X108392Y294646D02*
X109874D01*
X108362Y294685D02*
X109904D01*
X108362Y294724D02*
X109904D01*
X108362Y294764D02*
X109904D01*
X108362Y294803D02*
X109904D01*
X108362Y294843D02*
X109904D01*
X108362Y294882D02*
X109904D01*
X108362Y294921D02*
X109904D01*
X108362Y294961D02*
X109904D01*
X108362Y295000D02*
X109904D01*
X108362Y295039D02*
X109904D01*
X108362Y295079D02*
X109904D01*
X108362Y295118D02*
X109904D01*
X108362Y295157D02*
X109904D01*
X108362Y295197D02*
X109904D01*
X108362Y295236D02*
X109904D01*
X108362Y295276D02*
X109904D01*
X108362Y295315D02*
X109904D01*
X108362Y295354D02*
X109904D01*
X108362Y295394D02*
X109904D01*
X108362Y295433D02*
X109904D01*
X108362Y295472D02*
X109904D01*
X108362Y295512D02*
X109904D01*
X108362Y295551D02*
X109904D01*
X108362Y295591D02*
X109904D01*
X108362Y295630D02*
X109904D01*
X108362Y295669D02*
X109904D01*
X108362Y295709D02*
X109904D01*
X108362Y295748D02*
X109904D01*
X108362Y295787D02*
X109904D01*
X108362Y295827D02*
X109904D01*
X108362Y295866D02*
X109904D01*
X108362Y295906D02*
X109904D01*
X108362Y295945D02*
X109904D01*
X108362Y295984D02*
X109904D01*
X108362Y296024D02*
X109904D01*
X108362Y296063D02*
X109904D01*
X108362Y296102D02*
X109904D01*
X108362Y296142D02*
X109904D01*
X108362Y296181D02*
X109904D01*
X108362Y296220D02*
X109904D01*
X108362Y296260D02*
X109904D01*
X108362Y296299D02*
X109904D01*
X108362Y296339D02*
X109904D01*
X108362Y296378D02*
X109904D01*
X108362Y296417D02*
X109904D01*
X108362Y296457D02*
X109904D01*
X108362Y296496D02*
X109904D01*
X108362Y296535D02*
X109904D01*
X108362Y296575D02*
X109904D01*
X108362Y296614D02*
X109904D01*
X108362Y296654D02*
X109904D01*
X108362Y296693D02*
X109904D01*
X108362Y296732D02*
X109904D01*
X108362Y296772D02*
X109904D01*
X108362Y296811D02*
X109904D01*
X108362Y296850D02*
X109904D01*
X108362Y296890D02*
X109904D01*
X108362Y296929D02*
X109904D01*
X108362Y296969D02*
X109904D01*
X108362Y297008D02*
X109904D01*
X108362Y297047D02*
X109904D01*
X108362Y297087D02*
X109904D01*
X108362Y297126D02*
X109904D01*
X108362Y297165D02*
X109904D01*
X108362Y297205D02*
X109904D01*
X108362Y297244D02*
X109904D01*
X108362Y297283D02*
X109904D01*
X108362Y297323D02*
X109904D01*
X108362Y297362D02*
X109904D01*
X108362Y297402D02*
X109904D01*
X108362Y297441D02*
X109904D01*
X108362Y297480D02*
X109904D01*
X108362Y297520D02*
X109904D01*
X108362Y297559D02*
X109904D01*
X108362Y297598D02*
X109904D01*
X108362Y297638D02*
X109904D01*
X108362Y297677D02*
X109904D01*
X108362Y297717D02*
X109904D01*
X108362Y297756D02*
X109904D01*
X108362Y297795D02*
X109904D01*
X108362Y297835D02*
X109904D01*
X108362Y297874D02*
X109904D01*
X108362Y297913D02*
X109904D01*
X108362Y297953D02*
X109904D01*
X108362Y297992D02*
X109904D01*
X108362Y298031D02*
X109904D01*
X108362Y298071D02*
X109904D01*
X108362Y298110D02*
X109904D01*
X108362Y298150D02*
X109904D01*
X108362Y298189D02*
X109904D01*
X108362Y298228D02*
X109904D01*
X108362Y298268D02*
X109904D01*
X108362Y298307D02*
X109904D01*
X108362Y298346D02*
X109904D01*
X108362Y298386D02*
X109904D01*
X108362Y298425D02*
X109904D01*
X108362Y298465D02*
X109904D01*
X108362Y298504D02*
X109904D01*
X108362Y298543D02*
X109904D01*
X108362Y298583D02*
X109904D01*
X108362Y298622D02*
X109904D01*
X108362Y298661D02*
X109904D01*
X108362Y298701D02*
X109904D01*
X108362Y298740D02*
X109904D01*
X108362Y298780D02*
X109904D01*
X108362Y298819D02*
X109904D01*
X108362Y298858D02*
X109904D01*
X108362Y298898D02*
X109904D01*
X108362Y298937D02*
X109904D01*
X108362Y298976D02*
X109904D01*
X108362Y299016D02*
X109904D01*
X108362Y299055D02*
X109904D01*
X108362Y299094D02*
X109904D01*
X108362Y299134D02*
X109904D01*
X108362Y299173D02*
X109904D01*
X108362Y299213D02*
X109904D01*
X108362Y299252D02*
X109904D01*
X108362Y299291D02*
X109904D01*
X108362Y299331D02*
X109904D01*
X108362Y299370D02*
X109904D01*
X108362Y299409D02*
X109904D01*
X108362Y299449D02*
X109904D01*
X108362Y299488D02*
X109904D01*
X108362Y299528D02*
X109904D01*
X108362Y299567D02*
X109904D01*
X108362Y299606D02*
X109904D01*
X108362Y299646D02*
X109904D01*
X108362Y299685D02*
X109904D01*
X108362Y299724D02*
X109904D01*
X108362Y299764D02*
X109904D01*
X108362Y299803D02*
X109904D01*
X108362Y299843D02*
X109904D01*
X108362Y299882D02*
X109904D01*
X108362Y299921D02*
X109904D01*
X108362Y299961D02*
X109904D01*
X108362Y300000D02*
X109904D01*
X108362Y300039D02*
X109904D01*
X108362Y300079D02*
X109904D01*
X108362Y300118D02*
X109904D01*
X108380Y300157D02*
X109887D01*
X108420Y300197D02*
X109847D01*
X108459Y300236D02*
X109808D01*
X108498Y300276D02*
X109768D01*
X108538Y300315D02*
X109729D01*
X108577Y300354D02*
X109690D01*
X108616Y300394D02*
X109650D01*
X108656Y300433D02*
X109611D01*
X108695Y300472D02*
X109572D01*
X108734Y300512D02*
X109532D01*
X108386Y294652D02*
Y300163D01*
X108425Y294613D02*
Y300203D01*
X108465Y294573D02*
Y300242D01*
X108504Y294534D02*
Y300281D01*
X108543Y294495D02*
Y300321D01*
X108583Y294455D02*
Y300360D01*
X108622Y294416D02*
Y300399D01*
X108661Y294377D02*
Y300439D01*
X108701Y294337D02*
Y300478D01*
X108740Y294298D02*
Y300517D01*
X108780Y294275D02*
Y300541D01*
X108819Y294275D02*
Y300541D01*
X108858Y294275D02*
Y300541D01*
X108898Y294275D02*
Y300541D01*
X108937Y294275D02*
Y300541D01*
X108976Y294275D02*
Y300541D01*
X109016Y294275D02*
Y300541D01*
X109055Y294275D02*
Y300541D01*
X109094Y294275D02*
Y300541D01*
X109134Y294275D02*
Y300541D01*
X109173Y294275D02*
Y300541D01*
X109213Y294275D02*
Y300541D01*
X109252Y294275D02*
Y300541D01*
X109291Y294275D02*
Y300541D01*
X109331Y294275D02*
Y300541D01*
X109370Y294275D02*
Y300541D01*
X109409Y294275D02*
Y300541D01*
X109449Y294275D02*
Y300541D01*
X109488Y294275D02*
Y300541D01*
X109528Y294299D02*
Y300516D01*
X109567Y294338D02*
Y300477D01*
X109606Y294378D02*
Y300438D01*
X109646Y294417D02*
Y300398D01*
X109685Y294456D02*
Y300359D01*
X109724Y294496D02*
Y300320D01*
X109764Y294535D02*
Y300280D01*
X109803Y294574D02*
Y300241D01*
X109843Y294614D02*
Y300201D01*
X109882Y294653D02*
Y300162D01*
X112080Y303990D02*
X111537D01*
X111234Y304293*
Y305623*
X111537Y305926*
X112080*
X112382Y305623*
Y304293*
X112080Y303990*
X111511Y304016D02*
X112105D01*
X111472Y304055D02*
X112144D01*
X111432Y304094D02*
X112184D01*
X111393Y304134D02*
X112223D01*
X111354Y304173D02*
X112263D01*
X111314Y304213D02*
X112302D01*
X111275Y304252D02*
X112341D01*
X111236Y304291D02*
X112381D01*
X111234Y304331D02*
X112382D01*
X111234Y304370D02*
X112382D01*
X111234Y304409D02*
X112382D01*
X111234Y304449D02*
X112382D01*
X111234Y304488D02*
X112382D01*
X111234Y304528D02*
X112382D01*
X111234Y304567D02*
X112382D01*
X111234Y304606D02*
X112382D01*
X111234Y304646D02*
X112382D01*
X111234Y304685D02*
X112382D01*
X111234Y304724D02*
X112382D01*
X111234Y304764D02*
X112382D01*
X111234Y304803D02*
X112382D01*
X111234Y304843D02*
X112382D01*
X111234Y304882D02*
X112382D01*
X111234Y304921D02*
X112382D01*
X111234Y304961D02*
X112382D01*
X111234Y305000D02*
X112382D01*
X111234Y305039D02*
X112382D01*
X111234Y305079D02*
X112382D01*
X111234Y305118D02*
X112382D01*
X111234Y305157D02*
X112382D01*
X111234Y305197D02*
X112382D01*
X111234Y305236D02*
X112382D01*
X111234Y305276D02*
X112382D01*
X111234Y305315D02*
X112382D01*
X111234Y305354D02*
X112382D01*
X111234Y305394D02*
X112382D01*
X111234Y305433D02*
X112382D01*
X111234Y305472D02*
X112382D01*
X111234Y305512D02*
X112382D01*
X111234Y305551D02*
X112382D01*
X111234Y305591D02*
X112382D01*
X111241Y305630D02*
X112375D01*
X111280Y305669D02*
X112336D01*
X111320Y305709D02*
X112297D01*
X111359Y305748D02*
X112257D01*
X111398Y305787D02*
X112218D01*
X111438Y305827D02*
X112179D01*
X111477Y305866D02*
X112139D01*
X111516Y305906D02*
X112100D01*
X111260Y304267D02*
Y305649D01*
X111299Y304228D02*
Y305688D01*
X111339Y304188D02*
Y305728D01*
X111378Y304149D02*
Y305767D01*
X111417Y304110D02*
Y305806D01*
X111457Y304070D02*
Y305846D01*
X111496Y304031D02*
Y305885D01*
X111535Y303991D02*
Y305925D01*
X111575Y303990D02*
Y305926D01*
X111614Y303990D02*
Y305926D01*
X111654Y303990D02*
Y305926D01*
X111693Y303990D02*
Y305926D01*
X111732Y303990D02*
Y305926D01*
X111772Y303990D02*
Y305926D01*
X111811Y303990D02*
Y305926D01*
X111850Y303990D02*
Y305926D01*
X111890Y303990D02*
Y305926D01*
X111929Y303990D02*
Y305926D01*
X111969Y303990D02*
Y305926D01*
X112008Y303990D02*
Y305926D01*
X112047Y303990D02*
Y305926D01*
X112087Y303997D02*
Y305919D01*
X112126Y304037D02*
Y305879D01*
X112165Y304076D02*
Y305840D01*
X112205Y304115D02*
Y305801D01*
X112244Y304155D02*
Y305761D01*
X112283Y304194D02*
Y305722D01*
X112323Y304233D02*
Y305683D01*
X112362Y304273D02*
Y305643D01*
X107535Y294275D02*
X106795D01*
X106394Y294675*
Y300140*
X106795Y300541*
X107535*
X107936Y300140*
Y294675*
X107535Y294275*
X106778Y294291D02*
X107552D01*
X106739Y294331D02*
X107591D01*
X106699Y294370D02*
X107630D01*
X106660Y294409D02*
X107670D01*
X106621Y294449D02*
X107709D01*
X106581Y294488D02*
X107748D01*
X106542Y294528D02*
X107788D01*
X106503Y294567D02*
X107827D01*
X106463Y294606D02*
X107867D01*
X106424Y294646D02*
X107906D01*
X106394Y294685D02*
X107936D01*
X106394Y294724D02*
X107936D01*
X106394Y294764D02*
X107936D01*
X106394Y294803D02*
X107936D01*
X106394Y294843D02*
X107936D01*
X106394Y294882D02*
X107936D01*
X106394Y294921D02*
X107936D01*
X106394Y294961D02*
X107936D01*
X106394Y295000D02*
X107936D01*
X106394Y295039D02*
X107936D01*
X106394Y295079D02*
X107936D01*
X106394Y295118D02*
X107936D01*
X106394Y295157D02*
X107936D01*
X106394Y295197D02*
X107936D01*
X106394Y295236D02*
X107936D01*
X106394Y295276D02*
X107936D01*
X106394Y295315D02*
X107936D01*
X106394Y295354D02*
X107936D01*
X106394Y295394D02*
X107936D01*
X106394Y295433D02*
X107936D01*
X106394Y295472D02*
X107936D01*
X106394Y295512D02*
X107936D01*
X106394Y295551D02*
X107936D01*
X106394Y295591D02*
X107936D01*
X106394Y295630D02*
X107936D01*
X106394Y295669D02*
X107936D01*
X106394Y295709D02*
X107936D01*
X106394Y295748D02*
X107936D01*
X106394Y295787D02*
X107936D01*
X106394Y295827D02*
X107936D01*
X106394Y295866D02*
X107936D01*
X106394Y295906D02*
X107936D01*
X106394Y295945D02*
X107936D01*
X106394Y295984D02*
X107936D01*
X106394Y296024D02*
X107936D01*
X106394Y296063D02*
X107936D01*
X106394Y296102D02*
X107936D01*
X106394Y296142D02*
X107936D01*
X106394Y296181D02*
X107936D01*
X106394Y296220D02*
X107936D01*
X106394Y296260D02*
X107936D01*
X106394Y296299D02*
X107936D01*
X106394Y296339D02*
X107936D01*
X106394Y296378D02*
X107936D01*
X106394Y296417D02*
X107936D01*
X106394Y296457D02*
X107936D01*
X106394Y296496D02*
X107936D01*
X106394Y296535D02*
X107936D01*
X106394Y296575D02*
X107936D01*
X106394Y296614D02*
X107936D01*
X106394Y296654D02*
X107936D01*
X106394Y296693D02*
X107936D01*
X106394Y296732D02*
X107936D01*
X106394Y296772D02*
X107936D01*
X106394Y296811D02*
X107936D01*
X106394Y296850D02*
X107936D01*
X106394Y296890D02*
X107936D01*
X106394Y296929D02*
X107936D01*
X106394Y296969D02*
X107936D01*
X106394Y297008D02*
X107936D01*
X106394Y297047D02*
X107936D01*
X106394Y297087D02*
X107936D01*
X106394Y297126D02*
X107936D01*
X106394Y297165D02*
X107936D01*
X106394Y297205D02*
X107936D01*
X106394Y297244D02*
X107936D01*
X106394Y297283D02*
X107936D01*
X106394Y297323D02*
X107936D01*
X106394Y297362D02*
X107936D01*
X106394Y297402D02*
X107936D01*
X106394Y297441D02*
X107936D01*
X106394Y297480D02*
X107936D01*
X106394Y297520D02*
X107936D01*
X106394Y297559D02*
X107936D01*
X106394Y297598D02*
X107936D01*
X106394Y297638D02*
X107936D01*
X106394Y297677D02*
X107936D01*
X106394Y297717D02*
X107936D01*
X106394Y297756D02*
X107936D01*
X106394Y297795D02*
X107936D01*
X106394Y297835D02*
X107936D01*
X106394Y297874D02*
X107936D01*
X106394Y297913D02*
X107936D01*
X106394Y297953D02*
X107936D01*
X106394Y297992D02*
X107936D01*
X106394Y298031D02*
X107936D01*
X106394Y298071D02*
X107936D01*
X106394Y298110D02*
X107936D01*
X106394Y298150D02*
X107936D01*
X106394Y298189D02*
X107936D01*
X106394Y298228D02*
X107936D01*
X106394Y298268D02*
X107936D01*
X106394Y298307D02*
X107936D01*
X106394Y298346D02*
X107936D01*
X106394Y298386D02*
X107936D01*
X106394Y298425D02*
X107936D01*
X106394Y298465D02*
X107936D01*
X106394Y298504D02*
X107936D01*
X106394Y298543D02*
X107936D01*
X106394Y298583D02*
X107936D01*
X106394Y298622D02*
X107936D01*
X106394Y298661D02*
X107936D01*
X106394Y298701D02*
X107936D01*
X106394Y298740D02*
X107936D01*
X106394Y298780D02*
X107936D01*
X106394Y298819D02*
X107936D01*
X106394Y298858D02*
X107936D01*
X106394Y298898D02*
X107936D01*
X106394Y298937D02*
X107936D01*
X106394Y298976D02*
X107936D01*
X106394Y299016D02*
X107936D01*
X106394Y299055D02*
X107936D01*
X106394Y299094D02*
X107936D01*
X106394Y299134D02*
X107936D01*
X106394Y299173D02*
X107936D01*
X106394Y299213D02*
X107936D01*
X106394Y299252D02*
X107936D01*
X106394Y299291D02*
X107936D01*
X106394Y299331D02*
X107936D01*
X106394Y299370D02*
X107936D01*
X106394Y299409D02*
X107936D01*
X106394Y299449D02*
X107936D01*
X106394Y299488D02*
X107936D01*
X106394Y299528D02*
X107936D01*
X106394Y299567D02*
X107936D01*
X106394Y299606D02*
X107936D01*
X106394Y299646D02*
X107936D01*
X106394Y299685D02*
X107936D01*
X106394Y299724D02*
X107936D01*
X106394Y299764D02*
X107936D01*
X106394Y299803D02*
X107936D01*
X106394Y299843D02*
X107936D01*
X106394Y299882D02*
X107936D01*
X106394Y299921D02*
X107936D01*
X106394Y299961D02*
X107936D01*
X106394Y300000D02*
X107936D01*
X106394Y300039D02*
X107936D01*
X106394Y300079D02*
X107936D01*
X106394Y300118D02*
X107936D01*
X106412Y300157D02*
X107918D01*
X106451Y300197D02*
X107879D01*
X106490Y300236D02*
X107839D01*
X106530Y300276D02*
X107800D01*
X106569Y300315D02*
X107761D01*
X106609Y300354D02*
X107721D01*
X106648Y300394D02*
X107682D01*
X106687Y300433D02*
X107642D01*
X106727Y300472D02*
X107603D01*
X106766Y300512D02*
X107564D01*
X106417Y294652D02*
Y300163D01*
X106457Y294613D02*
Y300203D01*
X106496Y294573D02*
Y300242D01*
X106535Y294534D02*
Y300281D01*
X106575Y294495D02*
Y300321D01*
X106614Y294455D02*
Y300360D01*
X106654Y294416D02*
Y300399D01*
X106693Y294377D02*
Y300439D01*
X106732Y294337D02*
Y300478D01*
X106772Y294298D02*
Y300517D01*
X106811Y294275D02*
Y300541D01*
X106850Y294275D02*
Y300541D01*
X106890Y294275D02*
Y300541D01*
X106929Y294275D02*
Y300541D01*
X106969Y294275D02*
Y300541D01*
X107008Y294275D02*
Y300541D01*
X107047Y294275D02*
Y300541D01*
X107087Y294275D02*
Y300541D01*
X107126Y294275D02*
Y300541D01*
X107165Y294275D02*
Y300541D01*
X107205Y294275D02*
Y300541D01*
X107244Y294275D02*
Y300541D01*
X107283Y294275D02*
Y300541D01*
X107323Y294275D02*
Y300541D01*
X107362Y294275D02*
Y300541D01*
X107402Y294275D02*
Y300541D01*
X107441Y294275D02*
Y300541D01*
X107480Y294275D02*
Y300541D01*
X107520Y294275D02*
Y300541D01*
X107559Y294299D02*
Y300516D01*
X107598Y294338D02*
Y300477D01*
X107638Y294378D02*
Y300438D01*
X107677Y294417D02*
Y300398D01*
X107717Y294456D02*
Y300359D01*
X107756Y294496D02*
Y300320D01*
X107795Y294535D02*
Y300280D01*
X107835Y294574D02*
Y300241D01*
X107874Y294614D02*
Y300201D01*
X107913Y294653D02*
Y300162D01*
X110308Y303990D02*
X109765D01*
X109462Y304293*
Y305623*
X109765Y305926*
X110308*
X110610Y305623*
Y304293*
X110308Y303990*
X109739Y304016D02*
X110333D01*
X109700Y304055D02*
X110373D01*
X109661Y304094D02*
X110412D01*
X109621Y304134D02*
X110452D01*
X109582Y304173D02*
X110491D01*
X109543Y304213D02*
X110530D01*
X109503Y304252D02*
X110570D01*
X109464Y304291D02*
X110609D01*
X109462Y304331D02*
X110610D01*
X109462Y304370D02*
X110610D01*
X109462Y304409D02*
X110610D01*
X109462Y304449D02*
X110610D01*
X109462Y304488D02*
X110610D01*
X109462Y304528D02*
X110610D01*
X109462Y304567D02*
X110610D01*
X109462Y304606D02*
X110610D01*
X109462Y304646D02*
X110610D01*
X109462Y304685D02*
X110610D01*
X109462Y304724D02*
X110610D01*
X109462Y304764D02*
X110610D01*
X109462Y304803D02*
X110610D01*
X109462Y304843D02*
X110610D01*
X109462Y304882D02*
X110610D01*
X109462Y304921D02*
X110610D01*
X109462Y304961D02*
X110610D01*
X109462Y305000D02*
X110610D01*
X109462Y305039D02*
X110610D01*
X109462Y305079D02*
X110610D01*
X109462Y305118D02*
X110610D01*
X109462Y305157D02*
X110610D01*
X109462Y305197D02*
X110610D01*
X109462Y305236D02*
X110610D01*
X109462Y305276D02*
X110610D01*
X109462Y305315D02*
X110610D01*
X109462Y305354D02*
X110610D01*
X109462Y305394D02*
X110610D01*
X109462Y305433D02*
X110610D01*
X109462Y305472D02*
X110610D01*
X109462Y305512D02*
X110610D01*
X109462Y305551D02*
X110610D01*
X109462Y305591D02*
X110610D01*
X109469Y305630D02*
X110604D01*
X109508Y305669D02*
X110564D01*
X109548Y305709D02*
X110525D01*
X109587Y305748D02*
X110486D01*
X109627Y305787D02*
X110446D01*
X109666Y305827D02*
X110407D01*
X109705Y305866D02*
X110368D01*
X109745Y305906D02*
X110328D01*
X109488Y304267D02*
Y305649D01*
X109528Y304228D02*
Y305688D01*
X109567Y304188D02*
Y305728D01*
X109606Y304149D02*
Y305767D01*
X109646Y304110D02*
Y305806D01*
X109685Y304070D02*
Y305846D01*
X109724Y304031D02*
Y305885D01*
X109764Y303991D02*
Y305925D01*
X109803Y303990D02*
Y305926D01*
X109843Y303990D02*
Y305926D01*
X109882Y303990D02*
Y305926D01*
X109921Y303990D02*
Y305926D01*
X109961Y303990D02*
Y305926D01*
X110000Y303990D02*
Y305926D01*
X110039Y303990D02*
Y305926D01*
X110079Y303990D02*
Y305926D01*
X110118Y303990D02*
Y305926D01*
X110157Y303990D02*
Y305926D01*
X110197Y303990D02*
Y305926D01*
X110236Y303990D02*
Y305926D01*
X110276Y303990D02*
Y305926D01*
X110315Y303997D02*
Y305919D01*
X110354Y304037D02*
Y305879D01*
X110394Y304076D02*
Y305840D01*
X110433Y304115D02*
Y305801D01*
X110472Y304155D02*
Y305761D01*
X110512Y304194D02*
Y305722D01*
X110551Y304233D02*
Y305683D01*
X110591Y304273D02*
Y305643D01*
G54D64*
X119386Y142472D03*
G54D65*
Y118063D03*
G54D66*
X164603Y201622D03*
G54D67*
X153567Y180728D03*
G54D68*
X62169Y305030D03*
X74976Y267749D03*
X78869Y259723D03*
X171272Y336373D03*
X105129Y231793D03*
X171272Y312751D03*
Y320625D03*
Y328499D03*
X62089Y325032D03*
Y285032D03*
Y275032D03*
G54D69*
X55272Y245291D03*
X160108Y348144D03*
X155435Y355076D03*
X150583Y358085D03*
X146083Y354968D03*
X141285Y358058D03*
X136569Y354995D03*
X131798Y358031D03*
X127191Y354995D03*
X122339Y358031D03*
X117676Y355022D03*
X112946Y358017D03*
X108284Y354995D03*
X103473Y358017D03*
X98797Y354981D03*
X94067Y358044D03*
X89324Y354995D03*
X85476Y345488D03*
X79793Y347897D03*
X170079Y228402D03*
X135486Y105263D03*
X66686Y350863D03*
G54D70*
X137404Y225790D03*
X146459Y229560D03*
Y222060D03*
X130315Y225765D03*
X121260Y221996D03*
Y229496D03*
G54D71*
X116023Y314258D03*
G54D72*
X132873Y303431D03*
X99173D03*
Y305400D03*
Y307368D03*
Y311305D03*
Y313274D03*
Y315242D03*
Y317211D03*
Y319179D03*
Y321148D03*
Y323116D03*
Y325085D03*
X132873D03*
Y323116D03*
Y321148D03*
Y319179D03*
Y317211D03*
Y315242D03*
Y313274D03*
Y311305D03*
Y309337D03*
Y307368D03*
Y305400D03*
G54D73*
X126850Y297408D03*
G54D74*
X105196Y331108D03*
X126850D03*
X122913Y297408D03*
X124881D03*
Y331108D03*
X120944Y297408D03*
X118976D03*
X105196D03*
X107165Y331108D03*
X109133D03*
X111102D03*
X113070D03*
X115039D03*
X117007D03*
X118976D03*
X120944D03*
X122913D03*
G54D75*
X106723Y305558D03*
Y307330D03*
Y309101D03*
Y310873D03*
Y312645D03*
Y314416D03*
Y316188D03*
Y317960D03*
Y319731D03*
Y321503D03*
X126423Y323158D03*
Y321386D03*
Y319615D03*
Y317843D03*
Y316071D03*
Y314300D03*
Y312528D03*
Y310756D03*
Y308985D03*
Y307213D03*
Y305441D03*
G54D76*
X109070Y324058D03*
X110842D03*
X112614D03*
X114385D03*
X116157D03*
X117929D03*
X119700D03*
X121472D03*
X123244D03*
G54D77*
X72744Y305039D03*
Y301496D03*
X108928Y212032D03*
X112471D03*
X102250Y196436D03*
X98707D03*
X72741Y285031D03*
Y281488D03*
X72740Y295024D03*
Y291480D03*
X77869Y199562D03*
Y203105D03*
X143573Y292548D03*
X147116D03*
X143567Y288588D03*
X147111D03*
X147685Y302713D03*
Y299169D03*
X123694Y216282D03*
X120151D03*
X123686Y212293D03*
X127229D03*
X103887Y206693D03*
Y210236D03*
X82182Y199574D03*
X85725D03*
X110697Y285567D03*
Y289110D03*
X110598Y228425D03*
Y224882D03*
X95547Y285567D03*
Y289110D03*
X102114Y289118D03*
Y285575D03*
X106055Y289118D03*
Y285575D03*
X118953Y285567D03*
Y289110D03*
X141917Y155614D03*
Y152071D03*
X133906Y157075D03*
X130362D03*
G54D78*
X178043Y303638D03*
G54D79*
Y298638D03*
Y293638D03*
Y288638D03*
X155443D03*
Y293638D03*
Y298638D03*
Y303638D03*
G54D80*
X62089Y315032D03*
X179949Y269169D03*
X102260Y170031D03*
Y187748D03*
X136906Y170031D03*
Y187748D03*
G54D81*
X62089Y305032D03*
Y295032D03*
Y285032D03*
X179949Y261138D03*
Y253500D03*
Y245469D03*
G54D82*
X82185Y194593D03*
X90846Y194594D03*
X86515Y185932D03*
X108930Y206666D03*
X117591Y206667D03*
X113260Y198005D03*
X123690Y206637D03*
X132352Y206638D03*
X128021Y197976D03*
G54D83*
X95302Y274666D03*
Y269166D03*
X90166Y274666D03*
Y269166D03*
X139961Y264496D03*
X145461D03*
X139962Y259504D03*
X145462D03*
X145461Y277024D03*
X139961D03*
X145461Y271898D03*
X139961D03*
X151492Y264496D03*
X156992D03*
X151492Y271898D03*
X156992D03*
X150528Y246118D03*
X156028D03*
Y251075D03*
X150528D03*
Y256205D03*
X156028D03*
X134547Y245602D03*
Y240102D03*
X139925Y239008D03*
X145425D03*
X139925Y246039D03*
X145425D03*
X134547Y265394D03*
Y270894D03*
X115054Y228023D03*
Y222523D03*
X134547Y260311D03*
Y254811D03*
X95592Y255291D03*
X90092D03*
X90035Y260468D03*
X95535D03*
X142214Y217018D03*
X147714D03*
X145425Y250996D03*
X139925D03*
G54D84*
X126163Y275479D03*
Y270479D03*
Y265479D03*
Y260479D03*
Y255479D03*
Y250479D03*
Y245479D03*
Y240479D03*
X102541D03*
Y245479D03*
Y250479D03*
Y255479D03*
Y260479D03*
Y265479D03*
Y270479D03*
Y275479D03*
G74*
X0Y0D02*
M02*
