*
*
G04 PADS VX.0 Build Number: 635560 generated Gerber (RS-274-X) file*
G04 PC Version=2.1*
*
%IN "CSM34P80A V1.0.pcb"*%
*
%MOIN*%
*
%FSLAX35Y35*%
*
*
*
*
G04 PC Standard Apertures*
*
*
G04 Thermal Relief Aperture macro.*
%AMTER*
1,1,$1,0,0*
1,0,$1-$2,0,0*
21,0,$3,$4,0,0,45*
21,0,$3,$4,0,0,135*
%
*
*
G04 Annular Aperture macro.*
%AMANN*
1,1,$1,0,0*
1,0,$2,0,0*
%
*
*
G04 Odd Aperture macro.*
%AMODD*
1,1,$1,0,0*
1,0,$1-0.005,0,0*
%
*
*
G04 PC Custom Aperture Macros*
*
*
*
*
*
*
G04 PC Aperture Table*
*
%ADD010C,0.00004*%
%ADD011R,0.02362X0.07874*%
%ADD012R,0.05906X0.07874*%
%ADD024C,0.00591*%
*
*
*
*
G04 PC Circuitry*
G04 Layer Name CSM34P80A V1.0.pcb - circuitry*
%LPD*%
*
*
G04 PC Custom Flashes*
G04 Layer Name CSM34P80A V1.0.pcb - flashes*
%LPD*%
*
*
G04 PC Circuitry*
G04 Layer Name CSM34P80A V1.0.pcb - circuitry*
%LPD*%
*
G54D10*
G54D11*
G01X79820Y345504D03*
X84545D03*
X89269D03*
X93994D03*
X98718D03*
X103443D03*
X108167D03*
X112891D03*
X117616D03*
X122340D03*
X127065D03*
X131789D03*
X136513D03*
X141238D03*
X145962D03*
X150687D03*
X155411D03*
X160135D03*
G54D12*
X124786Y161163D03*
X115337D03*
X124758Y161234D03*
X134207D03*
G54D24*
X139669Y100043D02*
Y128768D01*
X149138Y140823*
X157496Y177047*
X169909Y196697*
X175228Y207260*
X176075Y209083*
X185287Y235787*
X185257Y235704D02*
G75*
G03X189091Y248286I-105552J39045D01*
G01X189122Y248413D02*
X191937Y281130D01*
X191930Y281305D02*
G03X164270Y380374I-223376J-8971D01*
G01X164354Y380220D02*
X75772D01*
X66063Y362831*
X66002Y362703D02*
G03X53383Y236269I171225J-80938D01*
G01X53363Y236351D02*
G03X82669Y177054I146212J35372D01*
G01X82697Y177020D02*
X90673Y140457D01*
X99953Y128858*
X100035Y99965*
X139669Y100043*
X168648Y359795D02*
G03X168648I-4774J0D01*
G01X80656D02*
G03X80656I-4774J0D01*
G01X164515Y216094D02*
G03X164515I-4775J0D01*
G01X149479Y208614D02*
G03X149479I-3125J0D01*
G01X96526Y209008D02*
G03X96526I-3124J0D01*
G01X84790Y215898D02*
G03X84790I-4774J0D01*
G74*
G01X0Y0D02*
M02*
