*
*
G04 PADS VX.0 Build Number: 635560 generated Gerber (RS-274-X) file*
G04 PC Version=2.1*
*
%IN "CSM34P80A V1.0.pcb"*%
*
%MOIN*%
*
%FSLAX35Y35*%
*
*
*
*
G04 PC Standard Apertures*
*
*
G04 Thermal Relief Aperture macro.*
%AMTER*
1,1,$1,0,0*
1,0,$1-$2,0,0*
21,0,$3,$4,0,0,45*
21,0,$3,$4,0,0,135*
%
*
*
G04 Annular Aperture macro.*
%AMANN*
1,1,$1,0,0*
1,0,$2,0,0*
%
*
*
G04 Odd Aperture macro.*
%AMODD*
1,1,$1,0,0*
1,0,$1-0.005,0,0*
%
*
*
G04 PC Custom Aperture Macros*
*
*
*
*
*
*
G04 PC Aperture Table*
*
%ADD010C,0.00004*%
%ADD023C,0.00394*%
%ADD024C,0.00591*%
%ADD025C,0.001*%
%ADD044C,0.00472*%
%ADD048C,0.01*%
%ADD052C,0.00591*%
%ADD053C,0.00472*%
%ADD054C,0.0315*%
*
*
*
*
G04 PC Circuitry*
G04 Layer Name CSM34P80A V1.0.pcb - circuitry*
%LPD*%
*
*
G04 PC Custom Flashes*
G04 Layer Name CSM34P80A V1.0.pcb - flashes*
%LPD*%
*
*
G04 PC Circuitry*
G04 Layer Name CSM34P80A V1.0.pcb - circuitry*
%LPD*%
*
G54D10*
G54D23*
G01X2006222Y1733220D02*
Y1730120D01*
X2007510*
X2010087Y1732482D02*
X2009980Y1732777D01*
X2009765Y1733072*
X2009550Y1733220*
X2009121*
X2008906Y1733072*
X2008691Y1732777*
X2008584Y1732482*
X2008476Y1732039*
Y1731301*
X2008584Y1730858*
X2008691Y1730563*
X2008691D02*
X2008906Y1730267D01*
X2009121Y1730120*
X2009550*
X2009765Y1730267*
X2009980Y1730563*
X2009980D02*
X2010087Y1730858D01*
X2011053Y1733220D02*
Y1730120D01*
Y1733220D02*
X2011805D01*
X2012127Y1733072*
X2012342Y1732777*
X2012449Y1732482*
X2012557Y1732039*
Y1731301*
X2012449Y1730858*
X2012342Y1730563*
X2012342D02*
X2012127Y1730267D01*
X2011805Y1730120*
X2011053*
X2013523Y1732629D02*
X2013738Y1732777D01*
X2014060Y1733220*
Y1730120*
G54D24*
X2010933Y1751602D02*
X2010825Y1751898D01*
X2010610Y1752193*
X2010396Y1752341*
X2009966*
X2009751Y1752193*
X2009537Y1751898*
X2009429Y1751602*
X2009322Y1751159*
Y1750421*
X2009429Y1749978*
X2009537Y1749683*
X2009751Y1749388*
X2009966Y1749240*
X2010396*
X2010610Y1749388*
X2010825Y1749683*
X2010933Y1749978*
X2013402Y1751898D02*
X2013187Y1752193D01*
X2012865Y1752341*
X2012436*
X2012114Y1752193*
X2011899Y1751898*
Y1751602*
X2012006Y1751307*
X2012114Y1751159*
X2012328Y1751012*
X2012973Y1750717*
X2013187Y1750569*
X2013295Y1750421*
X2013402Y1750126*
Y1749683*
X2013187Y1749388*
X2012865Y1749240*
X2012436*
X2012114Y1749388*
X2011899Y1749683*
X2014368Y1752341D02*
Y1749240D01*
Y1752341D02*
X2015227Y1749240D01*
X2016086Y1752341D02*
X2015227Y1749240D01*
X2016086Y1752341D02*
Y1749240D01*
X2017268Y1752341D02*
X2018449D01*
X2017804Y1751159*
X2018127*
X2018341Y1751012*
X2018449Y1750864*
X2018556Y1750421*
Y1750126*
X2018449Y1749683*
X2018234Y1749388*
X2017912Y1749240*
X2017590*
X2017268Y1749388*
X2017160Y1749535*
X2017053Y1749831*
X2020596Y1752341D02*
X2019522Y1750274D01*
X2021133*
X2020596Y1752341D02*
Y1749240D01*
X2022099Y1752341D02*
Y1749240D01*
Y1752341D02*
X2023066D01*
X2023388Y1752193*
X2023495Y1752045*
X2023603Y1751750*
Y1751307*
X2023495Y1751012*
X2023388Y1750864*
X2023066Y1750717*
X2022099*
X2025106Y1752341D02*
X2024784Y1752193D01*
X2024676Y1751898*
Y1751602*
X2024784Y1751307*
X2024998Y1751159*
X2025428Y1751012*
X2025750Y1750864*
X2025965Y1750569*
X2026072Y1750274*
Y1749831*
X2025965Y1749535*
X2025857Y1749388*
X2025535Y1749240*
X2025106*
X2024784Y1749388*
X2024676Y1749535*
X2024569Y1749831*
Y1750274*
X2024676Y1750569*
X2024891Y1750864*
X2025213Y1751012*
X2025643Y1751159*
X2025857Y1751307*
X2025965Y1751602*
Y1751898*
X2025857Y1752193*
X2025535Y1752341*
X2025106*
X2027683D02*
X2027361Y1752193D01*
X2027146Y1751750*
X2027038Y1751012*
Y1750569*
X2027146Y1749831*
X2027361Y1749388*
X2027683Y1749240*
X2027897*
X2028220Y1749388*
X2028434Y1749831*
X2028542Y1750569*
Y1751012*
X2028434Y1751750*
X2028220Y1752193*
X2027897Y1752341*
X2027683*
X2030367D02*
X2029508Y1749240D01*
X2030367Y1752341D02*
X2031226Y1749240D01*
X2029830Y1750274D02*
X2030904D01*
X2034662Y1752341D02*
X2035521Y1749240D01*
X2036380Y1752341D02*
X2035521Y1749240D01*
X2037346Y1751750D02*
X2037561Y1751898D01*
X2037883Y1752341*
Y1749240*
X2038957Y1749535D02*
X2038849Y1749388D01*
X2038849D02*
X2038957Y1749240D01*
X2039064Y1749388*
X2038957Y1749535*
X2040675Y1752341D02*
X2040353Y1752193D01*
X2040138Y1751750*
X2040031Y1751012*
Y1750569*
X2040138Y1749831*
X2040353Y1749388*
X2040675Y1749240*
X2040890*
X2041212Y1749388*
X2041426Y1749831*
X2041534Y1750569*
Y1751012*
X2041426Y1751750*
X2041212Y1752193*
X2040890Y1752341*
X2040675*
X2014378Y1744902D02*
Y1745049D01*
X2014486Y1745344*
X2014593Y1745492*
X2014808Y1745640*
X2015237*
X2015452Y1745492*
X2015559Y1745344*
X2015667Y1745049*
Y1744754*
X2015559Y1744459*
X2015344Y1744016*
X2014271Y1742539*
X2015774*
X2017385Y1745640D02*
X2017062Y1745492D01*
X2016848Y1745049*
X2016740Y1744311*
Y1743868*
X2016848Y1743130*
X2017062Y1742687*
X2017385Y1742539*
X2017599*
X2017921Y1742687*
X2018136Y1743130*
X2018244Y1743868*
Y1744311*
X2018136Y1745049*
X2017921Y1745492*
X2017599Y1745640*
X2017385*
X2019317Y1744902D02*
Y1745049D01*
X2019425Y1745344*
X2019532Y1745492*
X2019747Y1745640*
X2020176*
X2020391Y1745492*
X2020498Y1745344*
X2020606Y1745049*
Y1744754*
X2020498Y1744459*
X2020284Y1744016*
X2019210Y1742539*
X2020713*
X2022324Y1745640D02*
X2022002Y1745492D01*
X2021787Y1745049*
X2021679Y1744311*
Y1743868*
X2021787Y1743130*
X2022002Y1742687*
X2022324Y1742539*
X2022538*
X2022861Y1742687*
X2023075Y1743130*
X2023183Y1743868*
Y1744311*
X2023075Y1745049*
X2022861Y1745492*
X2022538Y1745640*
X2022324*
X2026082Y1746230D02*
X2024149Y1741506D01*
X2027692Y1745640D02*
X2027370Y1745492D01*
X2027156Y1745049*
X2027048Y1744311*
Y1743868*
X2027156Y1743130*
X2027370Y1742687*
X2027692Y1742539*
X2027907*
X2028229Y1742687*
X2028444Y1743130*
X2028551Y1743868*
Y1744311*
X2028444Y1745049*
X2028229Y1745492*
X2027907Y1745640*
X2027692*
X2029732D02*
X2030914D01*
X2030269Y1744459*
X2030591*
X2030806Y1744311*
X2030914Y1744163*
X2031021Y1743720*
Y1743425*
X2030914Y1742982*
X2030699Y1742687*
X2030377Y1742539*
X2030055*
X2029732Y1742687*
X2029625Y1742835*
X2029518Y1743130*
X2033920Y1746230D02*
X2031987Y1741506D01*
X2034886Y1745049D02*
X2035101Y1745197D01*
X2035423Y1745640*
Y1742539*
X2037034Y1745640D02*
X2036712Y1745492D01*
X2036497Y1745049*
X2036390Y1744311*
Y1743868*
X2036497Y1743130*
X2036712Y1742687*
X2037034Y1742539*
X2037249*
X2037571Y1742687*
X2037785Y1743130*
X2037893Y1743868*
Y1744311*
X2037785Y1745049*
X2037571Y1745492*
X2037249Y1745640*
X2037034*
X2044019Y1477898D02*
Y1506622D01*
X2053487Y1518677*
X2061846Y1554902*
X2074259Y1574551*
X2079578Y1585114*
X2080424Y1586937*
X2089637Y1613642*
X2089606Y1613559D02*
G75*
G03X2093441Y1626140I-105552J39045D01*
G01X2093472Y1626268D02*
X2096287Y1658984D01*
X2096280Y1659160D02*
G03X2068619Y1758229I-223376J-8972D01*
G01X2068704Y1758075D02*
X1980121D01*
X1970412Y1740685*
X1970352Y1740557D02*
G03X1957732Y1614123I171224J-80937D01*
G01X1957712Y1614205D02*
G03X1987018Y1554909I146212J35373D01*
G01X1987046Y1554874D02*
X1995023Y1518311D01*
X2004302Y1506713*
X2004385Y1477819*
X2044019Y1477898*
X2072998Y1737650D02*
G03X2072998I-4774J0D01*
G01X1985006D02*
G03X1985006I-4775J0D01*
G01X2068864Y1593949D02*
G03X2068864I-4774J0D01*
G01X2053829Y1586469D02*
G03X2053829I-3125J0D01*
G01X2000876Y1586862D02*
G03X2000876I-3125J0D01*
G01X1989140Y1593752D02*
G03X1989140I-4775J0D01*
G54D25*
G01X2094551Y1684633D02*
G03X2094650Y1684646I50J6D01*
G01X1958990Y1612422D02*
G03X1959086Y1612449I48J13D01*
G01X1959073Y1612495D02*
G03X1958976Y1612469I-49J-13D01*
G01X1986868Y1554899D02*
G03X1986949Y1554959I41J30D01*
G01X2068288Y1564828D02*
G03X2068372Y1564774I42J-27D01*
G01X2089586Y1613563D02*
G03X2089489Y1613588I-48J13D01*
G01X2089466Y1613509D02*
G03X2089559Y1613472I47J-18D01*
G01X2095102Y1638680D02*
G03X2095002Y1638686I-50J3D01*
G01X2094617Y1684899D02*
G03X2094517Y1684893I-50J-3D01*
G01X2096166Y1659182D02*
G03X2096266Y1659188I50J3D01*
G01X2095005Y1638735D02*
G03X2095105Y1638729I50J-3D01*
G01X2096266Y1659182D02*
G03X2096166Y1659188I-50J3D01*
G01X2044011Y1506657D02*
G03X2044090Y1506595I39J-31D01*
G01X2044100Y1506626D02*
G03X2044000I-50J-0D01*
G01X2004337Y1506823D02*
G03X2004237I-50J-0D01*
G01X2004247Y1506792D02*
G03X2004326Y1506854I39J31D01*
G01X2061725Y1554882D02*
G03X2061809Y1554827I42J-28D01*
G01X2068305Y1564669D02*
G03X2068221Y1564724I-42J28D01*
G01X2061816Y1554843D02*
G03X2061718Y1554865I-49J11D01*
G01X1987012D02*
G03X1986915Y1554844I-48J-11D01*
G01X2063549Y1737650D02*
X2063449D01*
G03X2072998I4775J-0*
G01X2072898*
X2063549D02*
G03X2072898I4675J-0D01*
G01X2072998*
G03X2063449I-4774J-0*
G01X2063549*
X2072898D02*
G03X2063549I-4674J-0D01*
G01X1984906D02*
X1985006D01*
G03X1975457I-4775J-0*
G01X1975557*
X1984906D02*
G03X1975557I-4675J-0D01*
G01X1975457*
G03X1985006I4774J-0*
G01X1984906*
X1975557D02*
G03X1984906I4674J-0D01*
G01X2047679Y1586862D02*
X2047579D01*
G03X2053829I3125J0*
G01X2053729*
X2047679D02*
G03X2053729I3025J0D01*
G01X2053829*
G03X2047579I-3125J0*
G01X2047679*
X2053729D02*
G03X2047679I-3025J0D01*
G01X2059415Y1593949D02*
X2059315D01*
G03X2068864I4775J-0*
G01X2068764*
X2059415D02*
G03X2068764I4675J-0D01*
G01X2068864*
G03X2059315I-4774J-0*
G01X2059415*
X2068764D02*
G03X2059415I-4674J-0D01*
G01X1989040Y1593752D02*
X1989140D01*
G03X1979591I-4775J-0*
G01X1979691*
X1989040D02*
G03X1979691I-4675J-0D01*
G01X1979591*
G03X1989140I4774J-0*
G01X1989040*
X1979691D02*
G03X1989040I4674J-0D01*
G01X1994726Y1586862D02*
X1994626D01*
G03X2000876I3125J0*
G01X2000776*
X1994726D02*
G03X2000776I3025J0D01*
G01X2000876*
G03X1994626I-3125J0*
G01X1994726*
X2000776D02*
G03X1994726I-3025J0D01*
G01X2053538Y1518603D02*
G03X2053460Y1518665I-39J31D01*
G01X2053450Y1518645D02*
G03X2053548Y1518623I49J-11D01*
G01X1980074Y1758054D02*
G03Y1757954I-0J-50D01*
G01X1980040Y1757856D02*
G03X1979955Y1757909I-43J27D01*
G54D44*
G01X2017293Y1549276D02*
Y1546692D01*
X2018367*
X2019172Y1549276D02*
Y1546692D01*
Y1549276D02*
X2020336D01*
X2019172Y1548045D02*
X2019888D01*
X2019172Y1546692D02*
X2020336D01*
X2021141Y1549276D02*
Y1546692D01*
Y1549276D02*
X2021767D01*
X2022036Y1549153*
X2022215Y1548906*
X2022304Y1548660*
X2022394Y1548291*
Y1547676*
X2022304Y1547307*
X2022215Y1547061*
X2022036Y1546815*
X2021767Y1546692*
X2021141*
X2023199Y1548783D02*
X2023378Y1548906D01*
X2023646Y1549276*
Y1546692*
G54D48*
X2056652Y1694224D02*
G03X2056652I-1419J0D01*
G01X2015171Y1625506D02*
G03X2008283Y1625500I-3442J-2465D01*
G01X2008280Y1627073*
X2015171Y1627079D02*
G03X2008280Y1627073I-3442J-4235D01*
G01X2015171Y1627079D02*
Y1625506D01*
X2015511Y1631035D02*
G03X2015511I-1420J0D01*
G01X2010196D02*
G03X2010196I-1420J0D01*
G01X2017914Y1628673D02*
G03X2017914I-6579J0D01*
G01X2019836Y1628476D02*
G03X2019836I-8501J0D01*
G01X1989488Y1627095D02*
G03X1996376Y1627101I3442J2464D01*
G01X1996379Y1625527*
X1989488Y1625521D02*
G03X1996379Y1625527I3442J4235D01*
G01X1989488Y1625521D02*
Y1627095D01*
X1997007Y1631626D02*
G03X1997007I-1420J0D01*
G01X1991692D02*
G03X1991692I-1420J0D01*
G01X2058818Y1707217D02*
G03X2058818I-1420J0D01*
G01X1999410Y1629264D02*
G03X1999410I-6579J0D01*
G01X2001332Y1629067D02*
G03X2001332I-8501J0D01*
G01X2056948Y1621979D02*
G03Y1636154I-4241J7088D01*
G01X2060500Y1621989D02*
G03X2060487Y1636161I-8931J7078D01*
G01X1975310Y1683004D02*
X1973728Y1682998D01*
G03Y1647577I37980J-17711*
G01X1975306Y1647571*
X2035351Y1633004D02*
X2037516D01*
Y1625130*
X2035351*
Y1633004*
X2031808Y1632807D02*
X2033973D01*
Y1624933*
X2031808*
Y1632807*
X2027871D02*
X2030036D01*
Y1624933*
X2027871*
Y1632807*
X2044997Y1653870D02*
X2057595Y1653280D01*
X2058776Y1665091*
X2046178*
X2044997Y1653870*
X2046375Y1665484D02*
X2058973Y1664894D01*
X2060154Y1676705*
X2047556*
X2046375Y1665484*
X2027083Y1654067D02*
X2039682Y1653476D01*
X2040863Y1665287*
X2028264*
X2027083Y1654067*
X2028461Y1665681D02*
X2041060Y1665091D01*
X2042241Y1676902*
X2029642*
X2028461Y1665681*
X2009957Y1655051D02*
X2022556Y1654461D01*
X2023737Y1666272*
X2011138*
X2009957Y1655051*
X2011335Y1666665D02*
X2023934Y1666075D01*
X2025115Y1677886*
X2012516*
X2011335Y1666665*
X1992044Y1655248D02*
X2004642Y1654657D01*
X2005824Y1666468*
X1993225*
X1992044Y1655248*
X1993422Y1666862D02*
X2006020Y1666272D01*
X2007201Y1678083*
X1994603*
X1993422Y1666862*
X2039091Y1691075D02*
X2046965Y1690681D01*
X2046572Y1683594*
X2038501Y1683791*
X2039091Y1691075*
X2039682Y1698555D02*
X2047556Y1698161D01*
X2047162Y1691075*
X2039091Y1691272*
X2039682Y1698555*
X2028264Y1691468D02*
X2036138Y1691075D01*
X2035745Y1683988*
X2027674Y1684185*
X2028264Y1691468*
X2028855Y1698949D02*
X2036729Y1698555D01*
X2036335Y1691468*
X2028264Y1691665*
X2028855Y1698949*
X2022359Y1624933D02*
Y1632413D01*
Y1632020*
X2025902*
Y1635169*
X2039288*
Y1622571*
X2038894Y1622177*
X2025902*
Y1624933*
X2022359*
X2041989Y1630248D02*
Y1625130D01*
X2049076*
X2053800Y1620406*
Y1637728*
X2047895Y1631823*
X2042777*
X1982005Y1618240D02*
X2066847D01*
Y1718437*
X1982005*
Y1618240*
X1975705Y1604067D02*
X2072949D01*
Y1727295*
X1975705*
Y1604067*
X1918275Y1477811D02*
Y1611132D01*
Y1477811D02*
X1915775Y1487811D01*
X1920775*
X1918275Y1477811*
Y1757953D02*
Y1624632D01*
Y1757953D02*
X1920775Y1747953D01*
X1915775*
X1918275Y1757953*
X2008633Y1477811D02*
X1913275D01*
X2007991Y1757953D02*
X1913275D01*
X1906911Y1620694D02*
X1904638Y1614132D01*
X1903729Y1620694D02*
X1906911D01*
X1908957Y1619444D02*
X1909411Y1619757D01*
X1910093Y1620694*
Y1614132*
X1912366Y1614757D02*
X1912138Y1614444D01*
X1912366Y1614132*
X1912593Y1614444*
X1912366Y1614757*
X1914866Y1619132D02*
Y1619444D01*
X1915093Y1620069*
X1915320Y1620382*
X1915775Y1620694*
X1916684*
X1917138Y1620382*
X1917366Y1620069*
X1917593Y1619444*
Y1618819*
X1917366Y1618194*
X1916911Y1617257*
X1914638Y1614132*
X1917820*
X1919866Y1618507D02*
Y1614132D01*
Y1617257D02*
X1920547Y1618194D01*
X1921002Y1618507*
X1921684*
X1922138Y1618194*
X1922366Y1617257*
Y1614132*
Y1617257D02*
X1923047Y1618194D01*
X1923502Y1618507*
X1924184*
X1924638Y1618194*
X1924866Y1617257*
Y1614132*
X1926911Y1618507D02*
Y1614132D01*
Y1617257D02*
X1927593Y1618194D01*
X1928047Y1618507*
X1928729*
X1929184Y1618194*
X1929411Y1617257*
Y1614132*
Y1617257D02*
X1930093Y1618194D01*
X1930547Y1618507*
X1931229*
X1931684Y1618194*
X1931911Y1617257*
Y1614132*
X1951940Y1447047D02*
X2005651D01*
X1951940D02*
X1961940Y1449547D01*
Y1444547*
X1951940Y1447047*
X2096271D02*
X2042560D01*
X2096271D02*
X2086271Y1444547D01*
Y1449547*
X2096271Y1447047*
X1951940Y1654028D02*
Y1442047D01*
X2096271Y1654213D02*
Y1442047D01*
X2009105Y1449860D02*
X2011605D01*
X2010242Y1447360*
X2010924*
X2011378Y1447047*
X2011605Y1446735*
X2011833Y1445797*
Y1445172*
X2011605Y1444235*
X2011151Y1443610*
X2010469Y1443297*
X2009787*
X2009105Y1443610*
X2008878Y1443922*
X2008651Y1444547*
X2016605Y1448922D02*
X2016378Y1449547D01*
X2015696Y1449860*
X2015242*
X2014560Y1449547*
X2014105Y1448610*
X2013878Y1447047*
Y1445485*
X2014105Y1444235*
X2014560Y1443610*
X2015242Y1443297*
X2015469*
X2016151Y1443610*
X2016605Y1444235*
X2016833Y1445172*
Y1445485*
X2016605Y1446422*
X2016151Y1447047*
X2015469Y1447360*
X2015242*
X2014560Y1447047*
X2014105Y1446422*
X2013878Y1445485*
X2019105Y1443922D02*
X2018878Y1443610D01*
X2019105Y1443297*
X2019333Y1443610*
X2019105Y1443922*
X2024560Y1449860D02*
X2022287Y1443297D01*
X2021378Y1449860D02*
X2024560D01*
X2026605Y1447672D02*
Y1443297D01*
Y1446422D02*
X2027287Y1447360D01*
X2027742Y1447672*
X2028424*
X2028878Y1447360*
X2029105Y1446422*
Y1443297*
Y1446422D02*
X2029787Y1447360D01*
X2030242Y1447672*
X2030924*
X2031378Y1447360*
X2031605Y1446422*
Y1443297*
X2033651Y1447672D02*
Y1443297D01*
Y1446422D02*
X2034333Y1447360D01*
X2034787Y1447672*
X2035469*
X2035924Y1447360*
X2036151Y1446422*
Y1443297*
Y1446422D02*
X2036833Y1447360D01*
X2037287Y1447672*
X2037969*
X2038424Y1447360*
X2038651Y1446422*
Y1443297*
G54D52*
X2017561Y1544754D02*
X2032049D01*
X2033898*
X2034135Y1544517*
Y1533517*
X2033898Y1533280*
X2032049*
X2017561*
X2014635*
Y1544754*
X2017561*
X2024344Y1533352D02*
X2026194D01*
X2040682*
X2043607*
Y1544826*
X2040682*
X2026194*
X2024344*
X2024107Y1544589*
Y1533589*
X2024344Y1533352*
G54D53*
X2025912Y1530812D02*
X2026843Y1527453D01*
X2027774Y1530812D02*
X2026843Y1527453D01*
X2028821Y1530812D02*
Y1527453D01*
Y1530812D02*
X2029635D01*
X2029984Y1530652*
X2030216Y1530332*
X2030333Y1530012*
X2030449Y1529532*
Y1528732*
X2030333Y1528252*
X2030216Y1527933*
X2029984Y1527613*
X2029635Y1527453*
X2028821*
X2031496Y1530812D02*
Y1527453D01*
Y1530812D02*
X2032310D01*
X2032659Y1530652*
X2032892Y1530332*
X2033008Y1530012*
X2033124Y1529532*
Y1528732*
X2033008Y1528252*
X2032892Y1527933*
X2032659Y1527613*
X2032310Y1527453*
X2031496*
X2020303Y1530165D02*
X2020187Y1530485D01*
X2019954Y1530805*
X2019721Y1530965*
X2019256*
X2019023Y1530805*
X2018791Y1530485*
X2018674Y1530165*
X2018558Y1529686*
Y1528886*
X2018674Y1528406*
X2018791Y1528086*
X2019023Y1527766*
X2019256Y1527606*
X2019721*
X2019954Y1527766*
X2020187Y1528086*
X2020303Y1528406*
Y1528886*
X2019721D02*
X2020303D01*
X2037523Y1530973D02*
Y1527614D01*
Y1530973D02*
X2039151Y1527614D01*
Y1530973D02*
Y1527614D01*
X2041943Y1530173D02*
X2041827Y1530493D01*
X2041594Y1530813*
X2041361Y1530973*
X2040896*
X2040663Y1530813*
X2040431Y1530493*
X2040314Y1530173*
X2040198Y1529693*
Y1528894*
X2040314Y1528414*
X2040431Y1528094*
X2040663Y1527774*
X2040896Y1527614*
X2041361*
X2041594Y1527774*
X2041827Y1528094*
X2041943Y1528414*
G54D54*
X1990220Y1593717D02*
G03X1990220I-5906J0D01*
G01X2070035Y1593969D02*
G03X2070035I-5906J0D01*
G01X1986078Y1737705D02*
G03X1986078I-5906J0D01*
G01X2074101Y1737350D02*
G03X2074101I-5905J0D01*
G74*
G01X0Y0D02*
M02*
