*
*
G04 PADS VX.0 Build Number: 635560 generated Gerber (RS-274-X) file*
G04 PC Version=2.1*
*
%IN "HT-820D传感器00(修改).p"*%
*
%MOIN*%
*
%FSLAX35Y35*%
*
*
*
*
G04 PC Standard Apertures*
*
*
G04 Thermal Relief Aperture macro.*
%AMTER*
1,1,$1,0,0*
1,0,$1-$2,0,0*
21,0,$3,$4,0,0,45*
21,0,$3,$4,0,0,135*
%
*
*
G04 Annular Aperture macro.*
%AMANN*
1,1,$1,0,0*
1,0,$2,0,0*
%
*
*
G04 Odd Aperture macro.*
%AMODD*
1,1,$1,0,0*
1,0,$1-0.005,0,0*
%
*
*
G04 PC Custom Aperture Macros*
*
*
*
*
*
*
G04 PC Aperture Table*
*
%ADD010C,0.00004*%
%ADD011R,0.06X0.06*%
%ADD012O,0.05512X0.06*%
%ADD013C,0.04724*%
%ADD014C,0.01*%
%ADD015C,0.01969*%
%ADD016C,0.0315*%
%ADD017C,0.00787*%
*
*
*
*
G04 PC Circuitry*
G04 Layer Name HT-820D传感器00(修改).p - circuitry*
%LPD*%
*
*
G04 PC Custom Flashes*
G04 Layer Name HT-820D传感器00(修改).p - flashes*
%LPD*%
*
*
G04 PC Circuitry*
G04 Layer Name HT-820D传感器00(修改).p - circuitry*
%LPD*%
*
G54D10*
G54D11*
G01X122835Y106299D03*
G54D12*
X130866D03*
X138504D03*
X146535D03*
G54D13*
X138767Y136342D03*
X133784Y131553D03*
X128994Y136536D03*
G54D14*
X134061Y143679D02*
X131624Y141409D01*
X133894Y138972*
X133894D02*
X136331Y141242D01*
X134061Y143679*
X133868Y139000D02*
X133925D01*
X132936Y140000D02*
X134998D01*
X132005Y141000D02*
X136071D01*
X132259Y142000D02*
X135625D01*
X133332Y143000D02*
X134693D01*
X132000Y141005D02*
Y141759D01*
X133000Y139932D02*
Y142691D01*
X134000Y139070D02*
Y143623D01*
X135000Y140002D02*
Y142671D01*
X136000Y140934D02*
Y141598D01*
G54D15*
X126323Y134047D02*
G75*
G03X127618Y136601I-2836J3043D01*
G01X128963Y135158D02*
G03X126323Y134047I195J-4155D01*
G01X127986Y135596*
X125362Y126933D02*
Y133110D01*
X125970Y133718*
X128994Y136536*
X129438Y107330D02*
G03X130866Y110532I-2875J3202D01*
X132295Y107330I4303J0*
G01X130866Y110532D02*
Y107330D01*
X125362Y126933D02*
X130866Y121429D01*
Y106299*
X133655Y127903D02*
G03X132764Y130626I-4157J147D01*
G01X134736Y130556D02*
G03X133655Y127903I3076J-2800D01*
G01X133735Y130175*
X133638Y127421D02*
X133784Y131553D01*
X137075Y107330D02*
G03X138504Y110532I-2874J3202D01*
X139933Y107330I4303J0*
G01X138504Y110532D02*
Y107330D01*
X133638Y127421D02*
Y126728D01*
X138504Y121862*
Y106299*
X140145Y136310D02*
G03X141256Y133671I4155J196D01*
X138702Y134966I-3043J-2836*
G01X141256Y133671D02*
X139707Y135334D01*
X145107Y107330D02*
G03X146535Y110532I-2875J3202D01*
X147964Y107330I4303J0*
G01X146535Y110532D02*
Y107330D01*
X138767Y136342D02*
X141585Y133318D01*
X142906Y131997*
Y126315*
X146535Y122685*
Y106299*
X131844Y143615D02*
G03X134034Y142505I2608J2431D01*
G01X132797Y141353D02*
G03X131844Y143615I-3562J-168D01*
G01X117413Y142445D02*
X121469Y146500D01*
X128999*
X131294Y144206*
X133978Y141325*
X122835Y111641D02*
G03X124277Y107707I6085J-0D01*
G01X121392D02*
G03X122835Y111641I-4642J3934D01*
G01Y108315*
X117413Y142445D02*
Y122248D01*
X122835Y116827*
Y106299*
G54D16*
X135245Y130961D02*
G03X135245I-1430J0D01*
G01X135418Y141917D02*
G03X135418I-1430J0D01*
G01X140851Y136374D02*
G03X140851I-1430J0D01*
G01X129312Y136618D02*
G03X129312I-1430J0D01*
G01X135245Y130961D02*
G03X135245I-1430J0D01*
G01X135418Y141917D02*
G03X135418I-1430J0D01*
G01X140851Y136374D02*
G03X140851I-1430J0D01*
G01X129312Y136618D02*
G03X129312I-1430J0D01*
G01X133540Y132364D02*
X134090D01*
X133713Y143321D02*
X134263D01*
X139147Y137777D02*
X139696D01*
X127607Y138021D02*
X128157D01*
G54D17*
X140744Y155098D02*
Y159677D01*
X167717*
Y99980*
X100000*
Y159646*
X126965*
Y155098*
X140744*
G74*
X0Y0D02*
M02*
