*
*
G04 PADS VX.0 Build Number: 635560 generated Gerber (RS-274-X) file*
G04 PC Version=2.1*
*
%IN "HT-820D传感器00(修改).p"*%
*
%MOIN*%
*
%FSLAX35Y35*%
*
*
*
*
G04 PC Standard Apertures*
*
*
G04 Thermal Relief Aperture macro.*
%AMTER*
1,1,$1,0,0*
1,0,$1-$2,0,0*
21,0,$3,$4,0,0,45*
21,0,$3,$4,0,0,135*
%
*
*
G04 Annular Aperture macro.*
%AMANN*
1,1,$1,0,0*
1,0,$2,0,0*
%
*
*
G04 Odd Aperture macro.*
%AMODD*
1,1,$1,0,0*
1,0,$1-0.005,0,0*
%
*
*
G04 PC Custom Aperture Macros*
*
*
*
*
*
*
G04 PC Aperture Table*
*
%ADD010C,0.00004*%
%ADD016C,0.0315*%
%ADD017C,0.00787*%
%ADD020C,0.005*%
%ADD021C,0.001*%
*
*
*
*
G04 PC Circuitry*
G04 Layer Name HT-820D传感器00(修改).p - circuitry*
%LPD*%
*
*
G04 PC Custom Flashes*
G04 Layer Name HT-820D传感器00(修改).p - flashes*
%LPD*%
*
*
G04 PC Circuitry*
G04 Layer Name HT-820D传感器00(修改).p - circuitry*
%LPD*%
*
G54D10*
G54D16*
G01X139694Y136449D02*
G75*
G03X139694I-5804J0D01*
G03X139694I-5804J0*
G01X128088Y136313D02*
X139692D01*
X128752Y139148D02*
X139028D01*
X128904Y133478D02*
X138876D01*
X132139Y141982D02*
X135640D01*
G54D17*
X141755Y136439D02*
G03X141755I-7874J0D01*
G01X140149Y141205D02*
X143519Y144345D01*
X142447Y145495*
X139077Y142355*
X144511Y136439D02*
G03X144511I-10630J0D01*
G01X132441Y135097D02*
X135321Y137781D01*
X132539Y137879D02*
X135223Y134999D01*
X140744Y155098D02*
Y159677D01*
X167717*
Y99980*
X100000*
Y159646*
X126965*
Y155098*
X140744*
G54D20*
X112647Y137718D02*
X112547Y135220D01*
X112641Y134747*
X112749Y134586*
X112969Y134421*
X113196Y134412*
X113430Y134559*
X113550Y134710*
X113682Y135174*
X113695Y135486*
X111600Y137134D02*
X111379Y137299D01*
X111057Y137781*
X110926Y134503*
G54D21*
X168307Y99980D02*
Y159035D01*
X167713Y99980D02*
X99996D01*
X140744Y159035D02*
Y155098D01*
X126965D02*
Y159035D01*
X140744Y155098D02*
X126965D01*
X167713Y159035D02*
X140744D01*
X126965Y159646D02*
X99996D01*
X99409Y159035D02*
Y99980D01*
X152949Y136004D02*
G03X152949I-19095J0D01*
G01X149602D02*
G03X149602I-15748J0D01*
G01X167713Y99980D02*
Y159646D01*
Y99980D02*
X99996D01*
X140744Y159035D02*
Y155098D01*
X126965D02*
Y159035D01*
X140744Y155098D02*
X126965D01*
X167713Y159035D02*
X140744D01*
X126965Y159646D02*
X99996D01*
Y159035D02*
Y99980D01*
X152949Y136004D02*
G03X152949I-19095J0D01*
G01X149602D02*
G03X149602I-15748J0D01*
G74*
G01X0Y0D02*
M02*
